<svg xmlns="http://www.w3.org/2000/svg" viewBox="0 0 1647.58 1830.56"><defs><style>.cls-1{fill:#9b5ddc;}.cls-2{fill:#be80ff;}.cls-3{fill:#328e24;}.cls-4{fill:#fff;}.cls-5{fill:#b8f24c;}.cls-6{fill:#ffff97;}.cls-7{fill:#101820;}.cls-8{fill:#dfe4ec;}.cls-13,.cls-15,.cls-16,.cls-21,.cls-22,.cls-9{fill:none;stroke-linecap:round;stroke-linejoin:round;}.cls-9{stroke:#ffff97;}.cls-13,.cls-9{stroke-width:15px;}.cls-10{fill:#95cf29;}.cls-11{fill:#0f6b01;}.cls-12{fill:#57b349;}.cls-13{stroke:#dea5ff;}.cls-14{fill:#bca95b;}.cls-15{stroke:#fff4a6;}.cls-15,.cls-16,.cls-22{stroke-width:6px;}.cls-16{stroke:#998638;}.cls-17{fill:#7c4ab0;}.cls-18{fill:#fff4a6;}.cls-19{fill:#ff4040;}.cls-20{fill:#c33;}.cls-21{stroke:#ff8b8b;stroke-width:20px;}.cls-22{stroke:#101820;}</style></defs><g id="Layer_2" data-name="Layer 2"><g id="Overlord"><path class="cls-1" d="M643.44,1651.4a21,21,0,0,0,2.81,7.88c8.68,14.71,34.46,22.85,49,26.37a39.38,39.38,0,0,0,10.58,1.41,38.8,38.8,0,0,0,21.4-6.18c.33-.22.65-.46,1-.69h0c3.11,1,6.45,2,10.12,2.91a194.86,194.86,0,0,0,27.91,5.17h0c3.8,13,17.06,20.78,57.6,19.22,40.54,1.56,53.8-6.23,57.6-19.22h0a194.86,194.86,0,0,0,27.91-5.17c3.67-.95,7-1.9,10.12-2.91h0c.32.23.64.47,1,.69a38.8,38.8,0,0,0,21.4,6.18,39.38,39.38,0,0,0,10.58-1.41c14.5-3.52,40.28-11.66,49-26.37a21,21,0,0,0,2.81-7.88h0c4.81-2,9.79-4.27,15.2-6.92l1.66-.8,4.43-2.15c9.22,17,23.83,31,43.83,40.87,35,17.26,94.1,8.79,114.33-25.76,10-17.11,12.72-37.71,10.25-57.77h0s23.1-25.11,30.65-36.26a474.22,474.22,0,0,0,55.06-109.93,493.18,493.18,0,0,1,43,24.74c121.28,78.61,241.65,227.68,322,350.16H3C83.35,1705.09,203.72,1556,325,1477.41a493.18,493.18,0,0,1,43-24.74,474.22,474.22,0,0,0,55.06,109.93c7.55,11.15,30.65,36.26,30.65,36.26h0c-2.47,20.06.23,40.66,10.25,57.77,20.23,34.55,79.32,43,114.33,25.76,20-9.85,34.61-23.84,43.83-40.87l4.43,2.15,1.66.8c5.41,2.65,10.39,5,15.2,6.92Z"/><path class="cls-1" d="M623.61,1550.61c-10.67-18.1-28.58-30.17-48.8-35.83l2.44-1.54c-11.24-37-20.35-72.74-24.28-111.41-.79-7.84-.29-22.31-.29-22.31.53.41,1.07.81,1.6,1.2,14.8,10.86,33.32,21,51.18,25.42,12.59,3.12,25.34,7.82,38.12,9.93,9.16,1.51,18.14,4,27.34,5.29,8.21,1.13,16.65.31,24.76,2.05,17.73,3.8,35.91,4.89,53.85,7.27,14.06,1.87,47,1.44,47,1.44.5.92,1,1.82,1.56,2.7,5.94,9.8,25.7,25.44,25.7,25.44s19.76-15.64,25.7-25.44c.53-.88,1.06-1.78,1.56-2.7,0,0,32.94.43,47-1.44,17.94-2.38,36.12-3.47,53.85-7.27,8.11-1.74,16.55-.92,24.76-2.05,9.2-1.28,18.18-3.78,27.34-5.29,12.78-2.11,25.53-6.81,38.12-9.93,17.86-4.43,36.38-14.56,51.18-25.42.53-.39,1.07-.79,1.6-1.2,0,0,.5,14.47-.29,22.31-3.93,38.67-13,74.4-24.28,111.41l.56,2.09c-19.45,5.87-36.59,17.74-46.92,35.28a76.08,76.08,0,0,0-10.24,36,114.9,114.9,0,0,0,3.13,32.72h0a166.08,166.08,0,0,1-20.78,9.9c-.73.31-1.48.61-2.23.91-5.44-3.49-12.82-5.32-21.85-5.32a68.7,68.7,0,0,0-9.91.74,91.69,91.69,0,0,0-13.69,3.44c-9.26,3.15-31.94,10.86-37.14,27-1.87.56-3.78,1.11-5.67,1.57l-.44.11c-2.88.71-5.77,1.39-8.66,2.07-6.26,1.47-12.68,3-19,4.84-7.15-7.22-22.76-11.53-53.66-11.53s-46.51,4.31-53.66,11.53c-6.35-1.87-12.77-3.37-19-4.84-2.89-.68-5.78-1.36-8.66-2.07l-.44-.11c-1.89-.46-3.8-1-5.67-1.57-5.2-16.12-27.88-23.83-37.14-27a91.69,91.69,0,0,0-13.69-3.44,68.7,68.7,0,0,0-9.91-.74c-9,0-16.41,1.83-21.85,5.32-.75-.3-1.5-.6-2.23-.91a166.08,166.08,0,0,1-20.78-9.9h0a114.9,114.9,0,0,0,3.13-32.72A76.08,76.08,0,0,0,623.61,1550.61Z"/><path class="cls-2" d="M1112.23,1284.07c10.18,13.6,16.87,34.74,13.37,51.67-3.67,17.73-16.57,33-30.7,43.77-.52.41-1.06.81-1.6,1.2-14.8,10.86-33.32,21-51.18,25.43-12.59,3.11-25.35,7.83-38.12,9.93-9.16,1.51-18.14,4-27.34,5.29-8.21,1.14-16.65.31-24.76,2.05-17.72,3.8-35.92,4.88-53.86,7.27-14,1.86-47,1.43-47,1.43a65.72,65.72,0,0,0,6.67-16.93c2.2-9.72,7.4-18.84,8.58-28.89.53-4.42,0-9.25-.09-13.69-.24-10.51.45-17.81-2.34-28.16-.22-.81-.45-1.62-.66-2.43,11.31-.39,48-1.8,67.89-4,36.34-4,70.88-10.27,105.12-23.62,15-5.84,37.47-13.11,47-26.89a97.88,97.88,0,0,0,10.26-20S1107,1277,1112.23,1284.07Z"/><path class="cls-3" d="M866.74,1135.42c3.62,24,5.56,54.54-4.49,77.25-.15.34-.3.68-.46,1-5.21,11.25-10.34,22.47-20.73,29.91-1.5,1.08-17.27,6.41-17.27,6.41s-15.77-5.33-17.27-6.41c-10.39-7.44-15.53-18.66-20.74-29.91-.15-.34-.31-.68-.45-1-10.06-22.71-8.11-53.26-4.49-77.25.6-4,4.63-21.56,4.63-21.56,3.79,23.24,12.4,44.55,38.32,50.91,25.92-6.36,34.52-27.67,38.31-50.91C862.1,1113.86,866.14,1131.47,866.74,1135.42Z"/><path class="cls-4" d="M983.83,693.22c-.41,1-17.53,42-18.68,43.93-3.07,5.18-5.53,10.7-8.67,15.7-4.71,7.5-7.54,16.16-12.25,23.65a304.17,304.17,0,0,0-18.56,34.27c-4.8,10.34-18.35,50.87-18.35,50.87s-17.74-25.92-22.52-32.49c-5.34-7.34-9.83-16.08-15.82-22.64-3.22-3.52-6.82-6.57-10-10.1C849.76,786.34,823.79,745,823.79,745c28.34,0,57.66-11,83.87-20.77C933.29,714.73,958.72,703.48,983.83,693.22Z"/><path class="cls-5" d="M282.61,522.64c-.9-1.26-1.77-2.52-2.63-3.8-2.65-4-4.33-8.75-7.11-12.46-3.88-5.18-8-16.52-9.49-22.55-2.43-9.72-6.95-19.29-8.91-29.07-1.87-9.36-.93-20.49.6-29.67a41.81,41.81,0,0,1,10.33-20.62c4.92-5.34,13.49-10.59,19.34-4-1.3,27,6.58,53.58,16.9,78.25,4.08,9.76,10.12,18.64,16.24,27.23,27.5,38.68,71,56.88,116.48,61.5-1.9,1-3.51,2.26-3.68,4-.38,4.07,7.19,7.06,10.13,8.11,16.31,5.81,34.38,4.72,51.33,3.36,18.27-1.46,35.69-6.06,53-12a216.58,216.58,0,0,0,59.16-31.23c10.3-7.69,20.56-15.94,28.92-25.75,8.78-10.28,14.42-22.64,21.21-34.19a96.59,96.59,0,0,0,10.67-26.65c1.56-6.59,3.4-18.29,4.34-24.56-.53-.5-1.06-1-1.58-1.46q-8.22-7.37-16.6-14.5-16.05-13.71-32.58-26.85c-4.58-3.66-8.42-8.31-12.94-12.06-16-13.36-32.84-25.67-49.29-38.49C540.61,322.89,525,310.07,507.65,300a177.14,177.14,0,0,1-26.93-19.32c-6.9-5.89-15.31-9.49-22.81-14.51-6.39-4.28-12.34-9.06-18.88-13.11l-.23-.15c-14.24-8.78-29.68-16.33-41.65-28.29-6.6-6.6-18.61-12.05-20.69-22.41-3.32-16.64,13.16-25.05,26.73-28.45,3-.76,6.44-.1,9.48-.85,18.5-4.63,40.87.67,58.71,5.81,19.36,5.56,37.92,13.64,55.91,22.63,1.72.86,3.45,1.7,5.17,2.55,2.85-1.12,5.69-2.2,8.62-3.4,7.36-3,15.11-4.78,22.58-7.36,6.78-2.34,14.31-6.28,21.29-7.34,40.18-6.17,80.52-10.86,122-11.61h0a35.15,35.15,0,0,1,.83-8c1.27-4.71.4-10.62,3.19-14.83,4.72-7.1,10.14-14.75,18.34-18.06a86.85,86.85,0,0,1,9.65-3.12c4-1.09,8.3-3.07,12.56-1.82,3.7,1.08,10.93,4.67,10.83,9.35h0c-1.71,7-4.12,13.59-5.87,20.58-2.95,11.81-1.81,32.13,1.58,43.77,8.95,30.76,29.26,66.27,65.68,66.27s56.72-35.51,65.67-66.27c3.4-11.64,4.54-32,1.59-43.77-1.75-7-4.17-13.63-5.87-20.58h0c-.11-4.68,7.13-8.27,10.82-9.35,4.26-1.25,8.51.73,12.57,1.82a88.22,88.22,0,0,1,9.65,3.12c8.19,3.31,13.62,11,18.33,18.06,2.8,4.21,1.92,10.12,3.19,14.83a35.15,35.15,0,0,1,.83,8h0c41.52.75,81.87,5.44,122,11.61,7,1.06,14.51,5,21.29,7.34,7.48,2.58,15.23,4.32,22.59,7.36,2.92,1.2,5.77,2.28,8.61,3.4,1.73-.85,3.46-1.69,5.17-2.55,18-9,36.56-17.07,55.91-22.63,17.85-5.14,40.21-10.44,58.72-5.81,3,.75,6.45.09,9.48.85,13.57,3.4,30,11.81,26.72,28.45C1269,212.54,1257,218,1250.42,224.59c-12,12-27.4,19.51-41.65,28.29l-.23.15c-6.54,4-12.49,8.83-18.87,13.11-7.5,5-15.91,8.62-22.81,14.51A177.64,177.64,0,0,1,1139.93,300c-17.39,10.1-33,22.92-48.78,35.24-16.45,12.82-33.28,25.13-49.3,38.49-4.51,3.75-8.35,8.4-12.93,12.06q-16.5,13.19-32.58,26.85-8.4,7.15-16.6,14.5c-.53.47-1.06,1-1.58,1.46.93,6.27,2.78,18,4.34,24.56a96.28,96.28,0,0,0,10.67,26.65c6.79,11.55,12.43,23.91,21.2,34.19,8.37,9.81,18.63,18.06,28.92,25.75A216.72,216.72,0,0,0,1102.45,571c17.29,5.94,34.72,10.54,53,12,17,1.36,35,2.45,51.34-3.36,2.94-1.05,10.51-4,10.13-8.11-.17-1.77-1.78-3.07-3.69-4,45.47-4.62,89-22.82,116.49-61.5,6.12-8.59,12.15-17.47,16.23-27.23,10.32-24.67,18.21-51.25,16.91-78.25,5.84-6.59,14.41-1.34,19.33,4a41.64,41.64,0,0,1,10.33,20.62c1.54,9.18,2.48,20.31.6,29.67-1.95,9.78-6.48,19.35-8.9,29.07-1.51,6-5.62,17.37-9.49,22.55-2.79,3.71-4.47,8.47-7.12,12.46q-1.27,1.92-2.63,3.8s-4.53,25.62-7.51,38.1c-4,16.85-9.27,32.87-14,49.57-1.68,5.88-2.55,12.58-5,18.18-4.46,10.43-5.54,21.38-8.25,32.24-.73,2.92-3.45,13.92-3.59,14.52,6,22.65,8.93,45.68,4.08,67.81-2.56,11.63-4.5,24.05-8.45,35.29-7.23,20.6-18.87,43.79-32.53,60.85-6.65,8.31-12.64,17.5-20.5,24.72-5.14,4.74-11.22,8.37-16.41,13.06-10.74,9.71-21.42,19.29-33,27.89,0,0-9.07,29.76-13.07,43.66-5.77,20.14-15.73,38.68-21.07,59-3.63,13.82-11.28,26.34-16.27,39.53-2.82,7.42-6.17,14.94-8.54,22.5-2.16,6.9-3.06,14.29-6,20.89-6.83,15.36-14.58,30.31-20.85,45.92-6.15,15.36-8.7,32-13.63,47.75s-10.85,31.51-15.61,47.47c-3.43,11.46-6.65,24.16-11.24,36a97.88,97.88,0,0,1-10.26,20c-9.53,13.78-32,21-47,26.89C1002,1327.76,967.44,1334,931.1,1338c-19.84,2.18-56.58,3.59-67.89,4-1.69-6.24-3.42-12.46-5.14-18.7.45-.83.85-1.71,1.23-2.61,2.05-5,4.5-10,5.84-15.21a130.93,130.93,0,0,1,5-16.32c2.06-5.21,2.72-11,3.14-16.54a108,108,0,0,0-.6-22.44c-1.68-12.84-7-25.24-10.46-37.52,10-22.71,8.11-53.26,4.49-77.25-.6-4-4.64-21.56-4.64-21.56,2.26-13.91,2.8-28.53,4.29-41,.41-3.49-.18-6.91-.58-10.31-.86-7.38-.39-15.34-.37-22.76,0-1.43.11-18.4.11-18.4v-1.9a481.55,481.55,0,0,1-83.54,0v1.9s.09,17,.11,18.4c0,7.42.49,15.38-.38,22.76-.39,3.4-1,6.82-.57,10.31,1.49,12.51,2,27.13,4.28,41,0,0-4,17.61-4.63,21.56-3.62,24-5.57,54.54,4.49,77.25-3.43,12.28-8.79,24.68-10.47,37.52a109.34,109.34,0,0,0-.6,22.44c.42,5.56,1.08,11.33,3.15,16.54a132.63,132.63,0,0,1,5,16.32c1.34,5.25,3.79,10.2,5.84,15.21.37.9.78,1.78,1.22,2.61-1.71,6.24-3.44,12.46-5.13,18.7-11.32-.39-48-1.8-67.9-4-36.33-4-70.87-10.27-105.12-23.62-15-5.84-37.46-13.11-47-26.89a97.88,97.88,0,0,1-10.26-20c-4.6-11.79-7.81-24.49-11.24-36-4.77-16-10.66-31.56-15.62-47.47s-7.47-32.39-13.63-47.75c-6.26-15.61-14-30.56-20.84-45.92-2.93-6.6-3.83-14-6-20.89-2.38-7.56-5.72-15.08-8.54-22.5-5-13.19-12.64-25.71-16.28-39.53-5.34-20.27-15.3-38.81-21.07-59-4-13.9-13.07-43.66-13.07-43.66-11.61-8.6-22.29-18.18-33-27.89-5.2-4.69-11.27-8.32-16.42-13.06-7.86-7.22-13.85-16.41-20.49-24.72-13.66-17.06-25.3-40.25-32.54-60.85-3.94-11.24-5.89-23.66-8.44-35.29-4.85-22.13-1.88-45.16,4.08-67.81-.15-.6-2.86-11.6-3.59-14.52-2.71-10.86-3.79-21.81-8.26-32.24-2.41-5.6-3.29-12.3-5-18.18-4.76-16.7-10-32.72-14-49.57C287.15,548.26,282.61,522.64,282.61,522.64Zm896.65,228.05c6.62-14.26,12.21-28.25,11.56-43.91-.54-13.07.82-23.23-4.74-35.78-11-24.89-28.45-38.56-53.41-47.77-5.2-1.91-13-2.32-18.28-2.1-17.46.72-32.58.43-50.3,4.48A317.14,317.14,0,0,0,1016,640.53c-7,2.84-13.82,7.75-20.41,11.51-8.71,5-18.25,8.4-26.94,13.59-7.89,4.72-17.33,7.11-25.7,10.68-7.21,3.06-13.83,7.56-21.06,10.64-7.43,3.16-14.93,5.74-22.32,8.89-16.07,6.84-49.73,24.48-75.78,24.48S764.08,702.68,748,695.84c-7.39-3.15-14.89-5.73-22.32-8.89-7.24-3.08-13.85-7.58-21.06-10.64-8.38-3.57-17.81-6-25.71-10.68C670.24,660.44,660.7,657,652,652c-6.58-3.76-13.36-8.67-20.41-11.51a316.67,316.67,0,0,0-48.08-14.92c-17.73-4.05-32.85-3.76-50.31-4.48-5.32-.22-13.08.19-18.27,2.1-25,9.21-42.4,22.88-53.41,47.77-5.56,12.55-4.2,22.71-4.74,35.78-.65,15.66,4.94,29.65,11.55,43.91,1.65,3.54,3.16,8.5,5.69,11.51,5.22,6.25,11.54,13.25,16.31,19.92,4.14,5.81,8.37,11.55,13.44,16.47,22.31,21.69,49,36.39,76.2,50.8,9.44,5,24.68,9.13,35.13,11.52,5.42,1.24,10.85,3.94,16.32,5.18,22.8,5.21,45.36,11.09,68.46,16.36,20.27,4.66,39.87,9.54,60.62,12,21.1,2.48,40.21,7.58,63.31,7.58s42.2-5.1,63.31-7.58c20.75-2.42,40.34-7.3,60.61-12,23.1-5.27,45.66-11.15,68.46-16.36,5.47-1.24,10.91-3.94,16.32-5.18,10.45-2.39,25.69-6.52,35.14-11.52,27.19-14.41,53.89-29.11,76.2-50.8,5.06-4.92,9.3-10.66,13.44-16.47,4.76-6.67,11.09-13.67,16.31-19.92C1176.11,759.19,1177.62,754.23,1179.26,750.69ZM936,571.48a7.49,7.49,0,0,0-1.66-5c-4-4-9.11-5-14.46-5.79a11.54,11.54,0,0,0-6.19.83,18.6,18.6,0,0,0-2.49,4.13c-2.48,7.45-.27,17.7,8.27,19.83C929.45,588,936,580.67,936,571.48Zm-208,14c8.55-2.13,10.76-12.38,8.27-19.83a18.23,18.23,0,0,0-2.48-4.13,11.54,11.54,0,0,0-6.19-.83c-5.36.82-10.49,1.8-14.46,5.79a7.49,7.49,0,0,0-1.66,5C711.54,580.67,718.13,588,728.06,585.53Z"/><path class="cls-3" d="M736.33,565.7c2.49,7.45.28,17.7-8.27,19.83-9.93,2.49-16.52-4.86-16.52-14a7.49,7.49,0,0,1,1.66-5c4-4,9.1-5,14.46-5.79a11.54,11.54,0,0,1,6.19.83A18.23,18.23,0,0,1,736.33,565.7Z"/><path class="cls-3" d="M736.33,565.7c2.49,7.45.28,17.7-8.27,19.83-9.93,2.49-16.52-4.86-16.52-14a7.49,7.49,0,0,1,1.66-5c4-4,9.1-5,14.46-5.79a11.54,11.54,0,0,1,6.19.83A18.23,18.23,0,0,1,736.33,565.7Z"/><path class="cls-3" d="M934.38,566.53a7.49,7.49,0,0,1,1.66,5c0,9.19-6.59,16.54-16.53,14-8.54-2.13-10.75-12.38-8.27-19.83a18.6,18.6,0,0,1,2.49-4.13,11.54,11.54,0,0,1,6.19-.83C925.27,561.56,930.41,562.54,934.38,566.53Z"/><path class="cls-4" d="M1123.72,661.29s-9.71,31.15-12.63,39.92c-6.27,18.89-23.89,91-24.21,92.26h0s-15.89-17.28-20.33-21c-14.91-12.46-29.86-26.32-44-40.26-5.81-5.7-38.68-39-38.68-39h0l4.81-2c10.41-4.21,21.22-8.84,31.6-13.63C1047.68,665,1094.14,642.7,1123.72,661.29Z"/><path class="cls-3" d="M866.21,1372.6c.09,4.44.62,9.27.09,13.69-1.18,10-6.38,19.17-8.58,28.89a65.72,65.72,0,0,1-6.67,16.93c-.5.92-1,1.82-1.56,2.71-5.94,9.79-25.7,25.44-25.7,25.44s-19.77-15.65-25.71-25.44c-.54-.89-1.05-1.79-1.56-2.71a66.08,66.08,0,0,1-6.67-16.93c-2.19-9.72-7.39-18.84-8.58-28.89-.53-4.42,0-9.25.1-13.69.24-10.51-.46-17.81,2.34-28.16.21-.81.44-1.62.66-2.43,1.69-6.24,3.42-12.46,5.13-18.7,2.78,5.19,6.82,9.21,10.34,14,2,2.72,3.86,5.89,6.49,8.12,4.33,3.69,17.46,8.87,17.46,8.87s13.13-5.18,17.46-8.87c2.63-2.23,4.49-5.4,6.49-8.12,3.52-4.78,7.56-8.8,10.33-14,1.72,6.24,3.45,12.46,5.14,18.7.21.81.44,1.62.66,2.43C866.66,1354.79,866,1362.09,866.21,1372.6Z"/><path class="cls-4" d="M536.48,701.21c6.28,18.89,23.9,91,24.22,92.26A187.63,187.63,0,0,1,537,774.41c-24.1-23-44.34-57.82-29.75-91.48a54.34,54.34,0,0,1,4-7.54c2.91-4.6,6.4-9.83,10.94-13,.55-.38,1.12-.75,1.68-1.1C523.86,661.29,533.57,692.44,536.48,701.21Z"/><path class="cls-3" d="M865.81,1062.51c.4,3.4,1,6.82.58,10.31-1.49,12.51-2,27.13-4.29,41-3.79,23.24-12.39,44.55-38.31,50.91-25.92-6.36-34.53-27.67-38.32-50.91-2.25-13.91-2.79-28.53-4.28-41-.41-3.49.18-6.91.57-10.31.87-7.38.4-15.34.38-22.76,0-1.43-.11-18.4-.11-18.4v-1.9a481.55,481.55,0,0,0,83.54,0v1.9s-.1,17-.11,18.4C865.42,1047.17,865,1055.13,865.81,1062.51Z"/><path class="cls-4" d="M1140.32,682.93c14.6,33.66-5.65,68.5-29.74,91.48a188.34,188.34,0,0,1-23.7,19.06c.32-1.3,17.94-73.37,24.21-92.26,2.92-8.77,12.63-39.92,12.63-39.92.56.35,1.12.72,1.68,1.1,4.53,3.17,8,8.4,10.94,13A54.28,54.28,0,0,1,1140.32,682.93Z"/><path class="cls-6" d="M740.26,861.64a223.1,223.1,0,0,0,32.12,5.11c7.79.58,19.86,1.91,51.41,1.91s43.62-1.33,51.41-1.91a223.32,223.32,0,0,0,32.12-5.11c15.89-3.51,31.6-7.91,47.66-10.59,7.94-1.34,15.24-6.26,23-8,15.61-3.56,30.16-10.78,45.29-16.9,22-8.9,44-19.17,63.65-32.65h0a188.34,188.34,0,0,0,23.7-19.06c24.09-23,44.34-57.82,29.74-91.48a54.28,54.28,0,0,0-4-7.54c-2.92-4.6-6.41-9.83-10.94-13-.56-.38-1.12-.75-1.68-1.1-29.58-18.59-76,3.68-103.48,16.33-10.38,4.79-21.19,9.42-31.6,13.63l-4.81,2h0c-25.11,10.26-50.54,21.51-76.17,31C881.45,734,852.13,745,823.79,745s-57.66-11-83.87-20.77c-25.63-9.5-51.06-20.75-76.18-31h0l-4.81-2c-10.4-4.21-21.21-8.84-31.59-13.63-27.45-12.65-73.9-34.92-103.48-16.33-.56.35-1.13.72-1.68,1.1-4.54,3.17-8,8.4-10.94,13a54.34,54.34,0,0,0-4,7.54c-14.59,33.66,5.65,68.5,29.75,91.48a187.63,187.63,0,0,0,23.7,19.06h0c19.68,13.48,41.65,23.75,63.65,32.65,15.13,6.12,29.67,13.34,45.29,16.9,7.71,1.76,15,6.68,23,8C708.66,853.73,724.37,858.13,740.26,861.64Zm450.56-154.86c.65,15.66-4.94,29.65-11.56,43.91-1.64,3.54-3.15,8.5-5.68,11.51-5.22,6.25-11.55,13.25-16.31,19.92-4.14,5.81-8.38,11.55-13.44,16.47-22.31,21.69-49,36.39-76.2,50.8-9.45,5-24.69,9.13-35.14,11.52-5.41,1.24-10.85,3.94-16.32,5.18-22.8,5.21-45.36,11.09-68.46,16.36-20.27,4.66-39.86,9.54-60.61,12C866,896.89,846.89,902,823.79,902s-42.21-5.1-63.31-7.58c-20.75-2.42-40.35-7.3-60.62-12-23.1-5.27-45.66-11.15-68.46-16.36-5.47-1.24-10.9-3.94-16.32-5.18-10.45-2.39-25.69-6.52-35.13-11.52-27.19-14.41-53.89-29.11-76.2-50.8-5.07-4.92-9.3-10.66-13.44-16.47-4.77-6.67-11.09-13.67-16.31-19.92-2.53-3-4-8-5.69-11.51-6.61-14.26-12.2-28.25-11.55-43.91.54-13.07-.82-23.23,4.74-35.78,11-24.89,28.45-38.56,53.41-47.77,5.19-1.91,13-2.32,18.27-2.1,17.46.72,32.58.43,50.31,4.48a316.67,316.67,0,0,1,48.08,14.92c7,2.84,13.83,7.75,20.41,11.51,8.72,5,18.26,8.4,26.94,13.59,7.9,4.72,17.33,7.11,25.71,10.68,7.21,3.06,13.82,7.56,21.06,10.64,7.43,3.16,14.93,5.74,22.32,8.89,16.07,6.84,49.73,24.48,75.78,24.48s59.71-17.64,75.78-24.48c7.39-3.15,14.89-5.73,22.32-8.89,7.23-3.08,13.85-7.58,21.06-10.64,8.37-3.57,17.81-6,25.7-10.68,8.69-5.19,18.23-8.62,26.94-13.59,6.59-3.76,13.37-8.67,20.41-11.51a317.14,317.14,0,0,1,48.09-14.92c17.72-4.05,32.84-3.76,50.3-4.48,5.33-.22,13.08.19,18.28,2.1,25,9.21,42.39,22.88,53.41,47.77C1191.64,683.55,1190.28,693.71,1190.82,706.78Z"/><path class="cls-4" d="M663.74,693.21h0s-32.86,33.31-38.67,39c-14.19,13.94-29.14,27.8-44,40.26-4.44,3.71-20.33,21-20.33,21h0c-.32-1.3-17.94-73.37-24.22-92.26-2.91-8.77-12.62-39.92-12.62-39.92,29.58-18.59,76,3.68,103.48,16.33,10.38,4.79,21.19,9.42,31.59,13.63Z"/><path class="cls-4" d="M823.79,745s26,41.34,35.16,51.41c3.21,3.53,6.81,6.58,10,10.1,6,6.56,10.48,15.3,15.82,22.64,4.78,6.57,22.52,32.49,22.52,32.49a223.32,223.32,0,0,1-32.12,5.11c-7.79.58-19.86,1.91-51.41,1.91s-43.62-1.33-51.41-1.91a223.1,223.1,0,0,1-32.12-5.11s17.73-25.92,22.52-32.49c5.34-7.34,9.83-16.08,15.82-22.64,3.21-3.52,6.81-6.57,10-10.1C797.82,786.34,823.79,745,823.79,745Z"/><path class="cls-3" d="M785.33,1212.67c.14.34.3.68.45,1,5.21,11.25,10.35,22.47,20.74,29.91,1.5,1.08,17.27,6.41,17.27,6.41s15.77-5.33,17.27-6.41c10.39-7.44,15.52-18.66,20.73-29.91.16-.34.31-.68.46-1,3.43,12.28,8.78,24.68,10.46,37.52a108,108,0,0,1,.6,22.44c-.42,5.56-1.08,11.33-3.14,16.54a130.93,130.93,0,0,0-5,16.32c-1.34,5.25-3.79,10.2-5.84,15.21-.38.9-.78,1.78-1.23,2.61-2.77,5.19-6.81,9.21-10.33,14-2,2.72-3.86,5.89-6.49,8.12-4.33,3.69-17.46,8.87-17.46,8.87s-13.13-5.18-17.46-8.87c-2.63-2.23-4.49-5.4-6.49-8.12-3.52-4.78-7.56-8.8-10.34-14-.44-.83-.85-1.71-1.22-2.61-2-5-4.5-10-5.84-15.21a132.63,132.63,0,0,0-5-16.32c-2.07-5.21-2.73-11-3.15-16.54a109.34,109.34,0,0,1,.6-22.44C776.54,1237.35,781.9,1225,785.33,1212.67Z"/><path class="cls-3" d="M891.05,158.24c3,11.81,1.81,32.13-1.59,43.77-9,30.76-29.25,66.27-65.67,66.27S767.06,232.77,758.11,202c-3.39-11.64-4.53-32-1.58-43.77,1.75-7,4.16-13.63,5.87-20.58h0c.07-.27.14-.54.2-.81a421.57,421.57,0,0,1,16.86-53.52C786,66.43,793.81,49.71,801,33.07,804.46,25,812.52,3,823.79,3s19.33,22,22.81,30.08c7.16,16.64,15,33.36,21.52,50.25A423.19,423.19,0,0,1,885,136.84c.06.27.13.54.2.81h0C886.88,144.61,889.3,151.25,891.05,158.24Z"/><path class="cls-4" d="M823.79,745s-26,41.34-35.16,51.41c-3.22,3.53-6.82,6.58-10,10.1-6,6.56-10.48,15.3-15.82,22.64-4.79,6.57-22.52,32.49-22.52,32.49s-13.55-40.53-18.35-50.87a302.65,302.65,0,0,0-18.57-34.27c-4.7-7.49-7.53-16.15-12.25-23.65-3.13-5-5.59-10.52-8.66-15.7-1.15-1.93-18.28-43-18.69-43.93,25.12,10.26,50.55,21.51,76.18,31C766.13,734,795.44,745,823.79,745Z"/><path class="cls-2" d="M789.85,1415.18a66.08,66.08,0,0,0,6.67,16.93s-32.94.43-47-1.43c-17.94-2.39-36.13-3.47-53.85-7.27-8.12-1.74-16.55-.91-24.76-2.05-9.2-1.27-18.18-3.78-27.35-5.29-12.77-2.1-25.52-6.82-38.11-9.93-17.87-4.43-36.38-14.57-51.18-25.43-.54-.39-1.08-.79-1.61-1.2-14.12-10.77-27-26-30.69-43.77-3.51-16.93,3.19-38.07,13.36-51.67,5.27-7.06,18.76-16.58,18.76-16.58a97.88,97.88,0,0,0,10.26,20c9.53,13.78,32,21,47,26.89,34.25,13.35,68.79,19.62,105.12,23.62,19.85,2.18,56.58,3.59,67.9,4-.22.81-.45,1.62-.66,2.43-2.8,10.35-2.1,17.65-2.34,28.16-.1,4.44-.63,9.27-.1,13.69C782.46,1396.34,787.66,1405.46,789.85,1415.18Z"/><path class="cls-4" d="M740.26,861.64c-15.89-3.51-31.6-7.91-47.67-10.59-7.93-1.34-15.24-6.26-23-8-15.62-3.56-30.16-10.78-45.29-16.9-22-8.9-44-19.17-63.65-32.65,0,0,15.89-17.28,20.33-21,14.9-12.46,29.85-26.32,44-40.26,5.81-5.7,38.67-39,38.67-39,.41,1,17.54,42,18.69,43.93,3.07,5.18,5.53,10.7,8.66,15.7,4.72,7.5,7.55,16.16,12.25,23.65a302.65,302.65,0,0,1,18.57,34.27C726.71,821.11,740.26,861.64,740.26,861.64Z"/><path class="cls-7" d="M667.84,427.11c.52.47,1,1,1.58,1.46-.94,6.27-2.78,18-4.34,24.56a96.59,96.59,0,0,1-10.67,26.65C647.62,491.33,642,503.69,633.2,514c-8.36,9.81-18.62,18.06-28.92,25.75A216.58,216.58,0,0,1,545.12,571c-17.29,5.94-34.71,10.54-53,12-16.95,1.36-35,2.45-51.33-3.36-2.94-1.05-10.51-4-10.13-8.11.17-1.77,1.78-3.07,3.68-4a259.21,259.21,0,0,0,66.4-2.15c29.36-4.67,57.46-14.89,81.58-32.49,22.23-16.25,40-38.39,53.13-62.46,9.66-17.67,20.91-37.14,15.77-57.74Q659.63,419.77,667.84,427.11Z"/><path class="cls-4" d="M1066.55,772.49c4.44,3.71,20.33,21,20.33,21-19.68,13.48-41.66,23.75-63.65,32.65-15.13,6.12-29.68,13.34-45.29,16.9-7.72,1.76-15,6.68-23,8-16.06,2.68-31.77,7.08-47.66,10.59,0,0,13.55-40.53,18.35-50.87a304.17,304.17,0,0,1,18.56-34.27c4.71-7.49,7.54-16.15,12.25-23.65,3.14-5,5.6-10.52,8.67-15.7,1.15-1.93,18.27-43,18.68-43.93,0,0,32.87,33.31,38.68,39C1036.69,746.17,1051.64,760,1066.55,772.49Z"/><path class="cls-7" d="M1216.9,571.48c.38,4.07-7.19,7.06-10.13,8.11-16.31,5.81-34.38,4.72-51.34,3.36-18.26-1.46-35.69-6.06-53-12a216.72,216.72,0,0,1-59.16-31.23C1033,532,1022.74,523.78,1014.37,514c-8.77-10.28-14.41-22.64-21.2-34.19a96.28,96.28,0,0,1-10.67-26.65c-1.56-6.59-3.41-18.29-4.34-24.56.52-.5,1.05-1,1.58-1.46q8.21-7.37,16.6-14.5c-5.14,20.6,6.1,40.07,15.76,57.74,13.17,24.07,30.9,46.21,53.14,62.46,24.12,17.6,52.21,27.82,81.58,32.49a259.12,259.12,0,0,0,66.39,2.15C1215.12,568.41,1216.73,569.71,1216.9,571.48Z"/><path class="cls-8" d="M1140.32,682.93a54.28,54.28,0,0,0-4-7.54c-2.92-4.6-6.41-9.83-10.94-13-.56-.38-1.12-.75-1.68-1.1-29.58-18.59-76,3.68-103.48,16.33-10.38,4.79-21.19,9.42-31.6,13.63l-4.81,2h0c-25.11,10.26-50.54,21.51-76.17,31C881.45,734,852.13,745,823.79,745s-57.66-11-83.87-20.77c-25.63-9.5-51.06-20.75-76.18-31h0l-4.81-2c-10.4-4.21-21.21-8.84-31.59-13.63-27.45-12.65-73.9-34.92-103.48-16.33-.56.35-1.13.72-1.68,1.1-4.54,3.17-8,8.4-10.94,13a54.34,54.34,0,0,0-4,7.54c-14.59,33.66,5.65,68.5,29.75,91.48a187.63,187.63,0,0,0,23.7,19.06h0c19.68,13.48,41.65,23.75,63.65,32.65,15.13,6.12,29.67,13.34,45.29,16.9,7.71,1.76,15,6.68,23,8,16.07,2.68,31.78,7.08,47.67,10.59a223.1,223.1,0,0,0,32.12,5.11c7.79.58,19.86,1.91,51.41,1.91s43.62-1.33,51.41-1.91a223.32,223.32,0,0,0,32.12-5.11c15.89-3.51,31.6-7.91,47.66-10.59,7.94-1.34,15.24-6.26,23-8,15.61-3.56,30.16-10.78,45.29-16.9,22-8.9,44-19.17,63.65-32.65h0a188.34,188.34,0,0,0,23.7-19.06C1134.67,751.43,1154.92,716.59,1140.32,682.93Zm-31.66,36.77c-4,10.76-11.8,22.33-21.93,32.58A160,160,0,0,1,1067,769.06l-1.74,1.26c-19,13.48-40.71,23.43-55.55,29.8-3.94,1.69-7.77,3.43-11.48,5.1-10.14,4.59-19.71,8.92-28.75,11.11A84.8,84.8,0,0,0,954,822.09a51.94,51.94,0,0,1-5.56,2.31c-11.43,2-22.45,4.84-33.12,7.57-5.32,1.36-10.34,2.64-15.39,3.83a178.74,178.74,0,0,1-27.52,4.7l-3.29.28c-7.66.65-19.22,1.64-45.33,1.64s-37.68-1-45.33-1.64l-3.29-.28a178.68,178.68,0,0,1-27.49-4.69c-5.09-1.2-10.11-2.48-15.43-3.84-10.66-2.73-21.69-5.55-33.22-7.59a54.91,54.91,0,0,1-5.45-2.29,85,85,0,0,0-15.51-5.76c-9.05-2.19-18.63-6.52-28.76-11.11-3.71-1.67-7.55-3.41-11.49-5.1-14.86-6.38-36.61-16.36-55.65-29.88l-1.64-1.18a159.18,159.18,0,0,1-19.69-16.79c-10.12-10.24-17.91-21.81-21.92-32.57-3.92-10.5-4.16-19.69-.73-28.08A27,27,0,0,1,540,688a51,51,0,0,1,3.24-5c2.62-1.73,6.39-2.6,11.2-2.6,18.52,0,43.92,12.44,60.73,20.68l2.09,1q9,4.41,18.74,8.81V711l8,3.47q2.87,1.26,5.78,2.51l4.67,2c7.78,3.37,15.81,6.94,23.56,10.39,17.1,7.61,34.78,15.48,52.62,22.5l1.28.5c27.67,10.89,59,23.24,91.91,23.24S888,763.31,915.7,752.42l1.27-.5c17.84-7,35.52-14.89,52.62-22.5,7.76-3.45,15.78-7,23.56-10.39l18.44-8v-.11c6.47-2.93,12.74-5.88,18.75-8.82l2.08-1c16.8-8.23,42.2-20.67,60.73-20.67,4.81,0,8.57.87,11.2,2.6a55,55,0,0,1,3.27,5,26.2,26.2,0,0,1,1.76,3.56C1112.81,700,1112.57,709.2,1108.66,719.7Z"/><path class="cls-9" d="M433,207.29c46.45,30.92,95.13,59.91,139,94.36l6.6,5.17c38.59,30.06,76.89,60.83,113.31,93.49,4.62,4.14,9,8.69,13.15,13.09,3.11,3.27,8,8.35,12,12"/><path class="cls-9" d="M378,618.48c-2.43,7.22-5.1,14.65-7.69,21.82C356.69,678,344.16,715,355,755.11a164,164,0,0,0,19.1,43.28"/><path class="cls-9" d="M484.45,963.17c20.66,51.56,42.16,102.85,60,155.46,8.65,25.47,14.1,54.46,21.73,82.32"/><path class="cls-9" d="M1214.62,207.29c-46.44,30.92-95.13,59.91-139,94.36l-6.6,5.17c-38.59,30.06-76.89,60.83-113.32,93.49-4.61,4.14-9,8.69-13.14,13.09-3.11,3.27-7.95,8.35-12,12"/><path class="cls-9" d="M1269.62,618.48c2.42,7.22,5.1,14.65,7.68,21.82,13.59,37.73,26.11,74.72,15.25,114.81a164.37,164.37,0,0,1-19.1,43.28"/><path class="cls-9" d="M1163.13,963.17c-20.67,51.56-42.16,102.85-60.05,155.46-8.65,25.47-14.1,54.46-21.72,82.32"/><path class="cls-10" d="M1365,522.64s-4.53,25.62-7.51,38.1c-4,16.85-9.27,32.87-14,49.57-1.68,5.88-2.55,12.58-5,18.18-4.46,10.43-5.54,21.38-8.25,32.24-.73,2.92-3.45,13.92-3.59,14.52-6.22-23.63-15.67-46.86-22.86-68.24-4-12.6-10.32-22.63,21.08-41.3,0,0,15.74-13.12,19.62-17.8C1351.45,539.5,1358.68,531.41,1365,522.64Z"/><path class="cls-10" d="M322.75,565.71c31.41,18.67,25.07,28.7,21.09,41.3-7.19,21.38-16.65,44.61-22.86,68.24-.15-.6-2.86-11.6-3.59-14.52-2.71-10.86-3.79-21.81-8.26-32.24-2.41-5.6-3.29-12.3-5-18.18-4.76-16.7-10-32.72-14-49.57-3-12.48-7.51-38.1-7.51-38.1,6.29,8.76,13.51,16.86,20.52,25.27C307,552.59,322.75,565.71,322.75,565.71Z"/><path class="cls-10" d="M540.17,575.39c-9,.42-19.24,4.91-27,5.5L513,580a259.93,259.93,0,0,0,32.14-9,216.58,216.58,0,0,0,59.16-31.23c10.3-7.69,20.56-15.94,28.92-25.75,8.78-10.28,14.42-22.64,21.21-34.19a96.59,96.59,0,0,0,10.67-26.65c1.56-6.59,3.4-18.29,4.34-24.56,12.66,11.9,27.08,31.38,44.05,35.62a55.79,55.79,0,0,0,13.79,1.73c6.76,0,14.29-1.62,19.86-5.64,11.12-8,7.25-25.38,6-37-1.41-12.67-4.58-25.25-10.29-36.7-7.41-15.45-29-38.72-39.75-51.75-10.53-12.75-22.77-23-34.47-34.58-17.43-17.24-36.83-31.56-56.19-46.6-7.82-6.1-29.13-20.2-29.13-20.2s-19.55-12.5-20.61-13.21c-9.49-6.34-19.87-11.34-30.17-16.41,2.85-1.12,5.69-2.2,8.62-3.4,7.36-3,15.11-4.78,22.58-7.36,6.78-2.34,14.31-6.28,21.29-7.34,40.18-6.17,80.52-10.86,122-11.61h0a35.15,35.15,0,0,1,.83-8c1.27-4.71.4-10.62,3.19-14.83,4.72-7.1,10.14-14.75,18.34-18.06a86.85,86.85,0,0,1,9.65-3.12c4-1.09,8.3-3.07,12.56-1.82,3.7,1.08,10.93,4.67,10.83,9.35h0c-1.71,7-4.12,13.59-5.87,20.58-2.95,11.81-1.81,32.13,1.58,43.77,8.95,30.76,29.26,66.27,65.68,66.27s56.72-35.51,65.67-66.27c3.4-11.64,4.54-32,1.59-43.77-1.75-7-4.17-13.63-5.87-20.58h0c-.11-4.68,7.13-8.27,10.82-9.35,4.26-1.25,8.51.73,12.57,1.82a88.22,88.22,0,0,1,9.65,3.12c8.19,3.31,13.62,11,18.33,18.06,2.8,4.21,1.92,10.12,3.19,14.83a35.15,35.15,0,0,1,.83,8h0c41.52.75,81.87,5.44,122,11.61,7,1.06,14.51,5,21.29,7.34,7.48,2.58,15.23,4.32,22.59,7.36,2.92,1.2,5.77,2.28,8.61,3.4-10.29,5.07-20.67,10.07-30.17,16.41-1,.71-20.6,13.21-20.6,13.21s-21.31,14.1-29.14,20.2c-19.35,15-38.76,29.36-56.18,46.6-11.7,11.58-23.94,21.83-34.48,34.58-10.77,13-32.34,36.3-39.74,51.75-5.71,11.45-8.88,24-10.3,36.7-1.29,11.58-5.17,28.94,6,37,5.56,4,13.1,5.64,19.86,5.64a55.71,55.71,0,0,0,13.78-1.73c17-4.24,31.4-23.72,44.06-35.62.93,6.27,2.78,18,4.34,24.56a96.28,96.28,0,0,0,10.67,26.65c6.79,11.55,12.43,23.91,21.2,34.19,8.37,9.81,18.63,18.06,28.92,25.75A216.72,216.72,0,0,0,1102.45,571a260.57,260.57,0,0,0,32.15,9l-.19.92c-7.77-.59-18-5.08-27-5.5a137.42,137.42,0,0,0-35.7,2.58c-22.86,5-42.87,15-65,22.32a74.94,74.94,0,0,1-18.4,3.64c-11.14.66-19.26-6.34-19.26-15.1,0-11.17-.78-24.25-5-34.7-9.24-23.09-40.41-40.54-63.63-28.92-4.72,2.36-7,8.52-9.91,12.4-6.05,8-9.14,17.25-10.73,26.91-4.77,5.86-7.47,12.18-14.29,17.21-10.37,7.66-23.4,13.14-41.78,13.14s-31.42-5.48-41.79-13.14c-6.81-5-9.51-11.35-14.29-17.21-1.58-9.66-4.68-18.86-10.73-26.91-2.9-3.88-5.18-10-9.91-12.4-23.22-11.62-54.38,5.83-63.62,28.92-4.18,10.45-5,23.53-5,34.7,0,8.76-8.11,15.76-19.26,15.1a75,75,0,0,1-18.39-3.64c-22.11-7.27-42.11-17.36-65-22.32A137.46,137.46,0,0,0,540.17,575.39Z"/><path class="cls-11" d="M866.74,1135.42c-.6-4-4.64-21.56-4.64-21.56-3.79,23.24-12.39,44.55-38.31,50.91-25.92-6.36-34.53-27.67-38.32-50.91,0,0-4,17.61-4.63,21.56-.78,5.19-1.49,10.68-2,16.33A64,64,0,0,0,796,1170.53c2,1.43,3.7,2.66,22,8.85l5.76,1.95,5.76-1.95c18.33-6.19,20-7.42,22-8.82a64.3,64.3,0,0,0,17.22-18.81C868.22,1146.1,867.52,1140.61,866.74,1135.42Z"/><path class="cls-11" d="M863.48,1343l-.27-1c-1.69-6.24-3.42-12.46-5.14-18.7-2.77,5.19-6.81,9.21-10.33,14-2,2.72-3.86,5.89-6.49,8.12-4.33,3.69-17.46,8.87-17.46,8.87s-13.13-5.18-17.46-8.87c-2.63-2.23-4.49-5.4-6.49-8.12-3.52-4.78-7.56-8.8-10.34-14-1.71,6.24-3.44,12.46-5.13,18.7l-.27,1c8,11.57,25,25.3,28.51,28.07l11.18,8.85,11.17-8.85C838.47,1368.3,855.47,1354.57,863.48,1343Z"/><path class="cls-11" d="M782,1019.45v1.9s.09,17,.11,18.4v.81c7.6,2.45,19.24,4.66,37.36,5.64l4.29.24,4.29-.24c18.12-1,29.76-3.19,37.35-5.64,0-.27,0-.54,0-.81,0-1.43.11-18.4.11-18.4v-1.9A481.55,481.55,0,0,1,782,1019.45Z"/><path class="cls-11" d="M869.2,1234.68c-2.22-7.42-4.92-14.74-7-22-.15.34-.3.68-.46,1-5.21,11.25-10.34,22.47-20.73,29.91-1.5,1.08-17.27,6.41-17.27,6.41s-15.77-5.33-17.27-6.41c-10.39-7.44-15.53-18.66-20.74-29.91-.15-.34-.31-.68-.45-1-2,7.27-4.73,14.58-7,22,1.3,1.74,2.6,3.34,3.83,4.84s2.21,2.7,3.13,4c.39.53.77,1.09,1.16,1.65a47.53,47.53,0,0,0,8.17,9.52c5.74,4.89,16.57,9.55,22.51,11.9l6.61,2.61,6.61-2.61c5.94-2.35,16.76-7,22.5-11.89a47.59,47.59,0,0,0,8.18-9.53c.38-.56.77-1.12,1.16-1.65.92-1.25,2-2.56,3.13-4S867.9,1236.41,869.2,1234.68Z"/><path class="cls-12" d="M823.79,1164.77h0c39.37-9.76,38.45-52.77,42.32-89.46a31.11,31.11,0,0,0,.17-8.88c-1.48-12.71-.89-12-.84-26.68-7.83,25.34-4.23,26-6.69,32-.64,2.13-.85,2.82-.81,2.68-9.2,32.78-10.44,64.24-34.14,72.82-23.54-8.49-24.69-39.3-34.13-72.83,0-.12-.79-2.67-.74-2.52-2.7-6.49,1.29-6.14-6.79-32.15.05,14.62.64,14-.85,26.68a31.42,31.42,0,0,0,.18,8.88C785.18,1110.52,783.92,1154.89,823.79,1164.77ZM804.44,1242c2.9,2.17.77,1.61,19.35,8h0c5.31-1.83,10.63-3.61,15.84-5.72,3.56-1.19,9.69-8.32,12-11.59,5-7.14,10-18,13-26.36,7.36-19.81,5.23-49.85,2.09-70.92-2.28,13.88-7,55.08-16.58,69.68l-3.73,6.59c-3.07,5.17-8,13.59-13.44,17.41l-9.19,3.2-9.2-3.22-.74-.56c-1-1.16-3.28-1.08-12.67-16.85l-2.91-5.13c-12-21.88-14.59-55.81-17.44-71.12-3.18,21.31-4.89,46.11.87,66.9C784.67,1213.16,795,1235.43,804.44,1242Zm28-12.49-1,.66C831.75,1229.94,832.31,1229.59,832.43,1229.51Zm-16.29.64-1-.67S815.61,1229.75,816.14,1230.15Zm56.57,20c-1.72,8.14-6.49,28-11.33,34.82-3.18,4.47-7.65,16-10.13,20.77-1.4,2.6-3.65,6.32-4.46,7.9-.07.12-.79,1.6-.91,1.7-1.79,2.8-8.1,8.52-13.16,15.24-1.77,2.34-2.25,2.54-2.06,2.25.38-.35-1.67,1-6.86,3.25-5.14-2.27-7.3-3.67-6.86-3.28.18.3-.28.11-2.07-2.23-6.32-8.13-11.26-12.32-13.14-15.25a18.24,18.24,0,0,1-.9-1.69c-2.25-4.28-5.28-8.69-7.26-13.8-9.85-23.74-9.13-9.7-18.71-49.68-1.41,10.74-1.46,28,2.23,38.13,5.86,15,3.12,13.57,9.82,29.14,5.24,11.88,4.69,8.87,12.49,19.26,5.65,7.41,4.13,9.32,24.39,17.57h0c20.24-8.24,18.65-10,24.38-17.57,6.41-8.53,8.94-8.87,15.43-26.37,2.09-5.43,2.53-10.88,6.89-22a43.39,43.39,0,0,0,1.89-7.44A109.94,109.94,0,0,0,872.71,1250.19Zm-17,144.8c-11.1,16.94-6.28,11.35-12.37,22.32-5,8.75-9,12.06-8.55,11.57l-3.7,3.42c-2.32,2-4.76,4.18-7.32,6.28-7.71-6.32-11.89-10.59-11.77-10.47-1.87-1.72-6.95-8.6-10.2-15.23a66.56,66.56,0,0,0-6.51-12.62c-13.42-20.41-8.67-14.48-14-27.66-.21,9.29-1.43,12.86,2.68,25,1.35,4,2.93,7.94,4.24,12s2,8.23,3.52,12.19c5.29,14.6,12.5,22.73,32,38.48h0c8.38-6.78,21.73-18.22,26.61-27,6.63-11.54,7-18,8.89-23.68,1.31-4,2.88-8,4.24-12,4.09-12.12,2.89-15.61,2.68-25C862.46,1382,864.07,1382.63,855.75,1395Z"/><path class="cls-1" d="M1077,1319.92a166.69,166.69,0,0,0,38.38-31.2c-1-1.63-2.05-3.19-3.15-4.65-5.27-7.06-18.75-16.58-18.75-16.58a97.88,97.88,0,0,1-10.26,20c-9.53,13.78-32,21-47,26.89C1002,1327.76,967.44,1334,931.1,1338c-19.84,2.18-56.58,3.59-67.89,4,.21.81.44,1.62.66,2.43,2.79,10.35,2.1,17.65,2.34,28.16.09,4.44.62,9.27.09,13.69-1.18,10-6.38,19.17-8.58,28.89a65.72,65.72,0,0,1-6.67,16.93s14.26.19,28-.22c-3-14.2,1.21-31.79,6.07-43,13.78-31.82,60.94-34.08,90.8-39.27C1010,1343.69,1046.73,1337.5,1077,1319.92Z"/><path class="cls-13" d="M1087.48,1350.89l-.21.16-.83.62c-13,9.57-27.09,16.68-38.57,19.53-5.42,1.34-10.6,2.86-15.62,4.33a178.21,178.21,0,0,1-19.68,5c-5,.82-9.53,1.81-13.94,2.76s-8.73,1.88-12.49,2.4c-1.74.24-4.33.33-7.08.42a112.66,112.66,0,0,0-20.3,2.09c-10.15,2.18-21.09,3.37-32.66,4.63"/><path class="cls-1" d="M570.57,1319.92a166.64,166.64,0,0,1-38.37-31.2c1-1.63,2-3.19,3.14-4.65,5.27-7.06,18.76-16.58,18.76-16.58a97.88,97.88,0,0,0,10.26,20c9.53,13.78,32,21,47,26.89,34.25,13.35,68.79,19.62,105.12,23.62,19.85,2.18,56.58,3.59,67.9,4-.22.81-.45,1.62-.66,2.43-2.8,10.35-2.1,17.65-2.34,28.16-.1,4.44-.63,9.27-.1,13.69,1.19,10,6.39,19.17,8.58,28.89a66.08,66.08,0,0,0,6.67,16.93s-14.26.19-28-.22c3-14.2-1.2-31.79-6.06-43-13.79-31.82-61-34.08-90.8-39.27C637.61,1343.69,600.84,1337.5,570.57,1319.92Z"/><path class="cls-13" d="M560.09,1350.89l.21.16.83.62c13,9.57,27.1,16.68,38.58,19.53,5.41,1.34,10.6,2.86,15.61,4.33a178.77,178.77,0,0,0,19.68,5c5,.82,9.54,1.81,14,2.76s8.73,1.88,12.49,2.4c1.73.24,4.33.33,7.07.42a112.58,112.58,0,0,1,20.3,2.09c10.16,2.18,21.09,3.37,32.67,4.63"/><path class="cls-12" d="M829.79,70.47l9,131.58a15,15,0,1,1-30,2,15.58,15.58,0,0,1,0-2l9-131.58a6,6,0,0,1,12,0Z"/><path class="cls-14" d="M497,1524.68a96,96,0,0,1,42.81-13.34,101.34,101.34,0,0,1,43.39,6.22c27.62,10.58,49.18,33.93,50.64,69,1.39,33.67-10.18,62.55-34.66,82.53a107.25,107.25,0,0,1-15.5,10.48c-1.74,1-3.54,1.91-5.37,2.81-35,17.25-94.1,8.79-114.34-25.76-17.7-30.24-12.55-71.42,3.58-101.15A81.18,81.18,0,0,1,497,1524.68Zm103.3,110.56c12.1-22.31,16-53.18,2.68-75.86-15.18-25.91-59.49-32.27-85.75-19.32-29.06,14.31-43,40.27-41.65,71.86,1.63,39.22,36.77,58.9,70.52,56.43C567.88,1666.76,589.07,1656,600.31,1635.24Z"/><path class="cls-14" d="M603,1559.38c13.28,22.68,9.42,53.55-2.68,75.86-11.24,20.71-32.43,31.52-54.2,33.11-33.75,2.47-68.89-17.21-70.52-56.43-1.31-31.59,12.59-57.55,41.65-71.86C543.5,1527.11,587.81,1533.47,603,1559.38Z"/><path class="cls-15" d="M614.71,1639.4c-8.72,15.35-22.08,27.54-39.72,36.23-10.33,5.09-23.66,7.89-37.54,7.89h0c-29.76,0-56-12-67-30.7a67.36,67.36,0,0,1-3.91-7.78"/><path class="cls-15" d="M485.43,1555.53a84.06,84.06,0,0,1,28.48-22.23c9.66-4.76,21.41-7.28,34-7.28a87.48,87.48,0,0,1,35.05,7.09c11.81,5.2,21,13,26.55,22.46"/><path class="cls-16" d="M545.33,1568.17c-6.9,5-11.64,15.45-17.42,21.85s-12.1,13.56-16.33,21c8.16,3.35,19.53,2.68,28.57,3.47,8.22.72,17,2.31,25.18,2,.1-4.82-2-10.44-3.68-15C556.43,1587.56,550.44,1573.27,545.33,1568.17Z"/><path class="cls-16" d="M568.94,1583.31s7.21-5.26,11.41-7.09"/><line class="cls-16" x1="519.54" y1="1580.3" x2="512.04" y2="1568.4"/><path class="cls-16" d="M538.19,1624c-1.06,5.11-2.71,15.5-2.71,15.5"/><path class="cls-16" d="M542.8,1591.85c-2.73-.35-5.62,2.25-6.78,4.57-1.29,2.59-.91,5.55,1.73,7.09a6.44,6.44,0,0,0,8.53-2.19c1.68-2.53.84-6.79-1.52-8.64A4,4,0,0,0,542.8,1591.85Z"/><path class="cls-17" d="M1197.22,1416.72c27.75,10.47,55.74,22.28,82.34,36a474.22,474.22,0,0,1-55.06,109.93c-7.55,11.15-30.65,36.26-30.65,36.26h0a123.68,123.68,0,0,0-13.82-43.37c-15-27.62-43.24-42-72.26-44.15a102.26,102.26,0,0,0-36.87,4l-.56-2.09c11.24-37,20.35-72.74,24.28-111.41.79-7.84.29-22.31.29-22.31,26.95,7.09,52.59,19.28,78.77,28.58C1181.47,1410.87,1189.34,1413.74,1197.22,1416.72Z"/><path class="cls-14" d="M919.42,1680.18a108.86,108.86,0,0,0,10.44-3.93l.67-.29c5.05-2.19,11.33-4.92,14.33-10.14,2.36-4.18,1.63-7.13.61-8.88-2.52-4.33-9.05-5.24-14.08-5.24a35.94,35.94,0,0,0-5.92.46,112.59,112.59,0,0,0-12.22,3.18l-2,.6c5.2-16.12,27.88-23.83,37.14-27a91.69,91.69,0,0,1,13.69-3.44,68.7,68.7,0,0,1,9.91-.74c9,0,16.41,1.83,21.85,5.32l-3.53,1.37c-7.15,2.77-14.55,5.63-20.48,10.44-1.63,1.3-6.65,5.31-5,9.9,1.27,3.65,5.9,5.43,14.13,5.43a57.32,57.32,0,0,0,6.83-.42,36,36,0,0,0,5.81-1.11,109.59,109.59,0,0,0,12.58-4.32h0a21,21,0,0,1-2.81,7.88c-8.68,14.71-34.46,22.85-49,26.37a39.38,39.38,0,0,1-10.58,1.41,38.8,38.8,0,0,1-21.4-6.18c-.33-.22-.65-.46-1-.69Z"/><path class="cls-18" d="M1025.43,1641.52l-4.43,2.15-1.66.8c-5.41,2.65-10.39,5-15.2,6.92a109.59,109.59,0,0,1-12.58,4.32,36,36,0,0,1-5.81,1.11,57.32,57.32,0,0,1-6.83.42c-8.23,0-12.86-1.78-14.13-5.43-1.61-4.59,3.41-8.6,5-9.9,5.93-4.81,13.33-7.67,20.48-10.44l3.53-1.37c.75-.3,1.5-.6,2.23-.91a166.08,166.08,0,0,0,20.78-9.9h0A94.75,94.75,0,0,0,1025.43,1641.52Z"/><path class="cls-18" d="M945.47,1656.94c1,1.75,1.75,4.7-.61,8.88-3,5.22-9.28,8-14.33,10.14l-.67.29a108.86,108.86,0,0,1-10.44,3.93c-3.11,1-6.45,2-10.12,2.91a194.86,194.86,0,0,1-27.91,5.17l-1,.11c-2.25.23-4.51.39-6.7.55-1.26.09-2.52.18-3.76.29-.45,0-.93.06-1.42.06-4.35,0-11.55-1.77-13.58-6.63-.7-1.68-1.3-5.09,2.58-9,3.53-3.62,8.93-5.46,13.26-6.95l.57-.19q3-1,6.14-2c6.35-1.87,12.77-3.37,19-4.84,2.89-.68,5.78-1.36,8.66-2.07l.44-.11c1.89-.46,3.8-1,5.67-1.57l2-.6a112.59,112.59,0,0,1,12.22-3.18,35.94,35.94,0,0,1,5.92-.46C936.42,1651.7,943,1652.61,945.47,1656.94Z"/><path class="cls-18" d="M677.75,1641.91c1.63,1.3,6.65,5.31,5,9.9-1.27,3.65-5.9,5.43-14.13,5.43a57.32,57.32,0,0,1-6.83-.42,36,36,0,0,1-5.81-1.11,109.59,109.59,0,0,1-12.58-4.32c-4.81-2-9.79-4.27-15.2-6.92l-1.66-.8-4.43-2.15a94.75,94.75,0,0,0,8.57-22.23h0a166.08,166.08,0,0,0,20.78,9.9c.73.31,1.48.61,2.23.91l3.53,1.37C664.42,1634.24,671.82,1637.1,677.75,1641.91Z"/><path class="cls-14" d="M717.72,1676.25a108.86,108.86,0,0,0,10.44,3.93h0c-.32.23-.64.47-1,.69a38.8,38.8,0,0,1-21.4,6.18,39.38,39.38,0,0,1-10.58-1.41c-14.5-3.52-40.28-11.66-49-26.37a21,21,0,0,1-2.81-7.88h0a109.59,109.59,0,0,0,12.58,4.32,36,36,0,0,0,5.81,1.11,57.32,57.32,0,0,0,6.83.42c8.23,0,12.86-1.78,14.13-5.43,1.61-4.59-3.41-8.6-5-9.9-5.93-4.81-13.33-7.67-20.48-10.44l-3.53-1.37c5.44-3.49,12.82-5.32,21.85-5.32a68.7,68.7,0,0,1,9.91.74,91.69,91.69,0,0,1,13.69,3.44c9.26,3.15,31.94,10.86,37.14,27l-2-.6a112.59,112.59,0,0,0-12.22-3.18,35.94,35.94,0,0,0-5.92-.46c-5,0-11.56.91-14.08,5.24-1,1.75-1.75,4.7.61,8.88,3,5.22,9.28,8,14.33,10.14Z"/><path class="cls-14" d="M767.22,1688.37c2.25.23,4.51.39,6.7.55,1.26.09,2.52.18,3.76.29.45,0,.93.06,1.42.06,4.35,0,11.55-1.77,13.58-6.63.7-1.68,1.3-5.09-2.58-9-3.53-3.62-8.93-5.46-13.26-6.95l-.57-.19q-3-1-6.14-2c7.15-7.22,22.76-11.53,53.66-11.53s46.51,4.31,53.66,11.53q-3.09.92-6.14,2l-.57.19c-4.33,1.49-9.73,3.33-13.26,6.95-3.88,3.93-3.28,7.34-2.58,9,2,4.86,9.23,6.63,13.58,6.63.49,0,1,0,1.42-.06,1.24-.11,2.5-.2,3.76-.29,2.19-.16,4.45-.32,6.7-.55l1-.11h0c-3.8,13-17.06,20.78-57.6,19.22-40.54,1.56-53.8-6.23-57.6-19.22h0Z"/><path class="cls-18" d="M790.1,1673.62c3.88,3.93,3.28,7.34,2.58,9-2,4.86-9.23,6.63-13.58,6.63-.49,0-1,0-1.42-.06-1.24-.11-2.5-.2-3.76-.29-2.19-.16-4.45-.32-6.7-.55l-1-.11a194.86,194.86,0,0,1-27.91-5.17c-3.67-.95-7-1.9-10.12-2.91a108.86,108.86,0,0,1-10.44-3.93l-.67-.29c-5-2.19-11.33-4.92-14.33-10.14-2.36-4.18-1.63-7.13-.61-8.88,2.52-4.33,9-5.24,14.08-5.24a35.94,35.94,0,0,1,5.92.46,112.59,112.59,0,0,1,12.22,3.18l2,.6c1.87.56,3.78,1.11,5.67,1.57l.44.11c2.88.71,5.77,1.39,8.66,2.07,6.26,1.47,12.68,3,19,4.84q3.09.92,6.14,2l.57.19C781.17,1668.16,786.57,1670,790.1,1673.62Z"/><path class="cls-17" d="M450.36,1416.72c7.88-3,15.75-5.85,23.55-8.62,26.18-9.3,51.82-21.49,78.77-28.58,0,0-.5,14.47.29,22.31,3.93,38.67,13,74.4,24.28,111.41l-2.44,1.54a102.56,102.56,0,0,0-35-3.44c-29,2.12-57.28,16.53-72.26,44.15a123.68,123.68,0,0,0-13.82,43.37h0s-23.1-25.11-30.65-36.26A474.22,474.22,0,0,1,368,1452.67C394.62,1439,422.61,1427.19,450.36,1416.72Z"/><path class="cls-14" d="M1180,1555.48c16.14,29.73,21.29,70.91,3.58,101.15-20.23,34.55-79.32,43-114.34,25.76q-2.74-1.35-5.36-2.81a106.7,106.7,0,0,1-15.5-10.48c-24.49-20-36.05-48.86-34.66-82.53,1.45-35.08,23-58.43,50.63-69a101.39,101.39,0,0,1,43.4-6.22,96,96,0,0,1,42.8,13.34A81.11,81.11,0,0,1,1180,1555.48Zm-78.54,112.87c33.74,2.47,68.89-17.21,70.51-56.43,1.31-31.59-12.59-57.55-41.64-71.86-26.26-13-70.57-6.59-85.75,19.32-13.29,22.68-9.42,53.55,2.68,75.86C1058.51,1656,1079.7,1666.76,1101.47,1668.35Z"/><path class="cls-14" d="M1044.59,1559.38c-13.29,22.68-9.42,53.55,2.68,75.86,11.24,20.71,32.43,31.52,54.2,33.11,33.74,2.47,68.89-17.21,70.51-56.43,1.31-31.59-12.59-57.55-41.64-71.86C1104.08,1527.11,1059.77,1533.47,1044.59,1559.38Z"/><path class="cls-15" d="M1032.87,1639.4c8.71,15.35,22.08,27.54,39.72,36.23,10.32,5.09,23.65,7.89,37.53,7.89h0c29.75,0,56-12,67-30.7a67.28,67.28,0,0,0,3.9-7.78"/><path class="cls-15" d="M1162.14,1555.53a84,84,0,0,0-28.47-22.23c-9.66-4.76-21.41-7.28-34-7.28a87.47,87.47,0,0,0-35,7.09c-11.81,5.2-21,13-26.55,22.46"/><path class="cls-16" d="M1102.25,1568.17c6.89,5,11.64,15.45,17.42,21.85s12.09,13.56,16.33,21c-8.16,3.35-19.53,2.68-28.57,3.47-8.22.72-17,2.31-25.19,2-.1-4.82,2-10.44,3.69-15C1091.15,1587.56,1097.13,1573.27,1102.25,1568.17Z"/><path class="cls-16" d="M1078.64,1583.31s-7.22-5.26-11.42-7.09"/><line class="cls-16" x1="1128.04" y1="1580.3" x2="1135.54" y2="1568.4"/><path class="cls-16" d="M1109.39,1624c1.06,5.11,2.7,15.5,2.7,15.5"/><path class="cls-16" d="M1104.77,1591.85c2.74-.35,5.62,2.25,6.78,4.57,1.3,2.59.91,5.55-1.73,7.09a6.44,6.44,0,0,1-8.53-2.19c-1.68-2.53-.84-6.79,1.53-8.64A3.93,3.93,0,0,1,1104.77,1591.85Z"/><path class="cls-2" d="M390.16,1625a13.2,13.2,0,0,0-.24,2.19c-.06,9-.9,18-1,27-.06,8.41-.52,16.86,0,25.26.92,14.43,4.09,36,14.84,46.7,4.83,4.84,12.53,9.16,19.56,7.7,6.41-1.33,11.86-7.32,13.9-13.41a35.74,35.74,0,0,0,2.25-12c0-10.32-.81-21.25-1.52-31.55-.56-8-1.45-15.95-2.46-23.9-1.44-11.4-4.06-69.82-27.13-62.79C397.64,1593.45,391.78,1615.53,390.16,1625Z"/><path class="cls-2" d="M287.21,1629c.36,2.71.77,5.4.88,8.12.16,4.12-.2,8.27-.2,12.4,0,19.21-2.25,42.26,3.12,60.9a27.06,27.06,0,0,0,9.37,14.43c4.2,3.63,9.1,8.87,15.27,6.79,23.59-8,11.73-71.67,10.8-89.15-.61-11.45-.86-22.74-.93-34.21,0-9.41,1.77-20.38-1.69-29.4-5-13.11-17.85-12.74-25.59-1.26-8.74,13-12.23,30.55-11.56,46C286.76,1625.37,287,1627.17,287.21,1629Z"/><path class="cls-2" d="M198.91,1624.61a115.43,115.43,0,0,0-6.68,13.09,154.7,154.7,0,0,0-8,21c-2.23,7.48-4.86,14.5-5.22,22.4-.18,4.12-.56,8.74.12,12.83.81,4.88,5.24,12.41,9.26,15.52,2.64,2,5.65,2.75,8.7,3.48,22.51,5.43,30.25-25.33,32.27-41.24,1.77-13.9,11.43-60.09-15-58.62C207.6,1613.49,202.68,1618.61,198.91,1624.61Z"/><path class="cls-2" d="M663.49,1525.71c.42,7.85.72,15.74,1.67,23.53,1.27,10.41,5.71,38.41,20.1,38.17,18-.31,24.43-11.82,24.12-29.37a504.89,504.89,0,0,1,1.53-52c1.26-14.64-2.08-36.92-16.21-45-12.75-7.27-24.77,2.06-30.43,13.81-7,14.5-1.91,31.68-1,46.9C663.35,1523.07,663.42,1524.39,663.49,1525.71Z"/><path class="cls-2" d="M767.75,1525c.17,2.87.54,5.72.5,8.67-.13,9.94-1.53,19.87-.54,29.82a144.83,144.83,0,0,1,.74,15,35.43,35.43,0,0,0,2.24,12.22c1.5,4.57,1.76,9.16,4.27,13.41,5.49,9.3,16,13.57,21.57,1.83,2-4.19,1.37-8.1,1.74-12.55.33-3.93,1.5-7.7,1.74-11.65.28-4.56-.26-9.1.46-13.64,1.27-7.9.7-16,.64-24-.12-15-.66-30.12-2.74-45-.79-5.69-1.45-12-4.33-17.06-1.7-3-4.3-7.59-8.27-6.1-7.26,2.74-10.63,13.3-12.95,19.93a104.11,104.11,0,0,0-5,24.19A33,33,0,0,0,767.75,1525Z"/><path class="cls-2" d="M1257.42,1625a14.38,14.38,0,0,1,.24,2.19c.06,9,.89,18,1,27,.06,8.41.53,16.86,0,25.26-.92,14.43-4.1,36-14.84,46.7-4.84,4.84-12.53,9.16-19.56,7.7-6.41-1.33-11.86-7.32-13.9-13.41a35.74,35.74,0,0,1-2.25-12c0-10.32.8-21.25,1.52-31.55.55-8,1.45-15.95,2.45-23.9,1.44-11.4,4.06-69.82,27.14-62.79C1249.94,1593.45,1255.8,1615.53,1257.42,1625Z"/><path class="cls-2" d="M1360.37,1629c-.36,2.71-.78,5.4-.88,8.12-.17,4.12.2,8.27.2,12.4,0,19.21,2.24,42.26-3.13,60.9a27,27,0,0,1-9.36,14.43c-4.21,3.63-9.1,8.87-15.27,6.79-23.59-8-11.73-71.67-10.8-89.15.61-11.45.86-22.74.92-34.21,0-9.41-1.77-20.38,1.69-29.4,5-13.11,17.85-12.74,25.59-1.26,8.75,13,12.24,30.55,11.57,46C1360.82,1625.37,1360.61,1627.17,1360.37,1629Z"/><path class="cls-2" d="M1448.67,1624.61a117.1,117.1,0,0,1,6.68,13.09,153.35,153.35,0,0,1,8,21c2.24,7.48,4.87,14.5,5.22,22.4.19,4.12.57,8.74-.11,12.83-.81,4.88-5.25,12.41-9.27,15.52-2.63,2-5.64,2.75-8.69,3.48-22.52,5.43-30.25-25.33-32.28-41.24-1.77-13.9-11.43-60.09,15-58.62C1440,1613.49,1444.9,1618.61,1448.67,1624.61Z"/><path class="cls-2" d="M984.08,1525.71c-.41,7.85-.72,15.74-1.66,23.53-1.27,10.41-5.72,38.41-20.11,38.17-18-.31-24.42-11.82-24.11-29.37a507.72,507.72,0,0,0-1.53-52c-1.27-14.64,2.08-36.92,16.2-45,12.76-7.27,24.78,2.06,30.44,13.81,7,14.5,1.9,31.68,1,46.9C984.22,1523.07,984.15,1524.39,984.08,1525.71Z"/><path class="cls-2" d="M879.82,1525c-.16,2.87-.54,5.72-.5,8.67.14,9.94,1.54,19.87.54,29.82-.5,5-.74,9.94-.74,15a35.42,35.42,0,0,1-2.23,12.22c-1.5,4.57-1.77,9.16-4.28,13.41-5.48,9.3-16,13.57-21.57,1.83-2-4.19-1.36-8.1-1.73-12.55-.33-3.93-1.51-7.7-1.75-11.65-.27-4.56.27-9.1-.46-13.64-1.26-7.9-.69-16-.63-24,.11-15,.65-30.12,2.74-45,.79-5.69,1.45-12,4.33-17.06,1.69-3,4.3-7.59,8.27-6.1,7.26,2.74,10.63,13.3,13,19.93a103.57,103.57,0,0,1,5,24.19A30.59,30.59,0,0,1,879.82,1525Z"/><path class="cls-19" d="M542.86,1231.54c3.42,11.47,6.64,24.16,11.24,36,0,0-13.49,9.51-18.75,16.57-10.18,13.61-16.88,34.74-13.37,51.68,3.67,17.72,16.57,33,30.7,43.77-26.95,7.09-52.59,19.28-78.77,28.58-7.8,2.77-15.67,5.64-23.55,8.62-27.75,10.47-55.74,22.28-82.34,36q-9.16,4.69-18.09,9.71c-62.71-138.55-191.83-208.9-189.52-260.09,2.44-54.11,147.3-112.91,331.93-112.91.14.34.28.68.43,1,6.82,15.36,14.58,30.31,20.84,45.92,6.16,15.36,8.71,32,13.63,47.76S538.1,1215.58,542.86,1231.54Z"/><path class="cls-19" d="M1487.17,1202.29c2.31,51.19-126.81,121.54-189.52,260.09q-8.91-5-18.09-9.71c-26.6-13.67-54.59-25.48-82.34-36-7.88-3-15.75-5.85-23.55-8.62-26.18-9.3-51.82-21.49-78.77-28.58,14.13-10.77,27-26,30.7-43.77,3.51-16.94-3.19-38.07-13.37-51.68-5.26-7.06-18.75-16.57-18.75-16.57,4.6-11.8,7.82-24.49,11.24-36,4.76-16,10.65-31.56,15.62-47.46s7.47-32.4,13.63-47.76c6.26-15.61,14-30.56,20.84-45.92.15-.34.29-.68.43-1C1339.87,1089.38,1484.73,1148.18,1487.17,1202.29Z"/><path class="cls-20" d="M473.91,1408.1c26.18-9.3,51.82-21.49,78.77-28.58-14.13-10.77-27-26-30.7-43.77-3.51-16.94,3.19-38.07,13.37-51.68,5.26-7.06,18.75-16.57,18.75-16.57-4.6-11.8-7.82-24.49-11.24-36-4.76-16-10.65-31.56-15.62-47.46s-7.47-32.4-13.63-47.76c-6.26-15.61-14-30.56-20.84-45.92-.15-.34-.29-.68-.43-1-20,0-39.49.69-58.4,2,4,2.26,8.35,4.54,11.32,7.6,5.45,5.61,8.95,15.43,13.05,22.24,4.22,7,8.76,13.66,12,21.18,4.74,11.13,8.35,22.82,12.32,34.26,8.15,23.48,15,49.45.49,71.86-3.61,5.58-5,11.85-7.7,17.87-3.08,6.77-4.68,13.61-6.19,20.79-2.87,13.68,1,26.87,1,40.53,0,14.9-8.39,30.2-21.4,37.84-11.32,6.65-20.53,16.86-32.44,22.1-6.64,2.92-10.7,7.86-16.6,11.44-7.16,4.34-14.87,7.86-21.56,13-4.65,3.58-9.47,5-15,6.88-7.87,2.7-15.65,1.32-23.7,3a63.36,63.36,0,0,1-10,1.13,413.78,413.78,0,0,1,20.48,39.33q8.91-5,18.09-9.71c26.6-13.67,54.59-25.48,82.34-36C458.24,1413.74,466.11,1410.87,473.91,1408.1Z"/><path class="cls-21" d="M239.36,1272.48c-15.18-15.67-29.51-30.45-39.65-43.09-12.77-15.91-14.46-23.1-14.33-26,.32-7.11,15.52-30.73,81.14-54.36,39.53-14.23,86.7-24.44,137.36-30"/><path class="cls-20" d="M1173.67,1408.1c-26.18-9.3-51.82-21.49-78.77-28.58,14.13-10.77,27-26,30.7-43.77,3.51-16.94-3.19-38.07-13.37-51.68-5.26-7.06-18.75-16.57-18.75-16.57,4.6-11.8,7.82-24.49,11.24-36,4.76-16,10.65-31.56,15.62-47.46s7.47-32.4,13.63-47.76c6.26-15.61,14-30.56,20.84-45.92.15-.34.29-.68.43-1,20,0,39.48.69,58.4,2-4,2.26-8.36,4.54-11.33,7.6-5.45,5.61-9,15.43-13,22.24-4.21,7-8.76,13.66-12,21.18-4.74,11.13-8.34,22.82-12.31,34.26-8.16,23.48-15,49.45-.5,71.86,3.61,5.58,5,11.85,7.71,17.87,3.07,6.77,4.67,13.61,6.18,20.79,2.88,13.68-1,26.87-1,40.53-.05,14.9,8.39,30.2,21.4,37.84,11.32,6.65,20.52,16.86,32.44,22.1,6.63,2.92,10.7,7.86,16.6,11.44,7.15,4.34,14.86,7.86,21.55,13,4.66,3.58,9.47,5,15,6.88,7.86,2.7,15.65,1.32,23.7,3a63.36,63.36,0,0,0,10,1.13,411.49,411.49,0,0,0-20.48,39.33q-8.91-5-18.09-9.71c-26.6-13.67-54.59-25.48-82.34-36C1189.34,1413.74,1181.47,1410.87,1173.67,1408.1Z"/><path class="cls-21" d="M1408.22,1272.48c15.18-15.67,29.51-30.45,39.65-43.09,12.76-15.91,14.45-23.1,14.32-26-.32-7.11-15.52-30.73-81.14-54.36-39.53-14.23-86.7-24.44-137.35-30"/><path class="cls-22" d="M498.25,1425.94c7.1,19.61,13.22,39.65,19.81,59.45"/><path class="cls-22" d="M450.36,1416.71c1.94,6,4,12,6.36,17.83,5.68,13.87,11.3,27.77,17.09,41.6"/><path class="cls-22" d="M415,1456.32c7,15.43,13.74,31,21.13,46.24"/><path class="cls-22" d="M583.24,233.49S563.69,221,562.63,220.28c-11.09-7.4-23.37-13-35.34-19-18-9-36.55-17.07-55.91-22.64-17.85-5.14-40.21-10.43-58.71-5.81-3,.76-6.46.11-9.48.86-13.57,3.4-30.05,11.81-26.73,28.45,2.08,10.36,14.09,15.81,20.69,22.41,12,12,27.41,19.5,41.65,28.29,6.63,4.1,12.65,8.94,19.11,13.26,7.49,5,15.91,8.61,22.81,14.51A178.34,178.34,0,0,0,507.65,300c17.39,10.11,33,22.92,48.78,35.25,16.45,12.81,33.27,25.12,49.29,38.48,4.52,3.75,8.36,8.4,12.94,12.06,16.73,13.38,33.23,27.05,49.18,41.35,13,11.69,27.95,32.67,45.63,37.08a55.79,55.79,0,0,0,13.79,1.73c6.76,0,14.29-1.62,19.85-5.64,11.13-8,7.26-25.39,6-37-1.41-12.67-4.58-25.25-10.29-36.69"/><path class="cls-22" d="M439,253h-8.28C396.66,253,364,264.51,336,283.2c-21.58,14.38-36.8,44.9-43.43,69.16-3,10.85-4.24,22.66-6.2,33.77-5.6,31.88,3.18,63.56,15.32,92.59,4.08,9.76,10.12,18.63,16.23,27.22,40.95,57.57,117.32,69.78,182.89,59.36,29.36-4.67,57.46-14.89,81.57-32.5,22.25-16.25,40-38.39,53.14-62.46,9.66-17.66,20.91-37.14,15.77-57.73"/><path class="cls-22" d="M322.76,565.71s-15.74-13.12-19.63-17.8c-8-9.61-16.29-18.81-23.15-29.07-2.65-4-4.33-8.75-7.11-12.46-3.88-5.18-8-16.52-9.49-22.55-2.43-9.71-6.95-19.29-8.91-29.07-1.87-9.36-.93-20.48.6-29.67a41.8,41.8,0,0,1,10.33-20.63c4.93-5.33,13.49-10.57,19.34-4"/><path class="cls-22" d="M678.49,588.83c0-11.17.78-24.25,5-34.7,9.24-23.09,40.4-40.53,63.62-28.92,4.73,2.36,7,8.52,9.91,12.39,13,17.39,12.4,40.15,12.4,61.15"/><path class="cls-22" d="M713.2,566.52a7.55,7.55,0,0,0-1.66,5c0,9.19,6.59,16.54,16.52,14,8.55-2.13,10.76-12.38,8.27-19.83a18.45,18.45,0,0,0-2.48-4.13,11.63,11.63,0,0,0-6.19-.83C722.3,561.56,717.17,562.55,713.2,566.52Z"/><path class="cls-22" d="M475.65,936.48c-13.91-9.47-28.42-18-42.26-27.62S407.22,888.22,394.78,877c-5.19-4.69-11.26-8.31-16.41-13.05-7.86-7.23-13.84-16.42-20.49-24.73-13.67-17.06-25.3-40.24-32.54-60.85-3.94-11.24-5.89-23.66-8.44-35.3-9.91-45.19,12.86-94.18,26.94-136"/><path class="cls-22" d="M321,675.27s-2.85-11.54-3.6-14.55c-2.71-10.86-3.79-21.8-8.26-32.22-2.41-5.61-3.29-12.3-5-18.18-4.76-16.71-10-32.73-14-49.58-3-12.48-7.5-38.1-7.5-38.1"/><path class="cls-22" d="M823.79,902c-23.1,0-42.2-5.11-63.31-7.58-20.75-2.43-40.35-7.31-60.62-12-23.1-5.27-45.66-11.15-68.46-16.36-5.47-1.24-10.9-3.94-16.32-5.18-10.45-2.39-25.69-6.52-35.13-11.52-27.19-14.41-53.89-29.11-76.2-50.79-5.07-4.92-9.3-10.68-13.44-16.49-4.77-6.67-11.09-13.66-16.31-19.91-2.53-3-4-8-5.69-11.51-6.61-14.25-12.2-28.25-11.55-43.91.54-13.07-.82-23.23,4.73-35.78,11-24.89,28.45-38.56,53.42-47.78,5.19-1.91,13-2.31,18.27-2.09,17.46.72,32.58.43,50.31,4.48a316.67,316.67,0,0,1,48.08,14.92c7,2.85,13.83,7.75,20.41,11.51,8.72,5,18.26,8.4,26.94,13.59,7.9,4.72,17.33,7.11,25.71,10.68,7.21,3.07,13.82,7.56,21.06,10.64,7.43,3.16,14.93,5.74,22.32,8.89,16.07,6.84,49.73,24.48,75.78,24.48"/><path class="cls-22" d="M823.79,868.66c-31.55,0-43.62-1.34-51.41-1.91-27.26-2-53-11.22-79.79-15.7-7.93-1.34-15.24-6.26-23-8-15.62-3.56-30.16-10.78-45.29-16.9C593,813.44,561.69,798,537,774.41c-24.09-23-44.34-57.83-29.75-91.48a55.43,55.43,0,0,1,4-7.54c2.91-4.6,6.4-9.83,10.94-13,29.48-20.55,77.18,2.33,105.16,15.22,10.38,4.79,21.19,9.42,31.59,13.63,26.68,10.79,53.71,22.86,81,33C766.13,734,795.45,745,823.79,745"/><path class="cls-22" d="M523.86,661.28s9.71,31.16,12.62,39.93c6.34,19.06,24.22,92.27,24.22,92.27s15.89-17.28,20.33-21c14.9-12.46,29.85-26.33,44-40.26,5.81-5.7,38.67-39,38.67-39s17.52,42,18.69,43.95c3.07,5.16,5.53,10.69,8.66,15.69,4.72,7.5,7.55,16.16,12.25,23.65a301.93,301.93,0,0,1,18.57,34.28c4.8,10.33,18.34,50.87,18.34,50.87s17.74-25.93,22.53-32.5c5.34-7.33,9.83-16.08,15.82-22.64,3.21-3.52,6.81-6.57,10-10.1,9.19-10.07,35.16-51.41,35.16-51.41"/><path class="cls-22" d="M823.79,268.28c-36.42,0-56.73-35.51-65.68-66.26-3.39-11.64-4.53-32-1.58-43.78,1.82-7.26,4.35-14.15,6.07-21.4a421.07,421.07,0,0,1,16.86-53.52C786,66.43,793.81,49.7,801,33.07,804.46,25,812.52,3,823.79,3"/><path class="cls-22" d="M710.6,211.45s-5.72-34.39-2.77-45.31c1.27-4.72.4-10.62,3.19-14.83,4.72-7.12,10.14-14.75,18.34-18.07a86,86,0,0,1,9.64-3.12c4.06-1.09,8.31-3.07,12.58-1.82,3.69,1.07,10.94,4.66,10.82,9.35"/><path class="cls-22" d="M532.46,203.87c2.85-1.12,5.69-2.2,8.62-3.41,7.36-3,15.11-4.77,22.58-7.35,6.78-2.34,14.31-6.27,21.29-7.34,40.18-6.17,80.53-10.87,122-11.61"/><path class="cls-22" d="M644.89,904.79c12.58,4.11,26.1,6,38.91,8.79,24.51,5.35,48.91,8,73.64,12a420.34,420.34,0,0,0,66.35,5.75"/><path class="cls-22" d="M784.37,1342c-11.32-.4-48-1.81-67.89-4-36.35-4-70.88-10.28-105.13-23.62-15-5.84-37.46-13.11-47-26.89-11-16-16-37.55-21.5-56-4.77-16-10.65-31.56-15.62-47.46s-7.47-32.4-13.63-47.76c-6.26-15.61-14-30.56-20.84-45.92-2.93-6.6-3.83-14-6-20.89-2.38-7.56-5.72-15.08-8.54-22.5-5-13.19-12.64-25.71-16.28-39.53-5.34-20.27-15.3-38.81-21.07-59-4-13.9-13.07-43.66-13.07-43.66"/><path class="cls-22" d="M796.53,1432.11s-32.94.44-47-1.43c-17.94-2.38-36.13-3.47-53.85-7.27-8.11-1.74-16.56-.92-24.76-2.05-9.2-1.28-18.18-3.78-27.34-5.29-12.78-2.11-25.53-6.82-38.12-9.93-17.86-4.43-36.38-14.56-51.18-25.42s-28.49-26.58-32.3-45c-3.51-16.93,3.19-38.06,13.36-51.67,5.27-7.06,18.76-16.58,18.76-16.58"/><path class="cls-22" d="M624.55,1047.68c.59,4.88.85,9.47,3.27,13.69,3.84,6.73,16.41,8.57,20.64.92,2.1-3.81.51-10.77,1-14.82"/><path class="cls-22" d="M580.7,1092.82c1.59,8,12.6,13,17.57,5.52,1.68-2.52,1.75-12.78,1-14.81"/><path class="cls-22" d="M618.18,1138.21c.91,2.58,1.78,6.06,4,8,4.07,3.52,14.28,7,17.38.52,1.36-2.84.94-7.48,1.33-10.63"/><path class="cls-22" d="M697,299.27c.21,3-.18,7.57,1.42,10.27,2.54,4.34,10.55,7.21,13.11,1.08a54.37,54.37,0,0,0,1.84-7.1"/><path class="cls-22" d="M637.78,245.3c0,4.68,1.1,12,5.46,14.82,7.06,4.59,13.45-.22,15.25-7.11"/><path class="cls-22" d="M434.36,567.45c-1.91,1-3.51,2.26-3.68,4-.39,4.07,7.19,7.06,10.13,8.11,16.31,5.82,34.37,4.72,51.33,3.36,18.27-1.46,35.7-6.05,53-12a216.45,216.45,0,0,0,59.16-31.23c10.29-7.7,20.54-15.94,28.92-25.75,8.77-10.27,14.4-22.63,21.2-34.19a96.07,96.07,0,0,0,10.66-26.66c1.56-6.58,3.41-18.29,4.36-24.55"/><path class="cls-22" d="M748.22,1015.32a483,483,0,0,0,151.13,0"/><path class="cls-22" d="M904.8,386.62c-5.71,11.44-8.88,24-10.3,36.69-1.29,11.58-5.16,28.95,6,37,5.57,4,13.1,5.64,19.86,5.64a55.71,55.71,0,0,0,13.78-1.73c17.68-4.41,32.61-25.39,45.64-37.08,15.94-14.3,32.45-28,49.18-41.35,4.58-3.66,8.42-8.31,12.93-12.06,16-13.36,32.84-25.67,49.29-38.48,15.83-12.33,31.4-25.14,48.79-35.25a178.34,178.34,0,0,0,26.93-19.32c6.9-5.9,15.31-9.49,22.81-14.51,6.45-4.32,12.47-9.16,19.1-13.26,14.24-8.79,29.69-16.33,41.65-28.29,6.6-6.6,18.62-12.05,20.69-22.41,3.33-16.64-13.15-25.05-26.72-28.45-3-.75-6.45-.1-9.48-.86-18.5-4.62-40.87.67-58.72,5.81-19.35,5.57-37.92,13.64-55.91,22.64-12,6-24.25,11.56-35.34,19-1,.7-20.6,13.21-20.6,13.21"/><path class="cls-22" d="M996.33,412.61c-5.14,20.59,6.11,40.07,15.77,57.73,13.17,24.07,30.9,46.21,53.14,62.46,24.12,17.61,52.22,27.83,81.58,32.5,65.57,10.42,141.94-1.79,182.88-59.36,6.11-8.59,12.16-17.46,16.24-27.22,12.13-29,20.91-60.71,15.31-92.59-2-11.11-3.23-22.92-6.19-33.77-6.64-24.26-21.85-54.78-43.44-69.16-28-18.69-60.7-30.17-94.81-30.17h-8.27"/><path class="cls-22" d="M1362.84,400.47c5.85-6.58,14.41-1.34,19.34,4a41.87,41.87,0,0,1,10.32,20.63c1.54,9.19,2.48,20.31.6,29.67-1.95,9.78-6.48,19.36-8.9,29.07-1.51,6-5.62,17.37-9.49,22.55-2.79,3.71-4.47,8.47-7.12,12.46-6.85,10.26-15.13,19.46-23.15,29.07-3.88,4.68-19.62,17.8-19.62,17.8"/><path class="cls-22" d="M878.2,598.75c0-21-.65-43.76,12.39-61.15,2.91-3.87,5.19-10,9.91-12.39,23.22-11.61,54.39,5.83,63.63,28.92,4.17,10.45,5,23.53,5,34.7"/><path class="cls-22" d="M919.92,560.74a11.63,11.63,0,0,0-6.19.83,18.83,18.83,0,0,0-2.49,4.13c-2.48,7.45-.27,17.7,8.27,19.83,9.94,2.49,16.53-4.86,16.53-14a7.55,7.55,0,0,0-1.66-5C930.41,562.55,925.27,561.56,919.92,560.74Z"/><path class="cls-22" d="M1303.74,607c14.07,41.86,36.84,90.85,26.94,136-2.55,11.64-4.5,24.06-8.45,35.3-7.23,20.61-18.87,43.79-32.53,60.85-6.65,8.31-12.64,17.5-20.49,24.73-5.15,4.74-11.22,8.36-16.42,13.05-12.43,11.24-24.8,22.32-38.6,31.88s-28.35,18.15-42.27,27.62"/><path class="cls-22" d="M1365,522.64s-4.53,25.62-7.51,38.1c-4,16.85-9.27,32.87-14,49.58-1.68,5.88-2.55,12.57-5,18.18-4.46,10.42-5.54,21.36-8.25,32.22-.76,3-3.6,14.55-3.6,14.55"/><path class="cls-22" d="M823.79,720.32c26.05,0,59.71-17.64,75.78-24.48,7.39-3.15,14.89-5.73,22.32-8.89,7.23-3.08,13.85-7.57,21.06-10.64,8.37-3.57,17.81-6,25.7-10.68,8.69-5.19,18.23-8.62,26.94-13.59,6.59-3.76,13.37-8.66,20.41-11.51a317.14,317.14,0,0,1,48.09-14.92c17.72-4.05,32.84-3.76,50.3-4.48,5.33-.22,13.08.18,18.28,2.09,25,9.22,42.4,22.89,53.41,47.78,5.56,12.55,4.2,22.71,4.74,35.78.65,15.66-4.94,29.66-11.56,43.91-1.64,3.54-3.15,8.49-5.68,11.51-5.22,6.25-11.55,13.24-16.31,19.91-4.14,5.81-8.38,11.57-13.44,16.49-22.31,21.68-49,36.38-76.2,50.79-9.45,5-24.69,9.13-35.14,11.52-5.41,1.24-10.85,3.94-16.32,5.18-22.8,5.21-45.36,11.09-68.46,16.36-20.27,4.65-39.86,9.53-60.61,12C866,896.88,846.88,902,823.79,902"/><path class="cls-22" d="M823.79,745c28.34,0,57.65-11,83.87-20.77,27.28-10.12,54.31-22.19,81-33,10.41-4.21,21.22-8.84,31.6-13.63,28-12.89,75.68-35.77,105.16-15.22,4.54,3.16,8,8.39,10.94,13a55.37,55.37,0,0,1,4,7.54c14.6,33.65-5.65,68.51-29.74,91.48-24.7,23.56-56,39-87.35,51.72-15.13,6.12-29.68,13.34-45.29,16.9-7.72,1.76-15,6.68-23,8-26.76,4.48-52.52,13.69-79.78,15.7-7.79.57-19.86,1.91-51.41,1.91"/><path class="cls-22" d="M823.79,745s26,41.34,35.16,51.41c3.21,3.53,6.81,6.58,10,10.1,6,6.56,10.48,15.31,15.82,22.64,4.78,6.57,22.52,32.5,22.52,32.5s13.55-40.54,18.35-50.87a303.44,303.44,0,0,1,18.56-34.28c4.71-7.49,7.54-16.15,12.25-23.65,3.14-5,5.6-10.53,8.67-15.69,1.16-2,18.68-43.95,18.68-43.95s32.87,33.32,38.68,39c14.18,13.93,29.13,27.8,44,40.26,4.44,3.71,20.33,21,20.33,21s17.88-73.21,24.21-92.27c2.92-8.77,12.63-39.93,12.63-39.93"/><path class="cls-22" d="M823.79,3c11.27,0,19.33,22,22.81,30.07,7.17,16.63,15,33.36,21.52,50.25A422.68,422.68,0,0,1,885,136.84c1.71,7.25,4.24,14.14,6.07,21.4,3,11.8,1.81,32.14-1.59,43.78-8.94,30.75-29.25,66.26-65.67,66.26"/><path class="cls-22" d="M885.17,137.65c-.11-4.69,7.14-8.28,10.83-9.35,4.26-1.25,8.51.73,12.57,1.82a85.29,85.29,0,0,1,9.64,3.12c8.2,3.32,13.62,10.95,18.34,18.07,2.8,4.21,1.92,10.11,3.19,14.83,3,10.92-2.77,45.31-2.77,45.31"/><path class="cls-22" d="M940.58,174.16c41.52.74,81.87,5.44,122,11.61,7,1.07,14.51,5,21.29,7.34,7.48,2.58,15.23,4.32,22.59,7.35,2.93,1.21,5.76,2.29,8.61,3.41"/><path class="cls-22" d="M823.79,931.33a420.45,420.45,0,0,0,66.35-5.75c24.73-4,49.13-6.65,73.64-12,12.8-2.81,26.33-4.68,38.9-8.79"/><path class="cls-22" d="M865.56,1019.46v1.89s-.1,17-.11,18.4c0,7.42-.49,15.38.37,22.76.4,3.4,1,6.82.58,10.31-4,33.43-1.17,81.78-42.6,92-41.44-10.17-38.63-58.52-42.6-92-.41-3.49.18-6.91.57-10.31.87-7.38.4-15.34.38-22.76,0-1.43-.11-18.4-.11-18.4v-1.89"/><path class="cls-22" d="M862.1,1113.86s4,17.61,4.64,21.56c3.68,24.35,5.62,55.45-5,78.27-5.21,11.25-10.34,22.47-20.73,29.91-1.5,1.08-17.27,6.41-17.27,6.41s-15.77-5.33-17.27-6.41c-10.39-7.44-15.53-18.66-20.74-29.91-10.57-22.82-8.62-53.92-4.94-78.27.6-4,4.64-21.56,4.64-21.56"/><path class="cls-22" d="M862.25,1212.67c3.43,12.29,8.78,24.68,10.46,37.52a108.62,108.62,0,0,1,.6,22.44c-.42,5.55-1.08,11.32-3.14,16.53a133.16,133.16,0,0,0-5,16.32c-1.35,5.27-3.79,10.21-5.85,15.23-2.66,6.5-7.47,11-11.55,16.59-2,2.72-3.86,5.89-6.49,8.12-4.33,3.69-17.46,8.87-17.46,8.87s-13.13-5.18-17.46-8.87c-2.63-2.23-4.49-5.4-6.49-8.12-4.08-5.54-8.89-10.09-11.56-16.59-2-5-4.5-10-5.85-15.23a129.77,129.77,0,0,0-5-16.32c-2.06-5.21-2.71-11-3.13-16.53a108.62,108.62,0,0,1,.59-22.44c1.68-12.84,7-25.23,10.46-37.52"/><path class="cls-22" d="M858.07,1323.3c1.93,7,3.89,14.09,5.8,21.14,2.79,10.35,2.1,17.65,2.34,28.16.09,4.44.62,9.27.09,13.69-1.18,10-6.38,19.17-8.58,28.89a68.32,68.32,0,0,1-8.23,19.64c-5.94,9.79-25.7,25.44-25.7,25.44s-19.77-15.65-25.71-25.44a68.89,68.89,0,0,1-8.23-19.64c-2.19-9.72-7.39-18.84-8.58-28.89-.53-4.42,0-9.25.1-13.69.24-10.51-.46-17.81,2.34-28.16,1.91-7,3.87-14.09,5.79-21.14"/><path class="cls-22" d="M1219.76,904.87s-9.08,29.76-13.08,43.66c-5.77,20.14-15.73,38.68-21.07,59-3.63,13.82-11.28,26.34-16.27,39.53-2.82,7.42-6.17,14.94-8.54,22.5-2.16,6.9-3.06,14.29-6,20.89-6.82,15.36-14.58,30.31-20.84,45.92-6.16,15.36-8.71,32-13.63,47.76s-10.86,31.5-15.62,47.46c-5.5,18.43-10.48,40-21.51,56-9.52,13.78-32,21-47,26.89C1002,1327.75,967.45,1334,931.1,1338c-19.85,2.18-56.57,3.59-67.89,4"/><path class="cls-22" d="M1093.48,1267.49s13.49,9.52,18.75,16.58c10.18,13.61,16.87,34.74,13.37,51.67-3.81,18.4-17.55,34.16-32.3,45s-33.32,21-51.18,25.42c-12.59,3.11-25.34,7.82-38.12,9.93-9.16,1.51-18.14,4-27.35,5.29-8.2,1.13-16.64.31-24.75,2.05-17.73,3.8-35.91,4.89-53.86,7.27-14,1.87-47,1.43-47,1.43"/><path class="cls-22" d="M552.68,1379.52c-26.95,7.09-52.59,19.28-78.78,28.58-50.65,18-103.68,40-148.9,69.31C203.72,1556,83.34,1705.09,3,1827.56H1644.58c-80.35-122.47-200.72-271.54-322-350.15-45.21-29.31-98.25-51.32-148.9-69.31-26.18-9.3-51.82-21.49-78.77-28.58"/><path class="cls-22" d="M998.1,1047.47c.5,4-1.08,11,1,14.82,4.22,7.65,16.8,5.81,20.64-.92,2.41-4.22,2.68-8.81,3.26-13.69"/><path class="cls-22" d="M1048.27,1083.53c-.72,2-.65,12.29,1,14.81,5,7.45,16,2.46,17.57-5.52"/><path class="cls-22" d="M1006.7,1136.06c.4,3.15,0,7.79,1.34,10.63,3.09,6.44,13.3,3,17.37-.52,2.21-1.9,3.07-5.38,4-8"/><path class="cls-22" d="M934.24,303.52a52.8,52.8,0,0,0,1.83,7.1c2.57,6.13,10.57,3.26,13.12-1.08,1.59-2.7,1.21-7.32,1.41-10.27"/><path class="cls-22" d="M989.09,253c1.8,6.89,8.18,11.7,15.25,7.11,4.36-2.83,5.51-10.14,5.46-14.82"/><path class="cls-22" d="M978.15,428.57c.94,6.26,2.79,18,4.35,24.55a96.69,96.69,0,0,0,10.66,26.66c6.8,11.56,12.44,23.92,21.21,34.19,8.37,9.81,18.62,18,28.92,25.75A216.3,216.3,0,0,0,1102.45,571c17.29,5.95,34.72,10.54,53,12,17,1.36,35,2.46,51.32-3.36,2.94-1.05,10.52-4,10.14-8.11-.17-1.77-1.78-3.07-3.68-4"/><path class="cls-22" d="M899.35,1015.32a483,483,0,0,1-151.13,0"/><path class="cls-22" d="M728.16,1680.19l-1,.69a38.77,38.77,0,0,1-21.39,6.18h0a39.8,39.8,0,0,1-10.59-1.41c-14.49-3.52-40.27-11.66-49-26.38a21,21,0,0,1-2.8-7.88"/><path class="cls-22" d="M653.73,1630.09c5.45-3.48,12.83-5.31,21.85-5.31a70.26,70.26,0,0,1,9.92.73,91.85,91.85,0,0,1,13.69,3.45c9.26,3.15,31.93,10.86,37.13,27"/><path class="cls-22" d="M779.09,1689.26c-.48,0-1,0-1.41-.06l-3.76-.28c-2.19-.16-4.45-.32-6.7-.55a195.36,195.36,0,0,1-29-5.28,132.26,132.26,0,0,1-20.55-6.84l-.67-.29c-5-2.19-11.33-4.92-14.33-10.15-2.36-4.17-1.64-7.13-.62-8.88,2.53-4.32,9.06-5.23,14.09-5.23a36,36,0,0,1,5.92.46,110.34,110.34,0,0,1,12.22,3.18c2.51.75,5.11,1.54,7.67,2.17l.44.11c2.88.71,5.77,1.39,8.66,2.07,8.28,1.94,16.84,3.94,25.17,6.79l.57.19c4.33,1.48,9.72,3.33,13.26,6.95,3.88,3.93,3.28,7.34,2.58,9-2,4.86-9.24,6.62-13.59,6.62Z"/><path class="cls-22" d="M630.73,1619.29a167.5,167.5,0,0,0,20.78,9.9c1.86.78,3.75,1.51,5.75,2.28,7.16,2.77,14.56,5.63,20.49,10.44,1.63,1.3,6.65,5.3,5,9.9-1.28,3.65-5.9,5.42-14.13,5.42h0a49.84,49.84,0,0,1-12.65-1.52c-8.94-2.43-17.58-6.25-27.78-11.24l-1.65-.8-4.43-2.15"/><path class="cls-22" d="M539.82,1511.33c-29,2.13-57.28,16.53-72.26,44.15-16.13,29.74-21.29,70.91-3.58,101.15,20.24,34.55,79.33,43,114.34,25.76,38.73-19.08,57.27-53.7,55.52-95.82C631.68,1534.27,584.82,1508,539.82,1511.33Z"/><path class="cls-22" d="M546.11,1668.35c21.77-1.59,43-12.4,54.2-33.11,12.1-22.3,16-53.18,2.68-75.86-15.18-25.91-59.49-32.26-85.75-19.32-29.05,14.31-43,40.27-41.65,71.86C477.22,1651.15,512.36,1670.82,546.11,1668.35Z"/><line class="cls-22" x1="823.79" y1="1507.13" x2="823.79" y2="1609.19"/><line class="cls-22" x1="743.71" y1="1477.11" x2="743.71" y2="1579.16"/><line class="cls-22" x1="623.61" y1="1477.11" x2="623.61" y2="1550.61"/><path class="cls-22" d="M766.19,1688.27c3.8,13,17.06,20.78,57.6,19.22"/><path class="cls-22" d="M823.79,1653c-30.9,0-46.51,4.3-53.66,11.53"/><path class="cls-22" d="M577.25,1513.24c-11.24-37-20.35-72.74-24.28-111.41-.8-7.84-.29-22.31-.29-22.31"/><path class="cls-22" d="M453.73,1598.86s-23.1-25.11-30.65-36.26A474,474,0,0,1,368,1452.67"/><line class="cls-22" x1="353.36" y1="1568.56" x2="353.36" y2="1728.09"/><line class="cls-22" x1="263.28" y1="1598.29" x2="263.28" y2="1682.51"/><path class="cls-22" d="M1149.33,1425.94c-7.11,19.61-13.22,39.65-19.82,59.45"/><path class="cls-22" d="M1197.22,1416.71c-1.94,6-4,12-6.36,17.83-5.68,13.87-11.3,27.77-17.09,41.6"/><path class="cls-22" d="M1232.56,1456.32c-7,15.43-13.75,31-21.14,46.24"/><path class="cls-22" d="M919.42,1680.19l1,.69a38.78,38.78,0,0,0,21.4,6.18h0a39.78,39.78,0,0,0,10.58-1.41c14.5-3.52,40.28-11.66,49-26.38a20.87,20.87,0,0,0,2.8-7.88"/><path class="cls-22" d="M993.84,1630.09c-5.44-3.48-12.82-5.31-21.85-5.31a70.12,70.12,0,0,0-9.91.73,91.94,91.94,0,0,0-13.7,3.45c-9.25,3.15-31.93,10.86-37.13,27"/><path class="cls-22" d="M868.48,1689.26q.74,0,1.41-.06l3.76-.28c2.19-.16,4.46-.32,6.71-.55a195,195,0,0,0,28.94-5.28,132.76,132.76,0,0,0,20.56-6.84l.67-.29c5.05-2.19,11.33-4.92,14.33-10.15,2.36-4.17,1.63-7.13.61-8.88-2.52-4.32-9.05-5.23-14.09-5.23a36.12,36.12,0,0,0-5.92.46,110.74,110.74,0,0,0-12.21,3.18c-2.52.75-5.12,1.54-7.67,2.17l-.44.11c-2.88.71-5.77,1.39-8.66,2.07-8.28,1.94-16.85,3.94-25.17,6.79l-.57.19c-4.33,1.48-9.73,3.33-13.27,6.95-3.87,3.93-3.28,7.34-2.57,9,2,4.86,9.23,6.62,13.58,6.62Z"/><path class="cls-22" d="M1016.85,1619.29a167.5,167.5,0,0,1-20.78,9.9c-1.87.78-3.76,1.51-5.76,2.28-7.16,2.77-14.55,5.63-20.48,10.44-1.63,1.3-6.65,5.3-5.05,9.9,1.28,3.65,5.91,5.42,14.14,5.42h0a49.82,49.82,0,0,0,12.64-1.52c8.94-2.43,17.58-6.25,27.78-11.24l1.66-.8,4.42-2.15"/><path class="cls-22" d="M1107.76,1511.33c29,2.13,57.27,16.53,72.26,44.15,16.13,29.74,21.28,70.91,3.57,101.15-20.24,34.55-79.32,43-114.33,25.76-38.74-19.08-57.28-53.7-55.53-95.82C1015.9,1534.27,1062.76,1508,1107.76,1511.33Z"/><path class="cls-22" d="M1101.46,1668.35c-21.77-1.59-43-12.4-54.19-33.11-12.1-22.3-16-53.18-2.68-75.86,15.18-25.91,59.49-32.26,85.75-19.32,29.05,14.31,43,40.27,41.64,71.86C1170.36,1651.15,1135.21,1670.82,1101.46,1668.35Z"/><line class="cls-22" x1="903.86" y1="1477.11" x2="903.86" y2="1579.16"/><line class="cls-22" x1="1023.97" y1="1477.11" x2="1023.97" y2="1550.61"/><path class="cls-22" d="M881.39,1688.27c-3.8,13-17.06,20.78-57.6,19.22"/><path class="cls-22" d="M823.79,1653c30.9,0,46.51,4.3,53.65,11.53"/><path class="cls-22" d="M1070.33,1513.24c11.24-37,20.34-72.74,24.27-111.41.8-7.84.3-22.31.3-22.31"/><path class="cls-22" d="M1193.85,1598.86s23.1-25.11,30.64-36.26a474.06,474.06,0,0,0,55.07-109.93"/><line class="cls-22" x1="1294.22" y1="1568.56" x2="1294.22" y2="1728.09"/><line class="cls-22" x1="1384.3" y1="1598.29" x2="1384.3" y2="1682.51"/><path class="cls-22" d="M492.33,1089.38c-184.62,0-329.48,58.8-331.92,112.91-2.32,51.19,126.82,121.54,189.52,260.1"/><path class="cls-22" d="M1155.24,1089.38c184.63,0,329.49,58.8,331.93,112.91,2.31,51.19-126.83,121.54-189.52,260.1"/></g></g></svg>