<svg width="123" height="99" viewBox="0 0 123 99" fill="none" xmlns="http://www.w3.org/2000/svg">
<g clip-path="url(#clip0_1846_8819)">
<path d="M99.832 84.5108C101.875 86.3109 103.761 88.2813 105.471 90.4007C106.446 91.7079 107.518 92.9388 108.68 94.0826C110.176 95.4782 111.345 96.9007 113.116 98.0155C113.642 98.3422 114.195 98.2504 114.767 98.0641C116.271 97.5756 116.765 94.5739 117.1 93.2917C117.319 92.4549 117.529 91.6181 117.729 90.7813C118.121 89.1491 118.481 87.5097 118.808 85.8631C119.91 80.4456 121.324 75.0469 121.594 69.5025C121.896 63.3372 120.177 57.4473 117.934 51.7706C116.757 48.8013 115.521 45.832 114.125 42.9384C109.461 33.2855 102.315 25.0823 94.5333 17.813C93.413 16.7683 92.3576 15.6535 91.1348 14.7168C88.924 13.0271 86.6269 11.4614 84.4054 9.78516C83.161 8.8485 82.003 7.89563 80.5615 7.27209C79.1201 6.64854 77.738 5.72806 76.383 4.94796C70.3661 1.47662 62.9808 -0.21856 56.084 0.853074C49.306 1.90851 41.4914 6.4056 39.3481 13.3024C37.9094 17.9102 38.209 23.0875 39.1268 27.6817C39.2428 28.2567 39.3643 28.8263 39.4939 29.3985C42.6628 29.9084 45.7283 30.9276 48.5717 32.4164C51.9999 34.2411 54.9799 36.7893 57.5254 39.7046C58.2788 40.567 58.9871 41.468 59.6471 42.4039C59.8212 41.9212 60.025 41.4497 60.2572 40.9921C62.2547 37.1402 66.803 34.1574 70.9762 34.2438C73.4758 34.287 75.9214 35.0293 78.3346 35.7069C80.6031 36.3134 82.7456 37.3188 84.6618 38.6761C86.2139 39.7558 87.2289 41.424 88.6514 42.6198C90.9701 44.5688 92.8651 46.9388 94.7708 49.3034C95.3943 50.07 96.1879 50.923 96.6603 51.7976C98.1072 54.5833 99.6701 57.3474 101.079 60.0602C101.643 61.1399 102.467 62.2197 102.947 63.4101C104.424 67.0272 106.521 71.2382 106.103 75.3438C106.032 76.0376 105.922 76.9635 105.592 77.6005C105.004 78.7315 103.187 79.5494 102.054 79.0068C101.475 78.7208 100.948 78.3394 100.496 77.8785C100.694 78.5304 100.826 79.2005 100.89 79.8787C100.955 81.3148 100.669 83.1557 99.832 84.5108Z" fill="#FFE500"/>
<path d="M26.6045 37.0399C26.4641 35.7793 25.7704 34.6105 25.2548 33.5119C24.8154 32.5791 24.313 31.6772 23.7513 30.8125C25.3698 30.0689 27.0704 29.5189 28.8179 29.1741C32.2299 28.4641 35.7552 28.8123 39.1644 29.3495L39.4911 29.4008C42.6606 29.9101 45.727 30.9283 48.5716 32.416C51.9998 34.2407 54.9798 36.7889 57.5253 39.7042C58.2796 40.5659 58.9878 41.467 59.647 42.4035C61.5533 45.1366 63.0595 48.1279 64.1198 51.287C64.8756 53.4464 65.1402 55.9865 65.3318 57.5872C65.3993 58.146 65.4532 58.6994 65.491 59.2527C65.9046 65.2573 64.6924 71.2625 61.9819 76.6364C59.4904 81.6248 56.0245 85.5901 51.8081 87.5282C48.7984 88.913 47.4568 89.2639 44.1258 89.4933C42.6736 89.5905 41.0945 89.4663 39.6476 89.5662C38.441 89.6472 34.392 89.1262 30.2 87.1638C30.1217 87.126 29.8301 86.9668 29.4522 86.7508C31.4443 88.0384 31.6981 89.936 31.2203 90.7269C30.6804 91.642 28.9448 91.8823 27.8678 91.8067C26.5424 91.7068 22.739 90.6648 19.7698 87.6443C17.1001 84.945 14.5951 81.7598 13.7502 78.032C13.672 77.6946 13.6018 77.2816 13.5397 76.8416C13.5883 79.0199 14.9244 81.8839 13.5397 82.8773C12.4276 83.6682 8.20312 77.9699 7.4905 70.6034C6.84806 63.9738 7.15308 57.5683 8.76998 51.5974C9.74623 47.9378 11.2589 44.443 13.2589 41.2266C13.8825 40.2251 14.5736 39.2291 15.1998 38.2276C15.7156 37.4876 16.2829 36.7849 16.8976 36.1248C17.5958 37.1108 18.4363 37.9877 19.3918 38.727C21.1599 39.993 23.6811 41.1267 25.3951 39.5962C26.7799 38.3518 26.7071 37.8929 26.6045 37.0399ZM49.8188 58.8883C49.6433 57.4496 49.1304 56.0999 48.6202 54.7691C47.9238 52.9606 46.4203 51.8916 45.0166 50.6364C44.2068 49.9184 42.8571 49.222 42.0932 48.7469C40.2847 47.6024 37.9471 47.2083 35.8848 47.4593C34.2652 47.6591 32.4998 48.9953 31.2284 49.9454C27.56 52.6798 25.3871 56.7828 24.8256 61.3015C24.472 64.1709 24.2479 66.765 25.6651 69.3995C26.5284 70.951 27.6779 72.3249 29.0527 73.4485C30.7911 74.7982 32.6078 76.3287 34.8806 76.6094C37.9903 76.9954 39.545 76.3908 42.1283 74.6794C46.4202 71.8316 48.9684 67.5397 49.5974 62.4487C49.7513 61.2826 49.9699 60.049 49.8268 58.8883H49.8188Z" fill="#FFE500"/>
<path d="M100.48 77.8619C100.934 78.3214 101.461 78.7019 102.04 78.9875C103.174 79.5274 104.993 78.7176 105.579 77.5812C105.908 76.9442 106.019 76.021 106.089 75.3273C106.508 71.2324 104.408 67.0106 102.936 63.3935C102.453 62.2112 101.63 61.1315 101.066 60.0436C99.6568 57.3443 98.0966 54.5667 96.6471 51.7837C96.1882 50.8956 95.3919 50.0534 94.7575 49.2868C92.8518 46.933 90.9568 44.5522 88.6381 42.6032C87.2156 41.4074 86.2087 39.7474 84.6485 38.6595C82.7316 37.3033 80.5894 36.298 78.3213 35.6903C75.9081 35.0154 73.4625 34.2731 70.9656 34.2299C66.7897 34.1543 62.2413 37.1371 60.2465 40.9782C60.0117 41.435 59.807 41.9066 59.6338 42.39C61.5401 45.1231 63.0463 48.1145 64.1066 51.2735C64.8624 53.433 65.1269 55.973 65.3186 57.5738C65.3861 58.1325 65.44 58.6859 65.4778 59.2392C66.0852 59.7602 66.7168 60.2542 67.3215 60.7779C68.825 62.0789 70.3474 63.3584 71.967 64.511C72.4286 64.8404 72.8956 65.1589 73.368 65.4747C81.5119 80.4101 81.2986 80.7097 83.1855 82.8989C83.7496 83.5521 84.3813 84.5185 85.1803 84.8721C85.6913 85.1378 86.2521 85.294 86.8269 85.331C90.8408 85.3148 89.977 80.267 89.2887 78.6069C90.2308 80.7394 91.3617 82.7477 93.0407 84.343C94.0881 85.3391 95.3352 86.4782 96.944 86.381C98.2531 86.3 99.1925 85.5442 99.8215 84.4915C100.631 83.1418 100.944 81.2982 100.866 79.8432C100.806 79.1713 100.676 78.5074 100.48 77.8619Z" fill="#FFE500"/>
<path d="M114.768 98.0695C116.271 97.5809 116.765 94.5793 117.1 93.2971C117.32 92.4603 117.529 91.6226 117.729 90.784C118.118 89.1536 118.478 87.5151 118.809 85.8686C119.921 80.3862 121.157 74.858 121.619 69.273C121.727 67.9585 122.005 66.6547 122.005 65.3347C121.972 63.9475 121.787 62.5681 121.454 61.2209C121.147 59.7724 120.709 58.3548 120.145 56.9857C119.319 55.0994 118.262 53.323 116.998 51.6977C116.11 50.5613 114.638 49.4168 113.513 48.526L52.0274 4.83188C49.8679 3.29596 47.0336 4.06797 44.9578 5.35285C37.4888 9.97681 37.6102 20.0993 39.1246 27.6844C39.2397 28.2567 39.3621 28.8281 39.4917 29.3985C42.6614 29.9087 45.7277 30.9278 48.5722 32.4164C52.0004 34.2411 54.9804 36.7893 57.5259 39.7046C58.2802 40.5663 58.9884 41.4674 59.6476 42.4039C59.8208 41.9204 60.0255 41.4489 60.2603 40.9921C62.2552 37.1402 66.8035 34.1574 70.9794 34.2438C73.4763 34.287 75.9219 35.0293 78.3351 35.7041C80.6032 36.3119 82.7454 37.3172 84.6623 38.6734C86.2144 39.7531 87.2294 41.4213 88.6519 42.6171C90.9706 44.5661 92.8655 46.9361 94.7713 49.3007C95.3948 50.0673 96.1911 50.9203 96.6608 51.7976C98.1076 54.5806 99.6706 57.3447 101.08 60.0575C101.644 61.1373 102.467 62.217 102.95 63.4074C104.421 67.0245 106.521 71.2355 106.103 75.3412C106.033 76.0349 105.922 76.9607 105.593 77.5951C105.007 78.7288 103.188 79.5467 102.054 79.0014C101.475 78.7158 100.948 78.3353 100.494 77.8758C100.695 78.527 100.828 79.1973 100.891 79.876C100.969 81.331 100.669 83.1692 99.846 84.5243C101.884 86.3207 103.766 88.2866 105.471 90.4007C106.447 91.7073 107.52 92.9381 108.681 94.0826C110.179 95.4782 111.345 96.9034 113.119 98.0128C113.642 98.3476 114.196 98.2558 114.768 98.0695Z" fill="#FFE500"/>
<path d="M46.4127 7.70068C43.7133 9.37427 42.0694 12.052 41.3946 15.8905C40.9789 18.2389 40.96 21.0003 41.3271 24.0047" stroke="#FFFF4B" stroke-width="3.72343" stroke-linecap="round" stroke-linejoin="round"/>
<path d="M91.8262 77.5005C92.7682 79.633 93.6806 81.0798 94.7954 82.1865C94.8521 82.2432 94.9061 82.2972 94.9628 82.3485C95.4433 82.8074 96.3394 83.6577 96.7956 83.6307" stroke="#FFFF4B" stroke-width="3.72343" stroke-linecap="round" stroke-linejoin="round"/>
<path d="M75.8027 64.1602C78.5884 69.27 80.4321 72.7306 81.6495 75.0196C84.0627 79.5491 84.2679 79.9216 85.2855 81.1012" stroke="#FFFF4B" stroke-width="3.72343" stroke-linecap="round" stroke-linejoin="round"/>
<path d="M106.529 87.353C106.913 87.7975 107.282 88.2474 107.639 88.7027L107.72 88.8053C108.495 89.8308 109.328 90.8105 110.217 91.7394C110.333 91.8555 110.449 91.9689 110.562 92.0742C111.018 92.498 111.434 92.9136 111.836 93.3158C112.442 93.9474 113.084 94.5441 113.758 95.1028" stroke="#FFFF4B" stroke-width="3.72343" stroke-linecap="round" stroke-linejoin="round"/>
<path d="M34.8918 76.5986C32.6189 76.3286 30.8023 74.7954 29.0666 73.4376C27.691 72.3141 26.5406 70.9403 25.6762 69.3886C24.2591 66.7514 24.4832 64.1573 24.8368 61.2907C25.3982 56.772 27.5712 52.6663 31.2396 49.9346C32.511 48.9844 34.2682 47.6482 35.8959 47.4485C37.9555 47.1974 40.2931 47.5916 42.1044 48.7361C42.8737 49.2219 44.2234 49.9184 45.0278 50.6256C46.4314 51.8808 47.9349 52.9497 48.6314 54.7583C49.1415 56.0891 49.6544 57.4387 49.8298 58.8748C49.9729 60.0382 49.7543 61.2718 49.6113 62.4298C48.9823 67.518 46.4368 71.81 42.1422 74.6578C39.5562 76.3799 38.0014 76.9846 34.8918 76.5986ZM38.5845 58.6966C36.6949 59.9437 35.6341 63.1829 36.3764 65.1885C37.4076 67.9715 40.2634 68.3089 42.4877 66.4005C43.9777 65.121 44.3772 62.7942 44.002 61.0018C43.5108 58.7587 40.4875 57.4306 38.5845 58.6966Z" fill="#DFE4EC"/>
<path d="M27.7383 64.2735C27.7413 63.8176 27.803 63.364 27.9218 62.9238C28.5967 60.4215 30.1731 57.571 32.7806 56.7153C33.6343 56.4345 34.5543 56.4269 35.4125 56.6937C36.4733 57.015 37.572 58.0137 38.1307 58.9639C38.6458 59.776 39.0114 60.6737 39.2104 61.6146C39.264 61.984 39.2946 62.3563 39.3022 62.7294C39.3422 63.1628 39.3567 63.5982 39.3454 64.0332C39.3176 64.7894 39.2354 65.5427 39.0997 66.2872C39.0727 66.4356 39.0673 66.5895 39.0377 66.738C38.9972 66.9377 38.8865 67.1105 38.8298 67.3075C38.726 67.7237 38.5962 68.133 38.4411 68.533C37.6016 70.4576 36.8512 71.7722 34.6864 72.1447C32.1301 72.5901 29.5981 70.6439 28.5346 68.4385C28.0946 67.5235 27.9569 66.5031 27.8246 65.5071C27.7671 65.0984 27.7382 64.6862 27.7383 64.2735Z" fill="white"/>
<path d="M2.87267 40.5414C3.29586 40.8746 3.82353 41.0468 4.36179 41.0276C4.90004 41.0083 5.41402 40.7987 5.81228 40.4361C7.03778 39.2106 7.86108 36.7596 6.08222 35.6772C5.58554 35.3776 4.549 34.8674 3.65282 35.8203C3.13891 36.4254 2.67828 37.0738 2.27613 37.7584C2.27613 37.7584 1.67687 39.6209 2.87267 40.5414Z" fill="#3DED5A"/>
<path d="M3.64146 35.82C4.54844 34.8617 5.58498 35.3773 6.07086 35.6769C7.84972 36.7566 7.02642 39.2103 5.80093 40.4358C5.40266 40.7984 4.88869 41.008 4.35043 41.0273C3.81218 41.0465 3.2845 40.8743 2.86132 40.5411C1.66551 39.6206 2.25397 37.7554 2.25397 37.7554C1.45626 39.0847 0.907435 40.5482 0.634368 42.0743C0.484026 43.2459 0.501345 44.4329 0.685705 45.5996C1.08521 48.7984 4.95873 52.7637 8.76479 51.5922C9.74104 47.9326 11.2537 44.4378 13.2537 41.2213C13.8773 40.2199 14.5684 39.2238 15.1946 38.2197C15.7109 37.4809 16.2782 36.7791 16.8924 36.1196C16.1015 35.0722 15.3728 33.9601 14.6548 33.0207C14.6461 33.012 14.6388 33.002 14.6331 32.9911C14.0582 32.4782 13.3185 32.2838 12.7868 32.1084C10.9566 31.4956 8.81609 32.3297 7.09662 33.1125C5.75932 33.7553 4.57763 34.6809 3.63336 35.8254L3.64146 35.82Z" fill="#DFE4EC"/>
<path d="M42.4798 66.4011C43.9699 65.1216 44.3694 62.7947 43.9942 61.0024C43.511 58.7673 40.485 57.4393 38.5766 58.7053C36.6682 59.9712 35.6262 63.1915 36.3686 65.1971C37.3997 67.9721 40.2556 68.3095 42.4798 66.4011Z" fill="#3DED5A"/>
<path d="M58.902 75.0873C56.621 79.6545 53.6706 82.8694 50.3721 84.3865C47.7105 85.6093 46.8035 85.8414 43.8937 86.0411L58.902 75.0873ZM10.9294 70.2582C10.2951 63.6934 10.6892 57.7117 12.1036 52.4857C12.9956 49.1533 14.3726 45.9701 16.1904 43.0381L10.9294 70.2582Z" stroke="#FFFF4B" stroke-width="3.72343" stroke-linecap="round" stroke-linejoin="round"/>
<path d="M46.9033 70.3579C46.7932 70.3865 46.6814 70.4082 46.5686 70.4227C48.2363 68.0597 49.2816 65.3145 49.608 62.4408C49.7511 61.2828 49.9697 60.0492 49.8266 58.8858C49.6512 57.4497 49.1383 56.1 48.6281 54.7693C47.9317 52.9607 46.4282 51.8918 45.0246 50.6366C44.2148 49.9186 42.8651 49.2221 42.1012 48.7471C40.7371 47.9182 39.1831 47.4534 37.5879 47.3974C37.7518 47.184 37.9635 47.012 38.206 46.8953C38.6043 46.6837 39.0455 46.5655 39.4963 46.5498C39.93 46.5693 40.3588 46.6492 40.7704 46.7873C41.2914 46.9193 41.8013 47.0917 42.2955 47.3029C42.8057 47.5378 43.2889 47.8428 43.7964 48.0722C44.2419 48.3323 44.6597 48.6371 45.0434 48.9819C46.8844 50.3775 48.5525 51.7136 49.6323 53.8164C49.981 54.5435 50.2367 55.3117 50.3935 56.1027C50.9091 58.3486 51.4031 60.6916 51.0872 63.013C50.9986 63.6309 50.8733 64.2429 50.712 64.8459C50.5455 65.5721 50.3226 66.2842 50.0453 66.9756C49.7537 67.6343 49.2787 68.1688 48.9035 68.7788C48.4719 69.5491 47.7527 70.117 46.9033 70.3579Z" fill="#101820"/>
<path d="M6.70516 41.5101C6.74656 42.116 6.7421 42.7242 6.69172 43.3294C6.63367 43.9562 6.47787 44.5701 6.23008 45.1487C5.64972 46.52 4.68068 48.1693 3.40929 48.9926C3.15465 49.1599 2.88324 49.3001 2.59949 49.411C1.55755 48.2665 0.844966 46.8682 0.685705 45.5914C0.501345 44.4247 0.484026 43.2377 0.634368 42.0661C0.903796 40.5689 1.4386 39.1319 2.2135 37.8228H2.23782C2.14874 38.144 1.78968 39.7123 2.86132 40.5491C3.2845 40.8823 3.81218 41.0545 4.35043 41.0353C4.88869 41.016 5.40266 40.8064 5.80093 40.4438C5.99093 40.2517 6.16345 40.043 6.31648 39.8203C6.54316 40.3567 6.67468 40.9285 6.70516 41.5101Z" fill="white"/>
<path d="M104.378 89.0886C102.959 87.4662 101.441 85.9336 99.8321 84.4997C100.642 83.1501 100.955 81.3064 100.877 79.8515C100.814 79.1728 100.681 78.5024 100.48 77.8513C100.934 78.3108 101.461 78.6912 102.04 78.9769C103.174 79.5168 104.993 78.7069 105.579 77.5705C105.908 76.9335 106.019 76.0103 106.089 75.3166C106.508 71.2217 104.407 66.9999 102.936 63.3828C102.453 62.2005 101.63 61.1208 101.066 60.033C99.6567 57.3336 98.0965 54.556 96.647 51.773C96.1881 50.8849 95.3918 50.0427 94.7574 49.2761C92.8517 46.9223 90.9567 44.5415 88.638 42.5926C87.2155 41.3968 86.2086 39.7367 84.6484 38.6489C82.7315 37.2927 80.5893 36.2873 78.3212 35.6796C75.908 35.0048 73.4624 34.2624 70.9655 34.2192C66.7896 34.1437 62.2413 37.1264 60.2464 40.9676C60.0116 41.4243 59.8069 41.8959 59.6337 42.3793C59.4852 42.1661 59.3314 41.9555 59.1748 41.7477C58.4893 40.6912 57.7289 39.6854 56.8993 38.7379C54.8854 36.3752 52.4577 34.3994 49.7353 32.9074C49.0494 32.5437 48.3448 32.2166 47.6244 31.9275C45.0446 30.6997 42.3035 29.8444 39.4832 29.3874C39.3536 28.8152 39.2294 28.2456 39.1134 27.6707C38.9649 26.9283 38.8299 26.159 38.7139 25.3735C38.7948 25.4383 38.8759 25.5031 38.9541 25.5706C39.2537 25.8676 39.5871 26.1286 39.9475 26.348C40.3401 26.5468 40.7493 26.7112 41.1703 26.8393C41.6031 27.0197 42.0477 27.1703 42.501 27.2901C43.8731 27.5513 45.2218 27.9232 46.5338 28.4022C47.4759 28.7288 48.4234 29.0338 49.3789 29.3254C51.0714 29.8574 52.668 30.6566 54.1082 31.6927C54.9396 32.2811 55.8196 32.7535 56.6914 33.2718C57.5012 33.7469 58.249 34.2624 59.1883 34.4055C61.588 34.7726 63.6422 32.1327 65.6424 31.2743C67.065 30.6642 68.6117 30.4645 70.1395 30.289C71.5836 30.1136 73.017 29.9543 74.4584 30.1487C75.0846 30.2323 75.7811 30.2458 76.3804 30.4402C76.9796 30.6345 77.5816 30.98 78.2078 31.1906C81.7952 32.3864 84.616 34.1059 87.642 36.3409C88.9916 37.3289 90.3413 38.2493 91.5128 39.4424C92.6843 40.6356 93.5805 41.9582 94.5765 43.2458C96.7765 46.1017 98.9171 48.9468 100.855 51.989C102.23 54.1005 103.431 56.3203 104.445 58.6266C104.972 59.783 105.423 60.9723 105.795 62.187C106.294 63.9767 107.088 65.6962 107.644 67.4642C107.99 68.571 108.454 69.6777 108.724 70.806C108.964 71.8128 108.907 72.8629 109.04 73.8859C109.099 74.3583 109.061 74.8523 109.096 75.3301C109.218 76.9659 108.654 78.5423 107.768 79.9001C107.454 80.4442 107.047 80.9286 106.564 81.3307C104.067 83.285 104.03 86.1463 104.378 89.0886Z" fill="#DCC200"/>
<path d="M27.0928 42.3848L26.9687 42.5521C26.9103 42.6302 26.8854 42.7282 26.8993 42.8246C26.9132 42.921 26.9649 43.008 27.0429 43.0664C27.121 43.1247 27.2189 43.1497 27.3154 43.1357C27.4118 43.1218 27.4988 43.0702 27.5571 42.9921L27.6813 42.8248C27.7347 42.7542 27.7608 42.6668 27.7549 42.5785C27.7489 42.4902 27.7113 42.407 27.6489 42.3443L27.6084 42.3092C27.5299 42.2512 27.4317 42.2266 27.3351 42.2408C27.2385 42.2549 27.1514 42.3067 27.0928 42.3848ZM28.8582 41.7153L28.9203 41.6317C28.9728 41.5606 28.9982 41.4731 28.9917 41.3849C28.9853 41.2968 28.9475 41.2139 28.8852 41.1512C28.8729 41.1382 28.8593 41.1264 28.8447 41.1161C28.7666 41.0582 28.6688 41.0337 28.5727 41.0479C28.4765 41.062 28.3899 41.1138 28.3318 41.1917L28.2698 41.2753C28.2114 41.3534 28.1865 41.4514 28.2004 41.5478C28.2143 41.6443 28.2659 41.7312 28.344 41.7896C28.422 41.8479 28.52 41.8729 28.6165 41.859C28.7129 41.845 28.7999 41.7934 28.8582 41.7153ZM29.1525 43.4051L29.2145 43.3214C29.2671 43.2504 29.2924 43.1628 29.286 43.0747C29.2795 42.9866 29.2417 42.9036 29.1794 42.841L29.1389 42.8059C29.0604 42.7479 28.9622 42.7233 28.8656 42.7374C28.769 42.7516 28.682 42.8034 28.6234 42.8815L28.5613 42.9651C28.5126 43.0439 28.4951 43.1381 28.5124 43.229C28.5298 43.32 28.5806 43.4012 28.6549 43.4565C28.7292 43.5118 28.8216 43.5372 28.9137 43.5277C29.0058 43.5182 29.091 43.4744 29.1525 43.4051ZM29.6032 44.9977L29.668 44.914C29.7205 44.843 29.7459 44.7554 29.7394 44.6673C29.733 44.5792 29.6952 44.4963 29.6329 44.4336L29.5924 44.3985C29.5139 44.3405 29.4156 44.3159 29.3191 44.33C29.2225 44.3442 29.1354 44.396 29.0769 44.474L29.0148 44.5577C28.9564 44.6358 28.9315 44.7338 28.9454 44.8302C28.9593 44.9267 29.011 45.0136 29.089 45.072C29.167 45.1303 29.2651 45.1553 29.3615 45.1413C29.4579 45.1274 29.5449 45.0758 29.6032 44.9977ZM30.7585 43.7425L30.8206 43.6589C30.8735 43.5881 30.8993 43.5008 30.8934 43.4126C30.8874 43.3245 30.8502 43.2414 30.7883 43.1784L30.7477 43.1433C30.709 43.1142 30.6649 43.0931 30.6179 43.0812C30.571 43.0692 30.5222 43.0667 30.4742 43.0737C30.4263 43.0808 30.3802 43.0972 30.3387 43.1221C30.2971 43.147 30.261 43.1799 30.2322 43.2189L30.1701 43.2998C30.141 43.3385 30.1198 43.3825 30.1078 43.4293C30.0957 43.4761 30.093 43.5249 30.0997 43.5727C30.1065 43.6206 30.1227 43.6667 30.1472 43.7083C30.1718 43.75 30.2044 43.7863 30.243 43.8154C30.2816 43.8445 30.3256 43.8657 30.3724 43.8777C30.4193 43.8898 30.468 43.8925 30.5158 43.8858C30.5637 43.879 30.6098 43.8629 30.6515 43.8383C30.6931 43.8137 30.7295 43.7812 30.7585 43.7425Z" fill="#C6AF00"/>
<path d="M12.9969 25.7085C11.5539 24.6061 9.97204 23.6985 8.292 23.0092C6.22971 22.1994 3.79758 21.3896 1.92155 23.0956C1.56254 23.4222 1.19008 23.9054 1.23057 24.4291C1.37363 26.2619 6.10285 27.868 7.62527 28.4565C10.0871 29.4066 12.9511 30.8022 14.6435 32.9833C14.6498 32.9938 14.657 33.0037 14.6651 33.0129C15.3831 33.9469 16.1092 35.0644 16.9028 36.1118C17.601 37.0977 18.4415 37.9746 19.397 38.7139C21.1651 39.9799 23.6863 41.1136 25.4003 39.5831C26.7797 38.3522 26.6961 37.8933 26.6043 37.0403C26.4639 35.7798 25.7702 34.6109 25.2546 33.5123C24.8152 32.5795 24.3128 31.6777 23.7511 30.813C22.4322 28.8148 20.8769 26.9831 19.119 25.3576C18.0662 24.3643 16.7922 22.8257 15.2697 22.5341C12.7378 22.0509 11.9658 24.0512 12.9969 25.7058V25.7085Z" fill="#FF6C0E"/>
<path d="M59.6387 42.3953C59.8117 41.9122 60.0154 41.4406 60.2487 40.9836C62.2462 37.1316 66.7946 34.1488 70.9678 34.2352C73.4673 34.2784 75.9129 35.0207 78.3261 35.6956C80.5942 36.3033 82.7365 37.3087 84.6534 38.6648C86.2055 39.7446 87.2204 41.4128 88.643 42.6086C90.9617 44.5575 92.8566 46.9275 94.7651 49.2921C95.3859 50.0587 96.1823 50.9117 96.6411 51.789C98.088 54.572 99.6509 57.3361 101.06 60.0489C101.624 61.1287 102.447 62.2084 102.928 63.3988C104.404 67.0159 106.502 71.2269 106.083 75.3326C106.013 76.0263 105.903 76.9522 105.573 77.5865C104.985 78.7202 103.168 79.5381 102.034 78.9928C100.274 78.1507 99.1623 76.3259 98.3174 74.6982C97.8261 73.7508 96.6978 71.8477 96.6978 71.8477" stroke="#101820" stroke-width="1.48937" stroke-linecap="round" stroke-linejoin="round"/>
<path d="M100.351 77.4435C100.613 78.2321 100.789 79.0466 100.877 79.8729C101.017 82.4454 99.9673 86.2109 96.9549 86.3972C95.3353 86.4944 94.099 85.3552 93.0544 84.3592C90.6439 82.0675 89.3589 78.9281 88.1523 75.7915" stroke="#101820" stroke-width="1.48937" stroke-linecap="round" stroke-linejoin="round"/>
<path d="M89.2912 78.5935C89.9822 80.2293 90.8703 85.3203 86.8374 85.3419C86.2627 85.3049 85.7019 85.1486 85.1908 84.883C84.381 84.524 83.7602 83.563 83.1961 82.9098C81.15 80.5371 81.5764 80.3832 71.1543 61.4258" stroke="#101820" stroke-width="1.48937" stroke-linecap="round" stroke-linejoin="round"/>
<path d="M73.3784 65.4806C72.906 65.1647 72.4391 64.8462 71.9775 64.5169C70.3579 63.3643 68.8355 62.0875 67.3319 60.7837C66.7273 60.2574 66.0956 59.7661 65.4883 59.2451" stroke="#101820" stroke-width="1.48937" stroke-linecap="round" stroke-linejoin="round"/>
<path d="M25.6817 44.3822C24.6532 43.127 24.6937 39.7744 26.3484 38.9835C27.4821 38.4437 28.8102 38.7136 29.8062 39.4586C30.0573 39.6449 30.6296 40.2009 30.6296 40.2009" stroke="#101820" stroke-width="1.48937" stroke-linecap="round" stroke-linejoin="round"/>
<path d="M12.9969 25.7085C11.9658 24.0538 12.727 22.0509 15.2697 22.5368C16.7922 22.8283 18.0635 24.367 19.119 25.3603C21.6186 27.7168 23.7781 30.373 25.2546 33.5123C25.7702 34.6109 26.4666 35.7797 26.6043 37.0403C26.6961 37.8933 26.7797 38.3522 25.4003 39.5831C23.6863 41.1109 21.1651 39.9799 19.3997 38.7166C17.5102 37.3669 16.0687 34.8404 14.6651 33.0129C12.978 30.8157 10.0979 29.412 7.62527 28.4564C6.10285 27.868 1.37093 26.2619 1.23057 24.429C1.19008 23.8892 1.56254 23.4222 1.92155 23.0983C3.81108 21.3896 6.24051 22.2102 8.2947 23.0092C12.0549 24.4641 16.3495 28.1379 18.8032 31.3285C19.7432 32.4998 20.6104 33.7276 21.4 35.005" stroke="#101820" stroke-width="1.48937" stroke-linecap="round" stroke-linejoin="round"/>
<path d="M25.6762 69.3916C24.2591 66.7543 24.4832 64.1603 24.8368 61.2936C25.3982 56.7749 27.5739 52.6692 31.2396 49.9375C32.511 48.9873 34.2682 47.6512 35.8959 47.4514C37.9555 47.2004 40.2931 47.5945 42.1044 48.739C42.8737 49.2249 44.2207 49.9213 45.0278 50.6285C46.4314 51.8837 47.9349 52.9526 48.6314 54.7612C49.1415 56.092 49.6544 57.4416 49.8298 58.8804C49.9729 60.0411 49.7543 61.2747 49.6113 62.43C48.9823 67.5209 46.4341 71.8129 42.1422 74.6607C39.5589 76.3721 38.0068 76.9767 34.8945 76.5907C32.6216 76.3208 30.805 74.7875 29.0666 73.4298C27.6926 72.3089 26.5423 70.9389 25.6762 69.3916V69.3916Z" stroke="#101820" stroke-width="1.48937" stroke-linecap="round" stroke-linejoin="round"/>
<path d="M36.3683 65.189C35.6232 63.1834 36.6976 59.9442 38.5763 58.6971C40.455 57.45 43.5107 58.7592 43.9939 60.9943C44.3826 62.7947 43.9695 65.1188 42.4795 66.3929C40.2553 68.3094 37.3994 67.972 36.3683 65.189Z" stroke="#101820" stroke-width="1.48937" stroke-linecap="round" stroke-linejoin="round"/>
<path d="M14.6439 32.9828C14.0662 32.4699 13.3266 32.2755 12.7948 32.1001C10.962 31.4873 8.8241 32.3214 7.10732 33.1042C3.83033 34.5916 1.23359 38.5299 0.645138 42.066C0.494796 43.2376 0.51205 44.4246 0.696409 45.5913C1.09591 48.79 4.9695 52.7554 8.77556 51.5839" stroke="#101820" stroke-width="1.48937" stroke-linecap="round" stroke-linejoin="round"/>
<path d="M3.64363 35.8201C4.54791 34.8618 5.58445 35.3774 6.07303 35.677C7.85189 36.7567 7.02859 39.2131 5.8031 40.4359C5.40458 40.798 4.89064 41.0073 4.35253 41.0266C3.81443 41.0458 3.28689 40.8739 2.86349 40.5412C1.66498 39.6207 2.25614 37.7555 2.25614 37.7555" stroke="#101820" stroke-width="1.48937" stroke-linecap="round" stroke-linejoin="round"/>
<path d="M23.751 30.8153C25.3689 30.0695 27.0697 29.5186 28.8176 29.1741C32.2296 28.4641 35.7549 28.8123 39.1641 29.3495C42.4485 29.8416 45.6279 30.878 48.5713 32.416C51.9995 34.2407 54.9795 36.7889 57.525 39.7042C60.4943 43.0999 62.5107 46.6846 64.1195 51.2789C64.8753 53.4384 65.1399 55.9784 65.3342 57.5791C66.1184 64.1217 64.954 70.7501 61.987 76.6337C59.4955 81.6221 56.0296 85.5874 51.8132 87.5255C48.8035 88.9103 47.4619 89.2612 44.1309 89.4906C42.6814 89.5878 41.0996 89.4636 39.6527 89.5608C38.4461 89.6445 34.3971 89.1235 30.2051 87.1611C29.9189 87.0288 26.8795 85.2716 26.8795 85.2716" stroke="#101820" stroke-width="1.48937" stroke-linecap="round" stroke-linejoin="round"/>
<path d="M29.4577 86.7431C31.4498 88.0307 31.7008 89.9283 31.2257 90.7192C30.6859 91.6343 28.9502 91.8745 27.8732 91.7989C26.5478 91.699 22.7444 90.6571 19.7752 87.6366C17.1055 84.9372 14.6005 81.752 13.7557 78.0242C13.3885 76.4046 13.1699 73.0898 13.1699 73.0898" stroke="#101820" stroke-width="1.48937" stroke-linecap="round" stroke-linejoin="round"/>
<path d="M13.5507 76.8151C13.5966 78.9988 14.9409 81.8709 13.5507 82.8643C12.4386 83.6552 8.21414 77.9569 7.50151 70.5904C6.47037 59.928 7.88478 49.8406 13.27 41.2136C13.8935 40.2121 14.5845 39.216 15.2108 38.2146C15.7265 37.4746 16.2939 36.7719 16.9086 36.1118" stroke="#101820" stroke-width="1.48937" stroke-linecap="round" stroke-linejoin="round"/>
<path d="M39.492 29.3953C39.3624 28.823 39.2409 28.2535 39.1248 27.6785C38.207 23.0897 37.9074 17.9069 39.3462 13.2992C41.5056 6.40507 49.3094 1.90528 56.082 0.849844C62.9788 -0.229889 70.3642 1.47339 76.381 4.94474C77.7307 5.72484 79.1235 6.65611 80.5596 7.26886C81.9956 7.88161 83.159 8.84527 84.4034 9.78194C86.625 11.4582 88.9221 13.0211 91.1328 14.7136C92.3556 15.6476 93.4111 16.7651 94.5313 17.8098C102.314 25.0791 109.459 33.2823 114.123 42.9351C115.519 45.8207 116.755 48.79 117.932 51.7701C120.178 57.4387 121.897 63.3367 121.595 69.4993C121.325 75.0437 119.908 80.4451 118.806 85.8599C118.472 87.5029 118.112 89.1414 117.727 90.7754C117.527 91.6158 117.317 92.4535 117.098 93.2885C116.763 94.5707 116.269 97.5724 114.766 98.0609C114.196 98.2472 113.64 98.3309 113.114 98.0096C111.343 96.9002 110.177 95.475 108.679 94.0794C107.518 92.9363 106.446 91.7064 105.472 90.4002C103.762 88.279 101.876 86.3068 99.8328 84.5049" stroke="#101820" stroke-width="1.48937" stroke-linecap="round" stroke-linejoin="round"/>
</g>
<defs>
<clipPath id="clip0_1846_8819">
<rect width="122.174" height="98.7767" fill="white"/>
</clipPath>
</defs>
</svg>
