<svg width="312" height="138" fill="none" xmlns="http://www.w3.org/2000/svg"><g clip-path="url(#a)"><path d="M101.294 12.251c-5.518-.305-11.024-.527-16.53-.732-.769-.003-1.536.06-2.293.188a33.35 33.35 0 0 1-4.147 0c-3.29 0-6.581 0-9.822.111-7.74.2-15.457.942-23.096 2.22-6.532 1.11-13.113 2.513-19.338 5.393-1.607.766-3.258 1.337-4.838 2.208-1.03.555-1.908 1.071-2.967 1.526-2.194.96-4.3 2.57-6.466 3.829-1.574.915-3.088 2.22-4.63 3.329-.69.494-1.277.882-1.935 1.448-.34.294-.757.438-.998.843.707.944 2.802.261 3.927.411.471.13.926.317 1.354.555.373.139 1.223.083 1.333.555-.373.877-1.201 1.398-1.815 2.02-.955.954-1.772 1.92-2.781 2.774-1.316 1.126-2.337 2.597-3.51 3.99-.428.499-1.81 1.608-1.997 2.274-.285.999.768.51 1.284.389 1.097-.278 2.194-.405 3.29-.6a33.036 33.036 0 0 1 3.478-.554c.62-.05 1.486-.317 2.045-.167-.641 1.054-1.848 1.792-2.654 2.68-1.278 1.37-2.583 2.741-3.84 4.228a25.408 25.408 0 0 0-2.83 3.723c-1.096 1.92 1.333 1.165 2.134.95 1.333-.373 2.666-1.022 3.966-1.016 1.096 0 1.217.294.148 1.57a51.004 51.004 0 0 0-3.653 4.55c-.335.5-1.508 2.325-1.338 2.835 1.645-.216 3.537-1.198 5.298-2.142 1.519-.815 3.005-1.803 4.541-2.519 1.536-.715 3.022-1.698 4.552-2.402a113.524 113.524 0 0 1 8.688-3.59c1.996-.721 4.03-1.249 6.033-1.881a117.605 117.605 0 0 1 12.466-2.897 73.964 73.964 0 0 1 8.298-1.187c2.008-.16 4.015-.133 6.033-.283 5.386-.41 10.838-.316 16.295-.272 5.66.05 11.276-.238 17.002.283 9.121.827 18.324 1.665 27.423 2.17 5.238.277 10.497 1.11 15.768 1.603 6.357.622 12.647.555 18.955.905 2.193.11 4.267 0 6.433-.056 1.996-.078 4.015.033 6-.105 2.452-.167 4.876-.555 7.305-.866 2.814-.355 5.633-.521 8.408-1.11a77.682 77.682 0 0 0 12.346-3.59c4.678-1.797 9.477-3.329 13.986-6.07 2.353-1.431 4.843-2.868 7.069-4.783 1.404-1.198 3.258-2.18 4.426-3.84-.757.461-1.53.261-2.276.45-1.064.272-2.122.816-3.175 1.11-.541.129-1.092.216-1.646.26-.482.062-1.179.306-1.585.134 1.881-3.058 4.552-5.46 6.796-8.423 1.299-1.715 2.539-3.49 3.839-5.255.34-.449 1.958-2.219 1.925-2.818-.998.219-1.983.493-2.951.82-1.305.356-2.567.6-3.899 1.072a50.397 50.397 0 0 1-5.079 1.57c-.225-.555 1.124-1.393 1.475-1.764a46.285 46.285 0 0 0 2.885-3.68c.938-1.231 1.816-2.38 2.841-3.54.719-.815 1.646-1.802 1.997-2.94-.308-.6-1.942.172-2.6.333a34.212 34.212 0 0 0-4.624 1.51c-1.645.67-3.839 1.897-5.407 1.77.384-.872 1.206-1.443 1.815-2.087.521-.555.982-1.176 1.503-1.731.724-.76 1.525-1.393 2.243-2.18.856-.95 1.508-2.12 2.358-3.086.488-.555 1.18-1.076 1.311-1.886-.521-.35-1.777.41-2.462.67-1.328.5-2.666 1.283-4.004 1.87-2.578 1.11-5.139 2.048-7.75 3.114a50.248 50.248 0 0 1-4.832 1.725c-2.539.744-4.936 2.175-7.503 2.741-2.884.633-5.758 1.41-8.671 1.981-2.704.555-5.38.982-8.1 1.498-2.518.477-5.057.527-7.591.883-4.015.554-8.161.449-12.252.554-5.82.988-47.425-2.963-53.387-3.573Z" fill="#BE80FF"/><path d="M18.263 23.154c-2.194.96-4.3 2.57-6.466 3.829-1.574.915-3.088 2.22-4.63 3.329-.69.494-1.277.882-1.935 1.448-.34.294-.757.438-.998.843.707.944 2.802.261 3.927.411.471.13.926.317 1.354.555.373.139 1.223.083 1.333.555-.373.876-1.201 1.398-1.815 2.02-.955.954-1.772 1.92-2.781 2.774-1.316 1.137-2.337 2.608-3.51 4-.428.5-1.81 1.61-1.997 2.275-.285.999.768.51 1.284.389 1.097-.278 2.194-.405 3.29-.6a33.036 33.036 0 0 1 3.478-.554c.62-.05 1.486-.317 2.045-.167-.641 1.054-1.848 1.792-2.654 2.68-1.278 1.37-2.583 2.741-3.84 4.228a25.408 25.408 0 0 0-2.83 3.723c-1.096 1.92 1.333 1.165 2.134.95 1.333-.373 2.666-1.022 3.966-1.016 1.096 0 1.217.294.148 1.57a51.018 51.018 0 0 0-3.653 4.55c-.335.5-1.508 2.325-1.338 2.835 1.645-.216 3.537-1.198 5.298-2.142 1.519-.815 3.005-1.803 4.541-2.519 1.536-.715 3.022-1.698 4.552-2.402a113.524 113.524 0 0 1 8.688-3.59c1.996-.721 4.03-1.249 6.033-1.881a117.605 117.605 0 0 1 12.466-2.897 73.964 73.964 0 0 1 8.298-1.187c2.008-.16 4.015-.133 6.033-.283 5.386-.41 10.838-.316 16.295-.272 5.66.05 11.276-.238 17.002.283 9.121.827 18.324 1.665 27.423 2.17 5.238.277 10.497 1.11 15.768 1.603 6.357.622 12.647.555 18.955.905 2.193.11 4.267 0 6.433-.056 1.996-.078 4.015.033 6-.105 2.452-.167 4.876-.555 7.305-.866 2.814-.355 5.633-.521 8.408-1.11a77.682 77.682 0 0 0 12.346-3.59c4.678-1.797 9.477-3.329 13.986-6.07 2.353-1.431 4.843-2.868 7.069-4.783 1.404-1.198 3.258-2.18 4.426-3.84-.757.461-1.53.261-2.276.45-1.064.272-2.122.816-3.175 1.11-.541.129-1.092.216-1.646.26-.482.062-1.179.306-1.585.134 1.881-3.058 4.552-5.46 6.796-8.423 1.299-1.715 2.539-3.49 3.839-5.255.34-.449 1.958-2.219 1.925-2.818-.998.219-1.983.493-2.951.82-1.305.356-2.567.6-3.899 1.072a50.397 50.397 0 0 1-5.079 1.57c-.225-.555 1.124-1.393 1.475-1.764a46.285 46.285 0 0 0 2.885-3.68c.938-1.231 1.816-2.38 2.841-3.54.719-.815 1.646-1.802 1.997-2.94-.308-.6-1.942.172-2.6.333a34.212 34.212 0 0 0-4.624 1.51c-1.645.67-3.839 1.897-5.407 1.77.384-.872 1.206-1.443 1.815-2.087.521-.555.982-1.176 1.503-1.731.724-.76 1.525-1.393 2.243-2.18.856-.95 1.508-2.12 2.358-3.086.488-.555 1.18-1.076 1.311-1.886-.521-.35-1.777.41-2.462.67-1.328.5-2.666 1.283-4.004 1.87-2.578 1.11-5.139 2.048-7.75 3.114a50.251 50.251 0 0 1-4.832 1.725c-2.539.744-4.936 2.175-7.503 2.741-2.884.633-5.758 1.41-8.671 1.981-2.704.555-5.38.982-8.1 1.498-2.518.477-5.057.527-7.591.883-4.015.554-8.161.449-12.252.554-5.82 1.01-47.425-2.94-53.387-3.55-5.518-.306-11.024-.528-16.53-.733-.769-.002-1.536.06-2.293.188a33.35 33.35 0 0 1-4.147 0c-3.29 0-6.581 0-9.822.111-7.74.2-15.457.942-23.096 2.22-6.532 1.11-13.113 2.513-19.338 5.393" stroke="#101820" stroke-width="1.674" stroke-linecap="round" stroke-linejoin="round"/><path d="M32.473 37.642c-.049.367-.152.724-.307 1.06-.201.473-.44.93-.713 1.365-.293.474-.62.926-.976 1.353-.31.38-.668.718-1.064 1.005a11.431 11.431 0 0 1-3.5 1.964c-.433.155-.81.283-1.129.377a3.678 3.678 0 0 1-.97.167 2.921 2.921 0 0 1-.999-.156 5.804 5.804 0 0 1-1.201-.61 4.968 4.968 0 0 1-1.986-2.08 5.867 5.867 0 0 1-.438-1.11 9.2 9.2 0 0 1-.23-1.05c-.12-.865-.17-1.739-.149-2.612.073-1.39.33-2.764.763-4.084.18-.627.323-1.11.416-1.47.072-.232.124-.47.154-.71.567-.66 1.137-1.314 1.711-1.965a15.935 15.935 0 0 1 1.722-1.665 6.011 6.011 0 0 1 1.92-1.054l.927-.305a5.194 5.194 0 0 1 1.25-.244 2.41 2.41 0 0 1 1.152.188 1.1 1.1 0 0 1 .446.38c.112.166.178.358.19.558.121.794-.263 1.387-1.151 1.792h-.192c-.148 0-.351.061-.604.122-.252.061-.548.122-.844.206-.296.083-.626.172-.933.272a4.092 4.092 0 0 0-1.552 1.026 14.44 14.44 0 0 0-1.733 2.32c-.269 1.054-.46 1.875-.548 2.452-.091.363-.137.735-.138 1.11a4.714 4.714 0 0 0-.065 2.041c.235 1.554.68 2.553 1.332 3.025a2.395 2.395 0 0 0 2.342.194c.945-.406 1.85-.9 2.704-1.476a7.54 7.54 0 0 0 1.646-2.88c.213-.403.564-.714.987-.877a1.334 1.334 0 0 1 1.135.172 1.328 1.328 0 0 1 .636.96.47.47 0 0 1 0 .122.416.416 0 0 0-.01.117ZM48.505 32.337c-.098 1.154-.685 2.542-1.75 4.195a3.299 3.299 0 0 0-.592.488 7.78 7.78 0 0 1-.92.76c-.45.31-.927.577-1.427.794a9.335 9.335 0 0 1-2.051.616 6.273 6.273 0 0 1-4.201-.438c-1.201-.616-2.243-1.77-3.121-3.485a3.063 3.063 0 0 1-.099-.444c0-.15-.05-.31-.077-.483a14.191 14.191 0 0 1-.142-3.617c.091-1.002.32-1.986.68-2.924a9.089 9.089 0 0 1 1.289-2.275 9.74 9.74 0 0 1 1.678-1.665c.972-.508 2.012-.869 3.088-1.07a4.42 4.42 0 0 1 2.276.193 6.157 6.157 0 0 1 2.194 1.338 8.794 8.794 0 0 1 1.777 2.386c.536 1.063.917 2.2 1.13 3.373.076.755.175 1.504.268 2.258Zm-2.94.333a12.654 12.654 0 0 0-.104-2.092 7.02 7.02 0 0 0-.696-2.219 8.638 8.638 0 0 0-1.097-1.665 4.743 4.743 0 0 0-1.185-1.02 1.484 1.484 0 0 0-.938-.278 4.691 4.691 0 0 0-2.605 1.326 6.168 6.168 0 0 0-1.37 2.17 7.678 7.678 0 0 0-.467 2.402c-.04.667-.02 1.335.06 1.998.074.482.23.948.461 1.376.22.408.52.767.882 1.053a3.34 3.34 0 0 0 1.224.611 3.254 3.254 0 0 0 1.497 0 5.965 5.965 0 0 0 2.924-1.287 5.005 5.005 0 0 0 1.415-2.375ZM61.004 33.552c.642.1 1.031.555 1.163 1.399.081.366.024.75-.16 1.076a.942.942 0 0 1-.778.433h-.62l-.982-.034-1.014-.027a6.7 6.7 0 0 0-.686 0l-.35.027a1.526 1.526 0 0 0-.319.056c-.367 0-.8 0-1.294-.039s-.976-.072-1.448-.127c-.472-.056-.9-.111-1.267-.178a1.59 1.59 0 0 1-.67-.222 8.841 8.841 0 0 1-.723-2.536l-.082-.555a4.488 4.488 0 0 1-.055-.554l-.165-2.309a3.667 3.667 0 0 0-.05-.499c-.021-.16-.043-.303-.065-.433-.022-.13-.044-.274-.066-.433a1.005 1.005 0 0 0-.12-.332v-2.076c0-.555-.055-.976-.1-1.281l-.043-.256c-.044-.3-.066-1.265-.06-2.902.051-.255.169-.492.34-.687a1.448 1.448 0 0 1 2.072-.117 2 2 0 0 1 .615 1.248c-.041.369-.063.74-.066 1.11 0 .455 0 .999.044 1.626l.044.255c0 .194.06.488.088.888.027.4.055.81.077 1.232.021.421.043.799.065 1.11.022.31.033.554.039.554.017.152.051.3.104.444.055.91.11 1.665.16 2.27.048.604.098 1.065.153 1.387.016.14.047.277.093.41 1.135 0 1.887.039 2.248 0 .17 0 .346-.027.549-.055.203-.028.367-.045.549-.056.93-.031 1.861.03 2.78.183ZM77.667 27.493c.098.684.112 1.377.044 2.064a6.641 6.641 0 0 1-.461 1.732c-.273.637-.59 1.255-.949 1.847a97.672 97.672 0 0 1-1.453 2.358 3.556 3.556 0 0 0-.587.411c-.285.233-.614.477-.976.732-.362.256-.724.494-1.097.716-.268.186-.57.314-.889.377-.46.043-.915.138-1.355.284a6.74 6.74 0 0 0-1.245.554c-1.277 0-2.062-.405-2.352-1.304 0-.105-.033-.233-.044-.382a5.825 5.825 0 0 0-.06-.483 28.702 28.702 0 0 0-.9-3.751 34.398 34.398 0 0 1-1.02-4.556 52.496 52.496 0 0 1-.477-6.18c.08-.373.295-.702.603-.922.327-.211.709-.32 1.097-.31a2.59 2.59 0 0 1 1.097.238 8.518 8.518 0 0 1 2.945-.555c.641.005 1.28.094 1.898.267.64.17 1.26.404 1.853.699a10.27 10.27 0 0 1 1.564.96c.411.285.78.63 1.096 1.02.74 1.313 1.301 2.72 1.668 4.184Zm-3.154-.815a7.203 7.203 0 0 0-.34-1 2.523 2.523 0 0 0-.548-.776 4.148 4.148 0 0 0-.922-.688 17.93 17.93 0 0 0-1.448-.721 4.599 4.599 0 0 0-.756-.244 3.755 3.755 0 0 0-.823-.084 4.434 4.434 0 0 0-.785.084l-.904.15-1.097.205c-.128.884.007 2.578.406 5.082.038.256.153.777.34 1.56.186.782.46 1.841.822 3.19.177.633.393 1.253.647 1.859.919-.408 1.8-.896 2.633-1.46.303-.209.582-.45.834-.721.421-.43.79-.911 1.096-1.431a7.728 7.728 0 0 0 .834-2.042 6.17 6.17 0 0 0 .088-2.547l-.077-.416ZM107.7 33.658l.038.222c.1.827-.08 1.664-.51 2.375a6.107 6.107 0 0 1-2.638 2.286 8.659 8.659 0 0 1-1.398.621c-.434.139-.878.26-1.328.36-.449.1-.932.19-1.436.273-.505.083-1.097.205-1.7.366l-1.684-.133a3.903 3.903 0 0 1-1.229-.361 1.774 1.774 0 0 1-.647-.588 2.236 2.236 0 0 1-.29-.832l-.176-1.11c0-.128-.039-.255-.06-.383a2.556 2.556 0 0 1-.034-.416 2.157 2.157 0 0 1-.087-.36c0-.128-.044-.278-.072-.45a29.537 29.537 0 0 1-.384-3.39 16.269 16.269 0 0 0-.148-1.887c-.043-.255-.093-.555-.148-.838a41.217 41.217 0 0 1-.175-.993 105.5 105.5 0 0 1-.137-1.953 49.663 49.663 0 0 0-.22-2.425 5.77 5.77 0 0 0-.274-.705 21.47 21.47 0 0 0-.417-.887c-.148-.294-.329-.677-.548-1.11a.974.974 0 0 1 .515-.943 2.95 2.95 0 0 1 1.821-.422 6.795 6.795 0 0 1 3.017-.488c.131.007.263.007.395 0 .226.012.45.048.669.105.336.09.665.208.981.355.458.212.895.466 1.306.76l1.519 1.182.658 1.071c.253.423.426.89.51 1.376a3.577 3.577 0 0 1-.729 2.819 11.822 11.822 0 0 1 2.972 1.753c.251.309.477.637.675.982.268.473.488.97.658 1.487.236.755.488 1.515.735 2.28Zm-3.055.45a2.546 2.546 0 0 0 0-.889 4.816 4.816 0 0 0-.598-1.714 4.54 4.54 0 0 0-1.058-1.254 4.931 4.931 0 0 0-1.371-.782 5.715 5.715 0 0 0-1.558-.356 3.155 3.155 0 0 0-.817.056c-.33.055-.67.122-1.015.2-.345.077-.658.155-.938.227-.28.072-.477.111-.581.128l.115.738c.088.555.16 1.11.203 1.52.044.41.099.899.148 1.376.05.477.12 1.021.192 1.62.071.6.165 1.332.28 2.22h.164a5.706 5.706 0 0 0 1.854-.233l2.348-.65c.289-.078.566-.198.822-.354.293-.171.568-.37.823-.594.231-.206.451-.424.658-.655.163-.167.277-.376.329-.605Zm-4.519-10.543a1.813 1.813 0 0 0-.23-.322 2.955 2.955 0 0 0-.478-.45c-.21-.162-.439-.3-.68-.41a2.461 2.461 0 0 0-.85-.21c-.943-.078-1.607.044-1.99.37a1.63 1.63 0 0 0 0 .511c.032.195.065.417.103.677.047.302.078.606.094.91.026.407.026.815 0 1.221a4.812 4.812 0 0 0-.05.949 7.518 7.518 0 0 0 3.225-.938c.796-.483 1.141-1.054 1.037-1.72a2.648 2.648 0 0 0-.066-.305c-.044-.095-.077-.2-.115-.31v.027ZM120.463 36.565c.331.098.624.298.836.573.213.275.335.61.349.959.043.174.051.355.023.533a1.315 1.315 0 0 1-.188.499.848.848 0 0 1-.801.31c-.109 0-.318-.044-.63-.105l-1.009-.189-1.037-.188a7.722 7.722 0 0 0-.702-.111l-.362-.034a1.58 1.58 0 0 0-.324 0 14.842 14.842 0 0 1-1.327-.26 39.69 39.69 0 0 1-1.497-.394 15.89 15.89 0 0 1-1.3-.422 1.877 1.877 0 0 1-.691-.35 9.304 9.304 0 0 1-.735-2.596l-.082-.555a5.936 5.936 0 0 1-.055-.555c-.049-.755-.104-1.504-.159-2.258a3.633 3.633 0 0 0-.044-.5l-.066-.433-.071-.432a1.043 1.043 0 0 0-.115-.344v-2.009c-.007-.422-.04-.842-.099-1.26 0-.088 0-.171-.038-.255a26.612 26.612 0 0 1-.05-2.824 1.2 1.2 0 0 1 .505-.713c.251-.165.555-.227.85-.175.43.043.83.24 1.13.555.344.356.565.816.63 1.31a8.402 8.402 0 0 0-.071 1.11c0 .438 0 .97.039 1.586l.038.255c.027.195.06.489.088.877.027.388.054.8.076 1.215.022.416.039.783.061 1.11.022.327.033.516.038.555.017.153.052.304.104.45.05.893.105 1.636.154 2.219.049.582.099 1.054.148 1.376.015.144.048.286.099.422 1.162.232 1.936.371 2.309.405.175 0 .358.01.548.033l.576.033c.965.114 1.918.307 2.852.577ZM137.755 35.566c-.11 1.11-.719 2.345-1.826 3.707-.221.083-.428.199-.615.344a5.6 5.6 0 0 1-.959.521c-.476.2-.973.342-1.481.422a8.748 8.748 0 0 1-2.139.066 8.09 8.09 0 0 1-4.388-1.664 11.45 11.45 0 0 1-3.252-4.317 4.086 4.086 0 0 1-.104-.45c0-.15-.044-.31-.072-.482a12.599 12.599 0 0 1-.126-3.485c.101-.887.351-1.75.741-2.552a5.692 5.692 0 0 1 1.371-1.753 6.79 6.79 0 0 1 1.766-1.11 12.135 12.135 0 0 1 3.225-.2 5.8 5.8 0 0 1 2.358.738 8.842 8.842 0 0 1 2.249 1.77c.727.799 1.34 1.697 1.82 2.67.538 1.104.924 2.278 1.147 3.49l.285 2.285Zm-3.038-.283a12.442 12.442 0 0 0-.094-2.042 7.69 7.69 0 0 0-.713-2.275 10.966 10.966 0 0 0-1.135-1.836 6.64 6.64 0 0 0-1.223-1.26 2.039 2.039 0 0 0-.971-.5 4.236 4.236 0 0 0-2.742.556 4.016 4.016 0 0 0-1.448 1.664 5.709 5.709 0 0 0-.51 2.148c-.037.648-.011 1.298.077 1.942a5.087 5.087 0 0 0 2.66 3.673 3.958 3.958 0 0 0 1.563.438 5.119 5.119 0 0 0 3.049-.494 3.505 3.505 0 0 0 1.487-2.014ZM154.664 36.066c-.11 1.11-.713 2.408-1.81 3.884a2.4 2.4 0 0 0-.603.383c-.3.214-.62.4-.955.554a6.508 6.508 0 0 1-1.464.505 8.38 8.38 0 0 1-2.122.172 7.55 7.55 0 0 1-4.361-1.448 10.9 10.9 0 0 1-3.236-4.217 3.284 3.284 0 0 1-.098-.45l-.077-.482a12.64 12.64 0 0 1-.126-3.496c.095-.909.343-1.795.735-2.619.335-.69.796-1.31 1.36-1.825a7.384 7.384 0 0 1 1.749-1.182 12.321 12.321 0 0 1 3.198-.355c.81.035 1.604.247 2.325.621a8.077 8.077 0 0 1 2.227 1.665 10.507 10.507 0 0 1 1.805 2.586 12.782 12.782 0 0 1 1.14 3.45l.313 2.254Zm-3.011-.1a12.36 12.36 0 0 0-.099-2.053 7.554 7.554 0 0 0-.729-2.286 10.319 10.319 0 0 0-1.097-1.776 6.355 6.355 0 0 0-1.212-1.204 1.942 1.942 0 0 0-.965-.45 4.35 4.35 0 0 0-2.71.683 4.308 4.308 0 0 0-1.431 1.759 5.817 5.817 0 0 0-.505 2.18 9.738 9.738 0 0 0 .077 1.954 4.816 4.816 0 0 0 1.382 2.685c.368.367.795.67 1.261.894a3.76 3.76 0 0 0 1.553.366 5.054 5.054 0 0 0 3.022-.655 3.795 3.795 0 0 0 1.453-2.114v.017ZM170.959 31.627c.101.695.12 1.399.055 2.098a7.7 7.7 0 0 1-.45 1.825 17.122 17.122 0 0 1-.921 1.992c-.389.716-.861 1.565-1.426 2.541a3.35 3.35 0 0 0-.581.466c-.28.261-.604.555-.96.816-.357.26-.719.555-1.097.799a2.333 2.333 0 0 1-.861.416 6.88 6.88 0 0 0-1.349.344c-.429.16-.844.357-1.24.588-1.278.045-2.056-.388-2.353-1.282 0-.11-.027-.238-.044-.388-.016-.15-.032-.31-.054-.483a29.587 29.587 0 0 0-.9-3.75 33.596 33.596 0 0 1-1.02-4.556 53.71 53.71 0 0 1-.483-6.181c.085-.372.302-.7.609-.921a1.97 1.97 0 0 1 1.097-.322c.377-.012.751.06 1.097.21a9.715 9.715 0 0 1 2.923-.665 7.53 7.53 0 0 1 1.876.139c.625.124 1.237.31 1.826.555a9.243 9.243 0 0 1 1.563.765c.395.25.75.559 1.053.916.96 1.859 1.509 3.207 1.64 4.078Zm-3.098-.46a7.716 7.716 0 0 0-.33-.983 2.318 2.318 0 0 0-.548-.738 3.63 3.63 0 0 0-.91-.61 13.96 13.96 0 0 0-1.432-.616 3.79 3.79 0 0 0-.746-.194 3.849 3.849 0 0 0-.817-.033c-.262.02-.523.06-.779.122-.301.072-.603.133-.899.194l-1.064.239c-.128.887.007 2.585.406 5.093.038.256.153.777.34 1.554.186.777.46 1.842.822 3.185.155.628.349 1.245.582 1.847a15.33 15.33 0 0 0 2.616-1.586c.298-.234.574-.496.823-.783.422-.468.79-.983 1.096-1.537a8.61 8.61 0 0 0 .807-2.153 6.528 6.528 0 0 0 .082-2.596l-.049-.405ZM186.162 37.02c.327.062.626.225.857.467.231.241.382.55.432.882a1.319 1.319 0 0 1-.181 1.037 2.064 2.064 0 0 1-.883.605 8.828 8.828 0 0 1-1.508.45 87.64 87.64 0 0 0-2.04.471 22.36 22.36 0 0 0-2.831.222l-.663.15c-.209.044-.411.078-.598.111-1.146.166-1.963.1-2.441-.189a43.048 43.048 0 0 1-.608-2.341 29.138 29.138 0 0 1-.395-1.987 24.354 24.354 0 0 1-.274-2.469 18.005 18.005 0 0 0-.181-1.897 10.816 10.816 0 0 0-.346-1.593c-.115-1.11-.225-2.264-.34-3.396-.038-.826-.049-1.537 0-2.13.006-.468.082-.932.225-1.376.099-.189.702-.489 1.81-.916.652-.255 1.311-.51 1.963-.777l.774-.233 1.234-.35 1.135-.316.472-.127h.126a.918.918 0 0 1 .784.338c.3.273.494.645.548 1.049.039.21.061.405.077.555a.658.658 0 0 1-.137.477 1.434 1.434 0 0 1-.587.405c-.415.163-.842.29-1.278.383a6.414 6.414 0 0 0-1.853.638h-.154a8.103 8.103 0 0 0-2.007.727c-.079.187-.113.39-.099.594 0 .271 0 .554.033.849.033.294.049.554.071.749.022.194.028.271 0 .21a3.575 3.575 0 0 0 0 .328c.009.141.026.282.049.421 0 .15.055.317.094.494.038.178.087.378.142.588a17.952 17.952 0 0 0 1.569-.466c.308-.118.625-.21.949-.277.444-.078.877-.166 1.294-.266.371-.095.753-.14 1.135-.134.306 0 .604.104.845.295.265.275.425.637.45 1.02.061.213.061.438 0 .65a1.156 1.156 0 0 1-.346.549 4.9 4.9 0 0 1-1.788.688c-1.009.228-1.612.372-1.821.45a4.067 4.067 0 0 1-.395.05l-.466.06c-.104 0-.225.034-.367.045a2.922 2.922 0 0 0-.395.06.673.673 0 0 0-.318.178.494.494 0 0 0-.077.428c0 .127.049.294.093.493.044.2.077.389.105.555.027.167.076.516.104.772.027.255.06.554.098.826.039.272.072.622.121.983.049.36.104.798.187 1.287.262-.012.524-.04.784-.083l1.185-.123c.416-.05.817-.094 1.201-.127.384-.033.641-.056.773-.056l.433-.116a53.26 53.26 0 0 0 1.19-.328 24.84 24.84 0 0 1 1.684-.443l.351-.073ZM201.283 24.547c.1.72.121 1.45.06 2.175a9.607 9.607 0 0 1-.416 2.014 24.524 24.524 0 0 1-.883 2.336c-.368.844-.818 1.848-1.355 3.002a5.239 5.239 0 0 0-.549.627c-.268.344-.581.705-.921 1.11-.34.405-.686.743-1.031 1.11-.236.262-.517.48-.828.643-.45.183-.883.406-1.295.666-.419.268-.818.567-1.195.893-1.229.339-1.991.061-2.276-.804 0-.106-.033-.233-.044-.389a5.448 5.448 0 0 0-.061-.488 27.463 27.463 0 0 0-.888-3.679c-.44-1.47-.777-2.97-1.009-4.488a55.203 55.203 0 0 1-.472-6.36c.078-.42.279-.806.576-1.109a2.338 2.338 0 0 1 1.048-.555c.351-.09.718-.09 1.069 0 .86-.6 1.8-1.072 2.792-1.404a6.993 6.993 0 0 1 1.804-.316c.589-.03 1.18.008 1.761.111.511.089 1.01.24 1.486.45.38.157.726.387 1.02.676a13.128 13.128 0 0 1 1.607 3.78Zm-2.978.327a6.737 6.737 0 0 0-.324-.937 1.738 1.738 0 0 0-.537-.633 2.596 2.596 0 0 0-.878-.405c-.454-.124-.916-.22-1.382-.288a3.46 3.46 0 0 0-.718 0 3.912 3.912 0 0 0-.785.166 4.8 4.8 0 0 0-.751.31c-.291.145-.581.278-.866.406-.286.127-.686.333-1.026.5-.117.946.024 2.672.422 5.176.039.26.148.771.335 1.537.186.766.455 1.798.811 3.107.15.609.343 1.206.576 1.787a19.909 19.909 0 0 0 2.523-2.308c.29-.315.554-.653.79-1.01a11.883 11.883 0 0 0 1.799-4.29 7.554 7.554 0 0 0 .066-2.718l-.055-.4Z" fill="#101820"/><path d="M254.801 56.595c2.814 4.545 4.651 9.927 3.96 15.337a31.62 31.62 0 0 1-1.289 5.415c-2.386-.5-4.645-1.237-6.581-2.852-1.514-1.293-3.198-2.463-4.536-3.962a6.12 6.12 0 0 1-1.552-5.549c.625-2.73 3.29-5.137 4.684-7.473a19.906 19.906 0 0 1 3.186-3.956 32.75 32.75 0 0 1 2.128 3.04Z" fill="#BE80FF"/><path d="M76.499 83.784c1.832-.05 3.74-.2 5.485.111 1.617.301 3.202.758 4.733 1.365 3.362 1.282 5.621 5.066 6.033 8.606.548 4.556-.642 9.472-2.83 13.45-1.783 3.235-3.406 6.719-5.704 9.627a70.922 70.922 0 0 1-8.814 9.116 37.768 37.768 0 0 1-5.54 4.123 49.11 49.11 0 0 1-19.744 6.719c-7.755.944-15.357.056-22.903-1.947-4.887-1.276-9.116-4.561-12.406-8.445-3.05-3.635-4.695-7.818-5.869-12.379-1.261-4.85-1.322-10.132-1.13-15.131.127-3.163.834-6.32 1.339-9.433.504-3.113 1.097-6.181 2.418-9 2.902-6.27 5.704-12.873 10.53-17.922a95.073 95.073 0 0 1 7.597-7.086 30.084 30.084 0 0 1 6.954-4.51 41.943 41.943 0 0 1 9.324-2.936c3.351-.555 6.466-1.87 9.872-2.286a19.065 19.065 0 0 1 6.543.427c1.392.325 2.76.742 4.097 1.249 1.552.582 3.423 1.11 4.618 2.32 1.196 1.209 2.518 3.095 2.742 4.91a4.418 4.418 0 0 1-.334 2.053 7.221 7.221 0 0 1-2.616 4.106c-1.59 1.254-3.576 2.008-5.413 2.863-1.98.932-4.004 1.62-6.033 2.436-2.03.815-4.235 1.736-5.644 3.506-.549.65-.993 1.354-1.459 2.042a6.145 6.145 0 0 0-.9 2.27c-.91 3.179 1.405 6.708 4.344 7.962a16.858 16.858 0 0 0 4.668 1.398c.777-.002 1.553.04 2.325.128.674.199 1.371.305 2.073.316h10.75l.894-.028Z" fill="#34CC34"/><path d="M132.807 57.1a27.653 27.653 0 0 1 3.499 8.717c.444 2.565.641 5.166.587 7.769 0 2.724.22 5.293-.795 7.856-1.059 2.658-1.7 5.36-3.428 7.685-1.563 2.103-3.291 4.1-4.826 6.181a19.58 19.58 0 0 1-2.496 2.864c-.992.91-2.106 1.587-3.153 2.424-.889.705-1.646 1.415-2.616 2.048-.718.453-1.396.969-2.024 1.542 2.484 1.437 5.194 2.153 7.294 4.267a20.768 20.768 0 0 1 3.538 4.95 14.89 14.89 0 0 1 2.111 8.322c-.087 1.227-.312 2.436-.477 3.651a7.086 7.086 0 0 1-1.919 3.679 23.867 23.867 0 0 1-4.531 3.712c-2.166 1.448-5.067 2.697-7.716 2.619-1.761-.044-3.05.616-4.849.111-1.398-.388-2.841-.843-3.96-1.836-1.294-1.143-2.775-2.003-3.729-3.468-1.037-1.609-1.903-3.329-2.847-4.994-.444-.771-.921-3.368-1.508-3.551-.411 2.219-1.876 4.3-3.29 6.031a21.413 21.413 0 0 1-2.502 2.774c-1.557 1.321-3.51 2.037-5.407 2.664-1.755.555-3.467 1.404-5.282 1.748-6.247 1.198-10.547-2.397-12.582-4.689a37.757 37.757 0 0 0 5.54-4.123 70.916 70.916 0 0 0 8.814-9.116c2.297-2.907 3.921-6.392 5.703-9.627 2.194-3.978 3.379-8.878 2.83-13.45-.422-3.54-2.681-7.324-6.032-8.606a25.473 25.473 0 0 0-4.734-1.365c-1.755-.31-3.663-.16-5.484-.11.417-2.22.921-4.994 1.245-6.853.987-5.726 2.084-11.541 4.936-16.646a56.192 56.192 0 0 1 7.876-10.51c2.643-2.89 6.126-5.664 9.921-6.824a32.847 32.847 0 0 1 6.642-1.282c1.097-.083 2.194-.055 3.252-.044 1.525 0 2.803.433 4.284.732 5.325 1.11 10.969 4.506 14.227 8.923a62.629 62.629 0 0 1 3.888 5.826ZM154.664 93.816c1.387-1.237 2.709-2.402 4.053-3.69a45.513 45.513 0 0 0 3.74-4.439 35.905 35.905 0 0 0 3.878-5.426c1.036-1.914 1.705-4.117 2.506-6.142.801-2.026 1.854-3.84 2.029-5.949.083-.904.45-1.842.33-2.774-.121-.932-.291-1.859-.428-2.774a16.221 16.221 0 0 0-1.925-5.227c-.061-.128-.137-.255-.209-.377a21.389 21.389 0 0 1 3.351-2.27c1.805-1.11 3.401-2.341 5.331-3.273 2.095-1.01 4.306-1.399 6.521-2.059 6.423-1.898 14.886-3.412 20.112 1.959 1.01 1.043 2.326 2.008 2.94 3.329v.033a13.531 13.531 0 0 1 1.185 4.567c.049 1.625.066 3.279 0 4.905-.055 2.258-1.097 4.871-2.062 6.891-2.128 4.517-5.315 8.39-8.661 12.068a31.175 31.175 0 0 1-5.945 5.055c-.899.555-4.223 2.89-4.223 2.89s3.132-.338 3.812-.343c1.7 0 3.323-.588 5.035-.45 3.603.317 6.06 4.007 4.7 7.336a12.266 12.266 0 0 1-2.742 3.784c-.911.91-1.728 2.053-2.907 2.552-1.47.633-3.137.822-4.574 1.51-.735.36-1.36.86-2.128 1.17-.626.25-1.574.267-2.035.816.636.233 1.464.15 2.144.277.912.137 1.813.336 2.699.594a21.46 21.46 0 0 1 5.089 2.475 9.093 9.093 0 0 1 3.105 4.172c.949 2.22.548 4.14-.631 6.17-1.179 2.031-3.115 3.546-5.09 4.789-.471.3-.927.555-1.387.838a29.19 29.19 0 0 1-5.606 2.663c-1.881.616-3.718.505-5.66.716a37.434 37.434 0 0 1-5.172.344 23.793 23.793 0 0 1-4.996-.844c-2.013-.466-4.053-.826-6.071-1.254-.324-.077-.79-.205-1.295-.36.247-.205.505-.4.752-.605 3.839-3.068 7.936-8.645 3.406-12.978-1.097-1.06-2.468-1.948-3.993-1.987-.993-.038-1.887-.394-2.869-.438-.981-.044-3.049-.055-3.049-.055s2.435-1.471 3.154-2.07a23.604 23.604 0 0 0 3.29-2.958c.955-1.154 2.052-2.419 2.287-3.884.201-.699.318-1.42.351-2.147a9.85 9.85 0 0 0-.751-1.942c-1.097-2.89-5.315-2.475-7.794-2.475-1.349 0-7.091-.06-7.091-.06s3.033-2.237 3.494-2.653Z" fill="#34CC34"/><path d="M163.467 128.056c-.932.733-1.876 1.46-2.858 2.126-1.491 1.015-3.427 1.47-5.089 2.136a28.174 28.174 0 0 1-9.565 1.859c-3.839.105-8.227.554-11.852-1.021a21.795 21.795 0 0 1-4.328-2.619c-.258-.189-.938-.799-1.673-1.482a7.08 7.08 0 0 0 1.92-3.679c.165-1.215.389-2.424.477-3.651a14.896 14.896 0 0 0-2.111-8.323 20.783 20.783 0 0 0-3.538-4.949c-2.1-2.114-4.81-2.83-7.294-4.267a14.518 14.518 0 0 1 2.007-1.537c.954-.632 1.728-1.343 2.616-2.047 1.048-.838 2.161-1.515 3.154-2.425.921-.87 1.757-1.83 2.495-2.863 1.552-2.08 3.291-4.078 4.827-6.181 1.727-2.325 2.369-5.027 3.428-7.685 1.014-2.564.789-5.133.795-7.857a40.674 40.674 0 0 0-.587-7.768 27.676 27.676 0 0 0-3.499-8.717c.2-.196.41-.382.63-.555 3.763-3.096 8.271-4.855 12.845-6.264 4.574-1.41 9.741-1.914 14.074.405 1.645.877 3.51 1.387 4.974 2.547a13.385 13.385 0 0 1 3.324 3.823c.071.122.148.25.208.377a16.197 16.197 0 0 1 1.925 5.227c.137.91.302 1.859.428 2.774.126.916-.247 1.848-.329 2.774-.175 2.109-1.256 3.995-2.029 5.949-.774 1.953-1.47 4.228-2.507 6.142a35.828 35.828 0 0 1-3.877 5.426 45.512 45.512 0 0 1-3.741 4.44c-1.343 1.287-2.665 2.452-4.053 3.69-.477.415-3.526 2.63-3.526 2.63s5.742.06 7.091.06c2.479 0 6.68-.416 7.794 2.475.318.618.57 1.269.751 1.942a9.349 9.349 0 0 1-.351 2.147c-.236 1.476-1.333 2.741-2.287 3.884a23.612 23.612 0 0 1-3.291 2.958c-.718.599-3.153 2.069-3.153 2.069s2.045 0 3.049.056c1.004.055 1.876.399 2.869.438 1.524.039 2.873.927 3.992 1.987 4.531 4.333.423 9.909-3.406 12.978-.208.172-.482.366-.729.571ZM196.034 90.337c-1.711-.14-3.335.427-5.035.449-.68 0-3.812.344-3.812.344s3.324-2.32 4.223-2.89a31.134 31.134 0 0 0 6-5.011c3.346-3.679 6.532-7.552 8.661-12.069.959-2.02 2.007-4.633 2.062-6.89.044-1.627.027-3.28 0-4.906a13.53 13.53 0 0 0-1.185-4.566 51.154 51.154 0 0 1 2.232-2.026 51.679 51.679 0 0 1 8.507-5.798 42.81 42.81 0 0 1 4.985-2.375c2.046-.788 4.212-.982 6.357-1.326 2.09-.31 4.221-.168 6.252.416 2.43.644 4.865 1.154 7.212 2.036 2.841 1.05 5.183 2.298 7.317 4.49a35.64 35.64 0 0 1 2.89 3.329 19.905 19.905 0 0 0-3.186 3.956c-1.415 2.336-4.059 4.744-4.684 7.474a6.132 6.132 0 0 0 .082 2.973 6.076 6.076 0 0 0 1.47 2.575c1.338 1.498 3.022 2.67 4.536 3.962 1.914 1.615 4.173 2.353 6.581 2.852a67.997 67.997 0 0 1-1.689 4.733 39.067 39.067 0 0 1-4.777 8.878 31.043 31.043 0 0 1-13.004 10.664c-4.388 1.97-9.675 3.485-14.523 3.513-1.426 0-4.042-.783-4.086 1.193-.104 4.311-1.382 8.667-2.194 12.906-.762 3.856-2.095 7.435-5.303 9.826-1.481 1.11-3.637 1.698-5.408 2.148-1.772.449-3.532.804-5.293.427-1.563-.339-3.252-.893-4.448-1.964a15.563 15.563 0 0 1-3.06-3.607.28.28 0 0 1-.044-.1c1.974-1.243 3.921-2.774 5.09-4.788 1.168-2.014 1.579-3.94.63-6.17a9.096 9.096 0 0 0-3.104-4.173 21.466 21.466 0 0 0-5.09-2.475 20.576 20.576 0 0 0-2.698-.593c-.68-.128-1.508-.045-2.144-.278.46-.555 1.409-.555 2.034-.815.768-.311 1.393-.811 2.128-1.171 1.437-.688 3.105-.877 4.574-1.509 1.18-.5 1.997-1.665 2.907-2.553a12.284 12.284 0 0 0 2.743-3.784c1.354-3.318-1.103-7.008-4.706-7.308Z" fill="#34CC34"/><path d="M309.499 59.664c4.887 8.495-1.047 20.53-6.532 27.144a68.436 68.436 0 0 1-6.099 6.436c-2.045 1.926-4.124 4.045-6.4 5.693a60.755 60.755 0 0 1-5.726 3.529c-1.047.588-2.94 1.071-3.417 2.281 1.278.898 3.143 1.254 4.613 1.664a47.509 47.509 0 0 1 6.033 2.336c2.029.921 5.04 2.12 6.219 4.184.927 1.631.357 4.067-.422 5.659-2.09 4.245-6.307 6.348-10.519 7.768-3.346 1.11-6.692 2.22-10.229 2.453-3.077.211-6.165.455-9.22.743-1.618.156-3.548-.26-5.177-.427a14.999 14.999 0 0 1-3.417-.704c-2.435-.888-5.106-1.87-7.294-3.291a8.85 8.85 0 0 1-3.445-4.1 7.89 7.89 0 0 1-.373-5.299c.329-1.498.45-2.841 1.185-4.212.85-1.57 1.36-3.29 2.314-4.805.845-1.326 1.646-2.591 2.436-3.967 1.283-2.297 2.89-4.2 4.48-6.275a75.912 75.912 0 0 1 5.161-6.032c1.306-1.381 2.403-2.98 3.84-4.239 2.281-2.025 7.086-6.791 7.086-6.791l-1.887-.1c-1.229-.084-2.293-.466-3.554-.439-3.417.072-7.201-.671-10.563-1.32-.379-.072-.757-.15-1.125-.233a31.528 31.528 0 0 0 1.289-5.416c.691-5.41-1.146-10.792-3.96-15.336a32.529 32.529 0 0 0-2.106-3.03 19.88 19.88 0 0 1 8.074-4.71c.071 0 .148-.04.214-.067.767-.217 1.552-.383 2.32-.555.855-.21 1.672-.555 2.517-.755a6.45 6.45 0 0 1 2.484-.083c.89.122 1.792.122 2.682 0 6.9-.882 13.712.183 20.562.844 3.527.344 7.459 1.276 10.486 3.245 3.253 2.092 5.534 4.833 7.47 8.207Z" fill="#34CC34"/><path d="M16.453 93.306c.148-.832.296-1.665.428-2.475.39-2.447.872-4.96 1.782-6.925l.735-1.598c2.48-5.398 4.821-10.498 8.331-14.176a85.247 85.247 0 0 1 6.988-6.509 22.216 22.216 0 0 1 4.996-3.285 34.123 34.123 0 0 1 7.563-2.424 51.86 51.86 0 0 0 5.189-1.238 31.91 31.91 0 0 1 4.31-.993c.345-.04.69-.06 1.037-.06.972.014 1.94.135 2.885.36M52.75 89.266c2.16.98 4.449 1.64 6.795 1.958.546.065 1.096.094 1.646.09h.28c1.076.273 2.18.412 3.29.415h11.913l1.096-.039c.549 0 1.097-.038 1.646-.038a8.53 8.53 0 0 1 1.25.072M104.667 105.823l9 5.227c1.097.649 2.194 1.149 3.115 1.587.915.365 1.78.848 2.573 1.437a13.442 13.442 0 0 1 2.243 3.246c.282.501.524 1.025.724 1.565M93.648 58.21a80.486 80.486 0 0 1 2.65-3.046c9.713-10.603 23.517-4.722 29.792 5.97a19.745 19.745 0 0 1 2.55 6.204c.339 2.058.488 4.144.444 6.23v1.427M177.699 112.72l5.978 2.186a11.56 11.56 0 0 0 3.472.649h.077c.263.056.548.1.784.144M180.693 58.627c1.032-.437 2.1-.779 3.192-1.021a76.285 76.285 0 0 0 2.194-.6 28.986 28.986 0 0 1 7.958-1.425 7.569 7.569 0 0 1 3.368.616M187.68 98.106l-.548.238c-.702.35-1.212.66-1.58.888h-.038a9.63 9.63 0 0 0-5.156 3.118M146.102 119.895h11.61M145.801 104.314l6.664.078M142.79 59.953a45.84 45.84 0 0 1 5.775-2.142 16.894 16.894 0 0 1 4.936-.849 6.769 6.769 0 0 1 3.209.683c.877.471 1.695.826 2.413 1.11.484.191.956.412 1.415.66.55.424 1.014.951 1.366 1.553l.098.183c.482.815.84 1.698 1.064 2.62.061.427.269 1.697.308 1.936-.119.55-.205 1.105-.258 1.665a12.385 12.385 0 0 1-.768 1.997c-.252.555-.505 1.16-.74 1.748-.236.588-.5 1.315-.746 1.98M218.604 55.553c.893-.555 1.815-1.11 2.775-1.665a34.555 34.555 0 0 1 4.08-1.93 17.85 17.85 0 0 1 3.395-.694c.466-.067.933-.133 1.393-.211.289-.045.58-.067.872-.067.743.018 1.48.132 2.194.339l1.909.482c1.534.352 3.048.788 4.535 1.304M257.444 112.637a13.81 13.81 0 0 1 .757-1.604l.247-.394c.784-1.232 1.596-2.502 2.397-3.928a33.56 33.56 0 0 1 2.896-4.09c.323-.41.641-.821.965-1.242a66.144 66.144 0 0 1 4.645-5.421c.664-.71 1.251-1.41 1.766-2.031M269.686 55.347a17.94 17.94 0 0 0 2.193-.139 36.418 36.418 0 0 1 4.651-.277c3.528.07 7.051.326 10.553.766 1.228.127 2.457.26 3.691.377 2.906.283 5.484 1.021 7.003 2.025.476.305.93.643 1.361 1.01" stroke="#8DFF1F" stroke-width="4.018" stroke-linecap="round" stroke-linejoin="round"/><path d="M7.82 98.981c-.191 4.994-.125 10.282 1.098 15.137 1.206 4.561 2.846 8.739 5.89 12.39 3.247 3.884 7.503 7.18 12.412 8.484 7.53 1.998 15.143 2.891 22.898 1.942 9.11-1.11 18.335-4.627 25.295-10.836a71.677 71.677 0 0 0 8.802-9.122c2.298-2.908 3.922-6.398 5.704-9.627 2.194-3.979 3.384-8.878 2.836-13.456-.428-3.54-2.682-7.313-6.033-8.6A26.574 26.574 0 0 0 82 83.923c-2.052-.356-4.317-.09-6.395-.09-3.587 0-7.174-.033-10.756 0a7.548 7.548 0 0 1-2.073-.321 21.739 21.739 0 0 0-2.325-.122 16.694 16.694 0 0 1-4.662-1.393c-2.94-1.26-5.254-4.788-4.35-7.968.148-.81.456-1.582.906-2.27.466-.687.932-1.397 1.453-2.047 1.41-1.764 3.581-2.663 5.638-3.5 2.057-.839 4.031-1.505 6.033-2.431 1.832-.86 3.84-1.61 5.413-2.869a7.221 7.221 0 0 0 2.617-4.1 4.39 4.39 0 0 0 .323-2.059c-.208-1.814-1.48-3.65-2.742-4.91-1.262-1.26-3.077-1.743-4.624-2.32a30.494 30.494 0 0 0-4.102-1.242 18.867 18.867 0 0 0-6.532-.428c-3.406.416-6.521 1.704-9.872 2.28a41.943 41.943 0 0 0-9.324 2.936 30.02 30.02 0 0 0-6.955 4.5 95.914 95.914 0 0 0-7.596 7.08c-4.826 5.06-7.629 11.652-10.52 17.911-1.304 2.824-1.924 5.943-2.418 9" stroke="#101820" stroke-width="1.674" stroke-linecap="round" stroke-linejoin="round"/><path d="M107.13 41.693c1.096-.084 2.193-.056 3.257-.045 1.525 0 2.803.433 4.278.738 5.326 1.11 10.969 4.506 14.26 8.917 3.187 4.294 6.373 9.133 7.41 14.52.441 2.565.639 5.166.592 7.769 0 2.73.219 5.287-.801 7.857-1.02 2.569-1.7 5.36-3.427 7.684-1.564 2.098-3.291 4.106-4.827 6.182a19.006 19.006 0 0 1-2.495 2.863c-.993.915-2.106 1.592-3.159 2.424-.889.711-1.646 1.415-2.606 2.048a15.01 15.01 0 0 0-2.023 1.537c2.473 1.443 5.182 2.164 7.289 4.267a20.868 20.868 0 0 1 3.537 4.96 14.866 14.866 0 0 1 2.112 8.323c-.088 1.226-.313 2.442-.478 3.657-.422 3.146-4.014 5.754-6.449 7.385-2.161 1.454-5.074 2.697-7.712 2.63-1.771-.05-3.049.61-4.853.111-1.399-.394-2.841-.855-3.955-1.842-1.3-1.143-2.775-2.003-3.729-3.468-1.048-1.609-1.903-3.329-2.852-4.994-.439-.766-.916-3.362-1.514-3.545-.411 2.219-1.87 4.305-3.29 6.037a22.215 22.215 0 0 1-2.502 2.774c-1.557 1.315-3.51 2.036-5.407 2.663-1.761.555-3.467 1.404-5.288 1.754-9.005 1.72-13.941-6.465-13.941-6.465M75.813 87.502s1.31-6.964 1.93-10.543c.987-5.72 2.084-11.546 4.936-16.646a56.433 56.433 0 0 1 7.876-10.509c2.649-2.89 6.132-5.66 9.922-6.825" stroke="#101820" stroke-width="1.674" stroke-linecap="round" stroke-linejoin="round"/><path d="M132.808 57.1c.231-.233.45-.438.631-.588 3.762-3.09 8.265-4.85 12.845-6.264 4.58-1.415 9.74-1.909 14.079.41 1.645.872 3.499 1.393 4.963 2.547a13.426 13.426 0 0 1 3.543 4.206 16.208 16.208 0 0 1 1.92 5.216c.137.921.302 1.864.428 2.774.126.91-.253 1.853-.329 2.775-.181 2.108-1.262 3.995-2.03 5.948-.767 1.953-1.47 4.228-2.506 6.148a36.267 36.267 0 0 1-3.878 5.42 45.585 45.585 0 0 1-3.74 4.44c-1.344 1.292-2.66 2.463-4.053 3.69-.472.421-3.527 2.635-3.527 2.635s5.743.061 7.097.061c2.474 0 6.675-.41 7.783 2.48.321.615.573 1.265.751 1.937a9.695 9.695 0 0 1-.345 2.147c-.236 1.476-1.333 2.774-2.282 3.884a24.475 24.475 0 0 1-3.291 2.957c-.718.6-3.153 2.065-3.153 2.065s2.045 0 3.055.061c1.009.061 1.875.405 2.863.432 1.519.045 2.873.933 3.992 1.998 4.536 4.322.428 9.904-3.4 12.967-1.179.943-2.364 1.887-3.614 2.736-1.492 1.015-3.434 1.47-5.09 2.141a28.304 28.304 0 0 1-9.571 1.854c-3.839.105-8.226.554-11.846-1.021a21.848 21.848 0 0 1-4.328-2.614c-.652-.488-4.201-3.884-4.201-3.884" stroke="#101820" stroke-width="1.674" stroke-linecap="round" stroke-linejoin="round"/><path d="M164.816 60.901c1.206-1.226 2.391-2.485 3.63-3.684a19.75 19.75 0 0 1 3.56-2.458c1.804-1.11 3.4-2.342 5.325-3.268 2.101-1.016 4.317-1.404 6.532-2.064 6.412-1.898 14.875-3.418 20.101 1.959 1.015 1.043 2.326 2.008 2.94 3.329a13.25 13.25 0 0 1 1.207 4.6c.049 1.625.06 3.284 0 4.904-.061 2.264-1.097 4.872-2.057 6.886-2.133 4.522-5.325 8.395-8.666 12.074a31.03 31.03 0 0 1-5.978 5.044c-.894.555-4.217 2.885-4.217 2.885s3.126-.327 3.811-.338c1.695 0 3.33-.588 5.035-.444 3.598.305 6.055 4 4.695 7.33a12.264 12.264 0 0 1-2.742 3.784c-.911.904-1.728 2.053-2.907 2.558-1.464.627-3.137.81-4.574 1.503-.735.355-1.36.86-2.128 1.171-.625.25-1.574.272-2.035.816.636.233 1.464.144 2.144.283.912.132 1.814.329 2.699.588a20.94 20.94 0 0 1 5.084 2.48 9.068 9.068 0 0 1 3.11 4.167c.949 2.22.548 4.139-.631 6.176-1.431 2.502-4.064 4.217-6.483 5.62a28.95 28.95 0 0 1-5.599 2.669c-1.887.611-3.719.5-5.655.711a37.754 37.754 0 0 1-5.183.349 24.51 24.51 0 0 1-4.985-.849c-2.019-.466-4.059-.827-6.083-1.259-1.365-.289-5.035-1.609-5.035-1.609" stroke="#101820" stroke-width="1.674" stroke-linecap="round" stroke-linejoin="round"/><path d="M255.783 82.081c1.207-3.146 2.55-6.797 2.978-10.148.686-5.41-1.152-10.793-3.954-15.331a37.417 37.417 0 0 0-5.008-6.387c-2.128-2.22-4.47-3.434-7.311-4.494a73.545 73.545 0 0 0-7.201-2.025 14.642 14.642 0 0 0-6.258-.417c-2.15.339-4.321.555-6.362 1.332a41.408 41.408 0 0 0-4.996 2.347 51.482 51.482 0 0 0-8.518 5.804c-1.206 1.01-2.363 2.158-3.51 3.252a28.252 28.252 0 0 0-1.919 2.219M193.648 125.953a.848.848 0 0 0 .05.1 15.603 15.603 0 0 0 3.055 3.601 9.763 9.763 0 0 0 4.448 1.964c1.766.378 3.592 0 5.292-.432 1.7-.433 3.938-1.038 5.419-2.142 3.203-2.392 4.536-5.965 5.293-9.821.833-4.239 2.111-8.601 2.193-12.917.044-1.965 2.671-1.182 4.092-1.188 4.848-.033 10.119-1.542 14.529-3.512a31.017 31.017 0 0 0 12.97-10.665" stroke="#101820" stroke-width="1.674" stroke-linecap="round" stroke-linejoin="round"/><path d="M296.868 93.25a69.53 69.53 0 0 0 6.104-6.442c5.484-6.659 11.419-18.65 6.527-27.144-1.936-3.368-4.218-6.104-7.47-8.218-3.028-1.964-6.96-2.902-10.492-3.234-6.873-.66-13.657-1.732-20.562-.855-.89.12-1.792.12-2.682 0a6.115 6.115 0 0 0-2.479.083c-.845.222-1.645.555-2.512.75-.866.194-1.557.36-2.325.554l-.214.061a20.033 20.033 0 0 0-11.249 8.706c-1.421 2.336-4.07 4.744-4.695 7.474a6.174 6.174 0 0 0 .088 2.971c.27.968.774 1.854 1.464 2.578 1.35 1.492 3.028 2.668 4.547 3.956 2.194 1.87 4.887 2.558 7.678 3.096 3.357.644 7.13 1.393 10.564 1.315 1.261-.028 2.325.35 3.554.433l1.886.1s-4.804 4.777-7.086 6.797c-1.426 1.26-2.517 2.857-3.839 4.239a74.991 74.991 0 0 0-5.172 6.031c-1.579 2.075-3.192 3.984-4.481 6.27-.773 1.376-1.59 2.641-2.429 3.973-.955 1.515-1.459 3.235-2.315 4.811-.74 1.365-.855 2.713-1.19 4.205a7.957 7.957 0 0 0 .384 5.299 8.801 8.801 0 0 0 3.439 4.101c2.194 1.415 4.859 2.408 7.294 3.285 1.109.371 2.258.61 3.423.71 1.645.172 3.548.588 5.166.433 3.066-.3 6.148-.555 9.231-.755 3.532-.244 6.872-1.321 10.223-2.452 4.217-1.426 8.429-3.529 10.514-7.769.778-1.586 1.354-4.028.422-5.665-1.174-2.058-4.19-3.262-6.214-4.178a47.509 47.509 0 0 0-6.033-2.336c-1.47-.433-3.335-.788-4.613-1.664.478-1.215 2.375-1.693 3.423-2.281a60.735 60.735 0 0 0 5.715-3.529M107.162 71.344l-1.673 11.968M227.445 68.292l-.911 14.887" stroke="#101820" stroke-width="1.674" stroke-linecap="round" stroke-linejoin="round"/></g><defs><clipPath id="a"><path fill="#fff" d="M0 0h312v138H0z"/></clipPath></defs></svg>