<svg width="96" height="96" viewBox="0 0 96 96" fill="none" xmlns="http://www.w3.org/2000/svg">
<g clip-path="url(#clip0_275:37463)">
<path d="M64.0755 48.5408C64.341 49.0148 64.1608 49.2234 63.5208 49.8966C62.8808 50.5698 61.7905 51.5796 60.5579 52.6273C59.4904 53.5815 58.3348 54.4323 57.1066 55.1683C52.1146 57.8042 49.7158 57.9464 46.5727 57.7615C45.6572 57.6946 44.7477 57.5615 43.8515 57.3633C39.7792 56.4151 35.4177 53.0445 32.5211 49.9772C32.047 49.5031 31.8242 49.2092 31.8242 48.9343C31.8261 48.8413 31.8505 48.7502 31.8953 48.6688C32.0769 48.3838 32.297 48.1253 32.5496 47.9008C34.3131 46.0282 36.2873 44.3658 38.4328 42.9467C40.924 41.4271 43.6926 40.4183 46.5774 39.979C48.8719 39.576 53.6885 40.4293 57.0687 42.7286C59.6145 44.4542 61.6056 45.5731 63.573 47.896C63.7577 48.0969 63.9258 48.3125 64.0755 48.5408Z" fill="#8DFF1F"/>
<path d="M32.5406 47.9002C32.2881 48.1247 32.0679 48.3832 31.8864 48.6682L31.8105 48.6255C32.4221 47.4925 33.0526 46.3736 33.7495 45.2785C36.2811 41.339 38.4239 37.096 41.0076 33.1896C42.9039 30.2978 44.3261 27.2021 46.156 24.2676C46.4547 23.7935 47.3412 21.9256 48.0523 21.9209C49.0005 21.9209 50.1288 24.7938 50.4985 25.4812C51.9208 28.1645 53.5231 30.7814 55.0781 33.403C56.1969 35.2993 57.5623 37.0249 58.6289 38.9354C60.4209 42.1496 62.3551 45.288 64.1614 48.4928L64.076 48.5402C63.9263 48.312 63.7583 48.0963 63.5735 47.8954C61.6061 45.5962 59.615 44.4536 57.0692 42.728C53.6843 40.4288 48.8725 39.5754 46.578 39.9784C43.6932 40.4177 40.9246 41.4265 38.4334 42.9461C36.2846 44.3646 34.3072 46.027 32.5406 47.9002Z" fill="#33CC33"/>
<path d="M94.5928 39.1962C95.1516 42.0362 95.4232 44.9252 95.4035 47.8196C95.3779 49.8123 95.1636 51.7981 94.7635 53.7503C94.0856 57.0688 93.6968 60.4158 92.7155 63.6395C89.6577 73.7373 82.0156 82.0431 73.4539 87.9263C69.3342 90.7708 64.8447 92.5248 60.0328 93.7906C57.5202 94.4496 54.9839 95.1559 52.3813 95.3456C49.6951 95.4723 47.0031 95.3134 44.3505 94.8715C33.058 93.2502 24.245 90.3962 15.8491 82.427C14.6592 81.294 13.3555 80.2747 12.1893 79.1085C11.023 77.9423 10.1508 76.4964 9.21208 75.1642C6.56675 71.419 3.87401 67.4463 2.57505 63.009C2.22423 61.8333 1.91608 60.6386 1.6269 59.4581C0.95525 56.8072 0.625464 54.0813 0.645567 51.3467C0.645567 48.654 0.60764 45.947 0.80201 43.259C1.02408 40.6583 1.54749 38.0922 2.36171 35.6122C4.63727 28.1598 7.26838 22.6937 12.3173 16.7204C14.7025 13.8054 17.4182 11.1772 20.4097 8.88867C28.6444 2.83 39.6145 0.355341 49.7217 0.597119C58.4684 0.786748 66.6414 4.13371 73.9469 8.77015C75.445 9.7183 77.109 10.5858 78.498 11.6952C80.309 13.1411 81.9635 14.843 83.6749 16.4075C89.9896 22.177 93.0758 30.99 94.5928 39.1962ZM90.5205 52.2712C90.6959 49.8534 90.6722 47.4167 90.6628 44.9942C90.6779 42.5347 90.3817 40.0832 89.781 37.6982C89.5013 36.6315 89.2263 35.5553 88.9087 34.4982C87.7188 30.5065 85.2962 26.913 82.9116 23.5613C82.1227 22.3028 81.2265 21.1148 80.2331 20.0105C79.1854 18.9722 78.0097 18.0525 76.9146 17.0333C69.3816 9.84156 61.4503 7.27208 51.2767 5.81193C48.8903 5.41407 46.4684 5.27103 44.0518 5.38526C41.7099 5.55592 39.4248 6.19118 37.1635 6.80748C32.8352 7.94526 28.7913 9.53815 25.0888 12.0839C17.3899 17.3604 10.5063 24.8318 7.75668 33.9198C6.87964 36.8258 6.52883 39.8599 5.91727 42.8229C5.55589 44.5799 5.36223 46.3673 5.3389 48.161C5.32539 50.7656 5.56994 53.3652 6.06897 55.9216C7.43431 63.3029 10.2124 71.2342 15.9155 76.449C17.461 77.8712 18.9448 79.3882 20.5804 80.6872C21.8971 81.6376 23.2645 82.516 24.6764 83.3183C31.247 87.4902 38.5999 90.5053 46.4838 90.6759C55.5813 90.8751 65.4468 88.6659 72.866 83.214C75.5568 81.1527 78.0003 78.7871 80.1478 76.1645C84.7084 70.7885 87.0788 65.8676 89.1268 59.1642C89.8556 56.928 90.3233 54.6149 90.5205 52.2712Z" fill="#33CC33"/>
<path d="M31.8379 48.9526C31.8379 49.2276 32.0702 49.5073 32.5348 49.9956C35.4314 53.0628 39.7928 56.4145 43.8651 57.3817C44.7614 57.5799 45.6708 57.713 46.5863 57.7799C49.7294 57.9648 52.1283 57.8225 57.1203 55.1867C58.3484 54.4507 59.504 53.5999 60.5715 52.6456C61.8041 51.5979 62.9419 50.5171 63.5345 49.915C64.1271 49.3129 64.3546 49.0095 64.0891 48.5591L64.1745 48.5117C64.5348 49.1438 64.8872 49.7759 65.2317 50.408C66.1798 52.1289 67.0142 53.8877 67.9623 55.5896C68.792 57.083 69.7306 58.5147 70.6266 59.9653C71.0059 60.5816 72.8785 63.6584 72.6462 64.0613C72.2859 64.6824 69.5457 64.5639 68.9531 64.5354C66.9573 64.4074 65.0657 64.5354 63.0794 64.5639C61.2068 64.5923 59.3152 64.3695 57.4426 64.3221C51.9339 64.1846 46.3777 64.4264 40.85 64.4216C38.2568 64.4216 35.6352 64.616 33.0563 64.5544C32.5822 64.5544 32.1081 64.5212 31.6008 64.4928C29.9555 64.3869 28.3046 64.3995 26.661 64.5307C26.0305 64.5781 23.8166 64.8009 23.4136 64.104C23.0106 63.4071 25.1534 60.2782 25.3952 59.9132C27.1303 57.0688 28.7469 54.2243 30.3635 51.323C30.8376 50.427 31.3401 49.531 31.8237 48.6397L31.8995 48.6824C31.8572 48.7661 31.836 48.8588 31.8379 48.9526Z" fill="#33CC33"/>
<path d="M90.6614 44.9756C90.6614 47.3981 90.6946 49.8349 90.5192 52.2526C90.3124 54.5959 89.8352 56.9074 89.097 59.1409C87.049 65.8443 84.6786 70.7652 80.118 76.1412C77.9705 78.7638 75.527 81.1293 72.8362 83.1907C65.4265 88.6425 55.5515 90.8517 46.454 90.6526C38.5796 90.482 31.2268 87.4669 24.6466 83.295C23.2347 82.4927 21.8674 81.6143 20.5506 80.6639C18.915 79.3649 17.4312 77.8195 15.8857 76.4257C10.1968 71.2109 7.40453 63.3033 6.0392 55.922C5.54017 53.3656 5.29561 50.766 5.30912 48.1614C5.33246 46.3677 5.52612 44.5803 5.8875 42.8233C6.49905 39.8603 6.83564 36.8262 7.7269 33.9202C10.486 24.8322 17.3601 17.3608 25.0685 12.0654C28.771 9.51959 32.8149 7.9267 37.1432 6.78892C39.4045 6.19159 41.6896 5.55633 44.0315 5.3667C46.4551 5.25739 48.8834 5.40677 51.2753 5.81233C61.4395 7.27248 69.3708 9.84196 76.9275 17.0147C77.9989 18.034 79.1746 18.9536 80.246 19.9919C81.2394 21.0962 82.1356 22.2842 82.9245 23.5427C85.2949 26.9134 87.7316 30.4879 88.9216 34.4796C89.2392 35.5368 89.5142 36.6129 89.7939 37.6796C90.3898 40.0652 90.6813 42.5167 90.6614 44.9756ZM72.6087 64.0571C72.841 63.6541 70.9684 60.5774 70.5891 59.9611C69.6931 58.5104 68.7545 57.0787 67.9248 55.5854C66.9767 53.8834 66.1233 52.1246 65.1942 50.4037C64.8497 49.7716 64.4973 49.1395 64.137 48.5074C62.3308 45.3027 60.3965 42.1643 58.6045 38.9501C57.5379 37.0538 56.1725 35.2997 55.0537 33.4177C53.4988 30.796 51.9201 28.1792 50.4742 25.4959C50.1044 24.8085 48.9571 21.9261 48.0279 21.9356C47.3263 21.9356 46.4398 23.794 46.1316 24.2823C44.3254 27.2168 42.8937 30.3125 40.9832 33.2043C38.3995 37.1107 36.2425 41.3537 33.7251 45.2932C33.0282 46.3883 32.3977 47.5072 31.7862 48.6402C31.3121 49.5315 30.838 50.4274 30.326 51.3234C28.7094 54.239 27.0928 57.0692 25.3577 59.9137C25.1159 60.2787 22.9873 63.474 23.3761 64.1045C23.7648 64.735 25.993 64.5785 26.6235 64.5311C28.2671 64.4 29.9179 64.3873 31.5633 64.4932C32.0374 64.5217 32.5352 64.5454 33.0188 64.5548C35.6167 64.6165 38.2336 64.4221 40.8125 64.4221C46.3307 64.4221 51.8869 64.1851 57.4051 64.3225C59.2777 64.3699 61.1693 64.5928 63.0419 64.5643C65.0282 64.5311 66.9198 64.4079 68.9156 64.5359C69.5225 64.5596 72.2626 64.6781 72.6087 64.0571Z" fill="#425855"/>
<path d="M16.3975 50.375C16.5749 50.3911 16.7465 50.4461 16.9 50.5362C17.1239 50.6504 17.3366 50.7853 17.5353 50.9391C17.7512 51.1018 17.9555 51.2792 18.1469 51.4701C18.3155 51.6343 18.4564 51.8249 18.564 52.0342C18.9467 52.6383 19.1956 53.3172 19.2941 54.0254C19.3321 54.2529 19.3605 54.4473 19.3795 54.618C19.4078 54.7874 19.4078 54.9605 19.3795 55.13C19.3454 55.3191 19.2814 55.5015 19.1898 55.6704C18.9043 56.1729 18.5356 56.6233 18.0995 57.0025C17.8969 57.1613 17.6813 57.3024 17.4547 57.4245C17.2604 57.525 17.0552 57.6029 16.8432 57.6568C16.6621 57.705 16.4785 57.743 16.2932 57.7705C15.8334 57.837 15.3683 57.8592 14.9042 57.8369C14.2115 57.7896 13.5295 57.641 12.8799 57.396L11.8796 57.012L11.0737 56.0639C10.8133 55.7706 10.5816 55.4531 10.3815 55.1157C10.1911 54.7922 10.0655 54.4348 10.0118 54.0633C9.97622 53.8371 9.95248 53.6093 9.94064 53.3806C9.92168 53.131 9.9122 52.856 9.9122 52.5557C9.90965 52.4195 9.96102 52.2877 10.0551 52.1892C10.1493 52.0906 10.2785 52.0332 10.4147 52.0295C10.7181 51.9774 10.922 52.1385 11.0263 52.5036C11.0263 52.5273 11.0263 52.6079 11.0263 52.7454C11.0263 52.8828 11.0263 53.0298 11.0595 53.2194C11.0926 53.4091 11.0595 53.5513 11.0926 53.6935C11.1258 53.8357 11.1211 53.9732 11.1306 54.0396C11.1975 54.3766 11.3456 54.6923 11.562 54.9593C11.918 55.3919 12.3184 55.786 12.7566 56.135L13.6289 56.391C13.8496 56.4618 14.0744 56.5188 14.3021 56.5617C14.4326 56.5809 14.5651 56.5809 14.6956 56.5617C15.0324 56.6405 15.3828 56.6405 15.7196 56.5617C16.4569 56.5023 17.1553 56.2063 17.7107 55.7178C17.9062 55.5098 18.0483 55.2575 18.1251 54.9826C18.2019 54.7077 18.211 54.4183 18.1516 54.1391C18.0408 53.5817 17.8608 53.0402 17.6159 52.5273C17.1986 52.0573 16.673 51.696 16.0846 51.4748C16.0138 51.4288 15.953 51.3689 15.9058 51.2989C15.8585 51.2289 15.8259 51.1501 15.8097 51.0671C15.7953 50.9836 15.7992 50.8978 15.8213 50.816C15.8434 50.7341 15.8832 50.658 15.9377 50.5931C16.0334 50.4592 16.1783 50.3689 16.3406 50.3418L16.3975 50.375Z" fill="#101820"/>
<path d="M16.5492 39.4956C17.2539 39.8549 17.8632 40.3765 18.3269 41.0174C18.3712 41.1529 18.4267 41.2845 18.4929 41.4108C18.5856 41.5982 18.6618 41.7933 18.7204 41.9939C18.7941 42.2674 18.8449 42.5465 18.8721 42.8283C18.9039 43.2096 18.888 43.5934 18.8247 43.9708C18.7355 44.7445 18.3861 45.4649 17.8339 46.0141C17.184 46.5865 16.3722 46.9427 15.5109 47.0334C15.4304 47.0381 15.3497 47.0381 15.2692 47.0334L15.0179 46.9954C14.3657 46.9103 13.728 46.7381 13.1216 46.4834C12.6431 46.2692 12.2003 45.983 11.8084 45.6348C11.4779 45.3468 11.1919 45.0113 10.9598 44.6393C10.7581 44.3031 10.5989 43.9432 10.4857 43.5679C10.4182 42.9942 10.4246 42.4143 10.5047 41.8422C10.5652 41.4308 10.7282 41.0411 10.9788 40.7092C11.2569 40.3459 11.6072 40.0441 12.0075 39.8227C12.4688 39.5712 12.9686 39.3982 13.4866 39.3107C14.0986 39.2015 14.7235 39.1855 15.3403 39.2633L16.5492 39.4956ZM16.4117 40.6665C16.1367 40.5765 15.9044 40.5101 15.71 40.4674C15.5157 40.4247 15.3545 40.3868 15.236 40.3679C14.7852 40.2966 14.3261 40.2966 13.8754 40.3679C13.4766 40.4305 13.0867 40.5403 12.7139 40.695C12.4082 40.8196 12.1273 40.9978 11.8843 41.2212C11.7034 41.3687 11.5766 41.5721 11.524 41.7996C11.4114 42.4382 11.4821 43.0957 11.7278 43.6959C11.9523 44.2366 12.3579 44.6825 12.8751 44.9569C13.5446 45.3459 14.2732 45.6229 15.0321 45.777C15.3317 45.8292 15.638 45.8292 15.9376 45.777C16.2316 45.7239 16.512 45.6127 16.7625 45.4499C17.0139 45.2918 17.2302 45.0836 17.3977 44.8384C17.5749 44.5788 17.69 44.282 17.7343 43.9708C17.8033 43.5605 17.8177 43.1428 17.777 42.7288C17.7445 42.4171 17.6612 42.1128 17.5305 41.828C17.4151 41.5847 17.2542 41.3659 17.0564 41.1833C16.8605 40.9885 16.6444 40.8153 16.4117 40.6665Z" fill="#101820"/>
<path d="M20.9348 31.8438C21.0833 31.6352 21.3061 31.602 21.6032 31.7443C21.7497 31.7931 21.873 31.8944 21.9493 32.0287C21.9674 32.0869 21.9729 32.1482 21.9655 32.2087C21.9582 32.2691 21.9381 32.3274 21.9066 32.3795C21.9066 32.4222 21.8355 32.5123 21.7455 32.6592L21.461 33.1333C21.3615 33.3087 21.2619 33.4746 21.1671 33.6358C21.0723 33.797 21.0059 33.925 20.968 34.0056C20.93 34.0862 20.9016 34.1431 20.8732 34.2C20.8485 34.2536 20.8279 34.3091 20.8115 34.3659C20.1478 35.6111 19.6737 36.2701 19.3893 36.3428C19.2033 36.3233 19.0203 36.282 18.8441 36.2195C18.6241 36.1421 18.4088 36.0519 18.1994 35.9493C17.8136 35.7651 17.4385 35.5593 17.0758 35.333C16.7386 35.1121 16.3888 34.9111 16.0281 34.7309L15.81 34.6266C15.7526 34.5977 15.6895 34.5815 15.6252 34.5792C15.2269 34.2995 14.8951 34.0767 14.6296 33.906C14.4324 33.7738 14.2265 33.655 14.0133 33.5505L13.8474 33.4699C13.7526 33.4256 13.6151 33.3545 13.4349 33.2566C13.2556 33.1588 13.0857 33.0446 12.9277 32.9152C12.7752 32.7823 12.6496 32.6214 12.5579 32.4411C12.5135 32.3597 12.4902 32.2684 12.4902 32.1757C12.4902 32.0829 12.5135 31.9916 12.5579 31.9102C12.7238 31.5594 13.032 31.4835 13.4207 31.6779C13.5714 31.8133 13.7296 31.9399 13.8948 32.0571C14.1034 32.2088 14.3689 32.3937 14.7007 32.6118C14.7913 32.6275 14.8791 32.6562 14.9615 32.6972C15.0786 32.7575 15.1925 32.824 15.3028 32.8963C15.464 33.0006 15.6441 33.1096 15.8337 33.2234L16.3742 33.5552C16.5449 33.6595 16.6586 33.7259 16.7108 33.7496C16.7817 33.7869 16.8588 33.811 16.9383 33.8207L18.0192 34.4749C18.2894 34.6361 18.4933 34.7404 18.5786 34.7878C18.7523 34.879 18.9396 34.9414 19.1333 34.9727C19.4101 34.5933 19.6558 34.1922 19.8681 33.7733C19.9217 33.6666 19.9661 33.5556 20.0009 33.4415C20.0352 33.3263 20.078 33.2137 20.1289 33.1048C20.2334 32.8889 20.3489 32.6785 20.4749 32.4743C20.6219 32.2989 20.7736 32.0761 20.9348 31.8438Z" fill="#101820"/>
<path d="M25.5233 21.1338C26.2045 21.8386 26.6487 22.7386 26.7938 23.708C26.7938 23.9829 26.8412 24.2863 26.8839 24.6229C26.9266 24.9595 26.974 25.334 27.0356 25.7465C27.0356 25.7939 26.9977 25.9172 26.9645 26.121C26.9313 26.3249 26.8981 26.5477 26.8555 26.8037C26.8151 27.0498 26.7613 27.2935 26.6943 27.5338C26.6539 27.7039 26.5815 27.8648 26.4809 28.0078C26.1519 28.4395 25.8913 28.9191 25.7082 29.4301C25.3384 29.7998 24.9924 29.9041 24.67 29.6766C24.6221 29.6129 24.5699 29.5527 24.5135 29.4964L24.2955 29.2783C23.8088 28.8151 23.2908 28.3858 22.7452 27.9936C22.0745 27.4863 21.4408 26.9318 20.8489 26.3343C20.555 26.0451 20.2279 25.6849 19.8581 25.2582C19.4884 24.8315 19.0806 24.31 18.635 23.7649C18.5717 23.5997 18.5629 23.4186 18.6098 23.248C18.6567 23.0774 18.7569 22.9263 18.8958 22.8167C19.0214 22.6857 19.1893 22.6034 19.3698 22.5844C19.6257 22.0292 19.9735 21.5211 20.3986 21.0816C20.6476 20.8255 20.9299 20.6039 21.2377 20.4226C21.5146 20.2615 21.8068 20.1281 22.11 20.0244C22.3744 19.9374 22.648 19.8817 22.9254 19.8585C23.1482 19.8364 23.3733 19.8557 23.5891 19.9154C24.2907 20.2234 24.9425 20.634 25.5233 21.1338ZM24.3808 21.6837C24.214 21.547 24.0346 21.4263 23.8451 21.3234C23.6777 21.2385 23.4961 21.1855 23.3094 21.1669C23.0899 21.1486 22.869 21.1662 22.6552 21.2191C22.3575 21.2873 22.0658 21.3793 21.7829 21.4941C21.5106 21.5968 21.2645 21.7588 21.0623 21.9681C20.963 22.0705 20.8711 22.1798 20.7873 22.2952L20.4555 22.7361L20.171 23.1391C20.0857 23.2529 20.0335 23.324 20.0098 23.3477C19.9718 23.391 19.927 23.4278 19.8771 23.4567C20.0888 23.9276 20.7573 24.7177 21.8824 25.8271L22.3233 26.2538C22.5224 26.4434 22.7642 26.652 23.0439 26.889C23.3236 27.1261 23.6318 27.3631 23.9921 27.6143C24.339 27.8652 24.6999 28.0963 25.0729 28.3065C25.4094 27.6884 25.6523 27.0238 25.7935 26.3343C25.8573 26.0976 25.8923 25.8541 25.8978 25.609C25.92 25.2239 25.8993 24.8376 25.8362 24.457C25.7646 23.9976 25.6372 23.5487 25.4569 23.1201C25.2489 22.6391 24.9476 22.2041 24.5704 21.8401L24.3808 21.6837Z" fill="#101820"/>
<path d="M45.3074 15.8148L45.3311 15.9286C45.3904 16.3731 45.3109 16.8251 45.1035 17.2228C44.7853 17.8366 44.3352 18.3725 43.7856 18.7919C43.5482 18.9923 43.2997 19.1791 43.0413 19.3514C42.8165 19.4968 42.5838 19.6297 42.3444 19.7496L41.5954 20.1194C41.333 20.2426 41.0344 20.4006 40.6994 20.5934L40.3391 20.693C40.2383 20.7255 40.1353 20.7508 40.0309 20.7688L39.7702 20.821C39.6309 20.8491 39.4875 20.8491 39.3482 20.821C39.2445 20.7953 39.1546 20.7309 39.097 20.6409C39.0191 20.5209 38.9644 20.3875 38.9358 20.2474C38.8931 20.0767 38.8457 19.8539 38.7936 19.5884C38.7658 19.4591 38.7531 19.3271 38.7557 19.1949C38.6818 19.0457 38.6322 18.8856 38.6087 18.7208C38.5328 18.3084 38.4712 17.9481 38.4333 17.6494C38.3954 17.3507 38.3669 17.0948 38.3479 16.8862C38.329 16.6776 38.3195 16.4879 38.3053 16.3268C38.293 16.1678 38.2724 16.0095 38.2436 15.8527C38.2436 15.7057 38.1868 15.554 38.1488 15.3786C38.1109 15.2032 38.0777 15.042 38.0398 14.8524L37.7601 12.3493C37.7185 12.2286 37.6678 12.1114 37.6084 11.9985L37.3808 11.5718C37.3002 11.4343 37.2291 11.3205 37.1675 11.221C37.1059 11.1214 37.0727 11.0788 37.0727 11.093C37.0658 11.0288 37.0739 10.9639 37.0964 10.9033C37.1303 10.8109 37.1836 10.7268 37.2528 10.6568C37.3442 10.5641 37.4479 10.4843 37.561 10.4198C37.721 10.3302 37.8962 10.2707 38.0777 10.2444H38.1583C38.629 9.89255 39.1711 9.64823 39.7465 9.52855L39.9598 9.48113C40.0798 9.45512 40.2021 9.44085 40.3248 9.43848C40.4843 9.43836 40.6433 9.45584 40.7989 9.49062C41.0164 9.54386 41.2265 9.62346 41.4247 9.72766L42.1595 10.1306L42.4819 10.5383C42.6274 10.7187 42.7267 10.9319 42.7711 11.1594C42.8151 11.4949 42.7907 11.8359 42.6995 12.1618C42.6082 12.4877 42.452 12.7918 42.2401 13.0557C42.4 13.0772 42.5583 13.1088 42.7142 13.1505C42.9133 13.1979 43.1124 13.25 43.3162 13.3117L43.8614 13.4776C43.965 13.506 44.0652 13.5458 44.1601 13.5961C44.4143 13.8374 44.6118 14.1321 44.7385 14.4589C44.956 14.8986 45.146 15.3515 45.3074 15.8148ZM41.5148 11.074C41.4699 11.0023 41.4157 10.937 41.3536 10.8797C41.2577 10.7852 41.1472 10.7068 41.0265 10.6474C40.8748 10.5754 40.7158 10.5198 40.5524 10.4814C40.3745 10.441 40.1898 10.441 40.012 10.4814C39.5065 10.5203 39.035 10.751 38.694 11.1262C38.685 11.2303 38.685 11.335 38.694 11.4391C38.694 11.5528 38.7319 11.6856 38.7557 11.842C38.7794 11.9985 38.8031 12.1881 38.8315 12.4014C38.8599 12.6148 38.8789 12.8755 38.8884 13.1552C38.8921 13.2869 38.9031 13.4183 38.9216 13.5487C38.9216 13.653 38.9216 13.7288 38.9548 13.7857C38.9584 13.8388 38.9802 13.889 39.0164 13.9279L39.8745 13.6008C40.0386 13.5422 40.1972 13.4692 40.3485 13.3827C40.4606 13.3185 40.5641 13.2405 40.6567 13.1505C40.742 13.0651 40.8558 12.9419 40.998 12.7759C41.2168 12.6443 41.3914 12.4503 41.4995 12.219C41.6076 11.9876 41.6442 11.7293 41.6048 11.477C41.5835 11.3344 41.547 11.1946 41.4958 11.0598L41.5148 11.074ZM44.1696 16.5164C44.2075 16.3271 44.2075 16.1321 44.1696 15.9428C44.1197 15.6396 44.017 15.3476 43.8662 15.0799C43.7467 14.868 43.5854 14.6825 43.3921 14.5348C43.2044 14.401 42.9963 14.2985 42.7758 14.2314C42.2778 14.103 41.7622 14.0566 41.2493 14.0939C41.085 14.1292 40.9257 14.1849 40.7752 14.2598L40.2111 14.5395L39.6516 14.8287C39.5114 14.9018 39.3656 14.9636 39.2155 15.0136C39.2442 15.1039 39.268 15.1957 39.2866 15.2885C39.2866 15.3833 39.3198 15.4782 39.3388 15.5825C39.4122 15.9866 39.4581 16.3952 39.4762 16.8056C39.5017 17.3072 39.5635 17.8063 39.6611 18.2989C39.6896 18.4554 39.7275 18.6166 39.7702 18.773C39.8128 18.9294 39.8413 19.0717 39.8602 19.1807C39.8768 19.2508 39.8879 19.3222 39.8934 19.394C39.8901 19.4477 39.8901 19.5015 39.8934 19.5552H40.0831L40.2822 19.522C40.4909 19.4761 40.6931 19.4044 40.8842 19.3087C41.1308 19.1902 41.3583 19.0717 41.6096 18.9437C41.8608 18.8157 42.0552 18.7019 42.2448 18.5881C42.3606 18.5156 42.4809 18.4506 42.6051 18.3937C42.7758 18.2804 42.9346 18.1502 43.0792 18.005C43.2467 17.845 43.405 17.6757 43.5533 17.4977C43.6928 17.3338 43.8196 17.1595 43.9325 16.9762C44.0409 16.8354 44.1199 16.6741 44.1648 16.5022L44.1696 16.5164Z" fill="#101820"/>
<path d="M53.7974 17.6973C54.0392 17.7779 54.1387 17.9818 54.0913 18.3089C54.0899 18.4632 54.0287 18.611 53.9207 18.7213C53.8181 18.7871 53.6942 18.8108 53.5746 18.7877L53.257 18.7166L52.6976 18.6123L52.1287 18.4795C51.9928 18.445 51.8551 18.4181 51.7162 18.3989L51.5076 18.3658C51.4477 18.3611 51.3874 18.3611 51.3275 18.3658C49.9369 18.1003 49.1673 17.849 49.0187 17.612C48.984 17.4277 48.9697 17.2401 48.9761 17.0526C48.9761 16.8487 49.0045 16.6164 49.0424 16.3557C49.1033 15.9327 49.1872 15.5133 49.2937 15.0994C49.3999 14.7017 49.4822 14.298 49.5402 13.8905C49.5402 13.8004 49.5639 13.7246 49.5734 13.6535C49.5876 13.591 49.5876 13.5263 49.5734 13.4638C49.7204 12.9898 49.8342 12.62 49.9195 12.3166C49.9838 12.0872 50.036 11.8546 50.0759 11.6197V11.4348C50.0759 11.3352 50.1186 11.1835 50.1565 10.9844C50.1971 10.783 50.2574 10.5861 50.3367 10.3966C50.4117 10.2199 50.5195 10.0591 50.6543 9.92249C50.7188 9.85703 50.7982 9.80817 50.8857 9.7801C50.9733 9.75203 51.0663 9.7456 51.1568 9.76132C51.5408 9.81821 51.702 10.0695 51.6309 10.5198C51.5444 10.7077 51.47 10.9009 51.4081 11.0982C51.3275 11.3495 51.2327 11.6576 51.1236 12.0464C51.1401 12.1373 51.1401 12.2304 51.1236 12.3213C51.1236 12.394 51.0952 12.522 51.0383 12.7053C50.9814 12.8886 50.9293 13.0925 50.8819 13.3169C50.8297 13.5302 50.7776 13.7388 50.7254 13.9284C50.6733 14.1181 50.6496 14.2508 50.6401 14.3077C50.6282 14.3878 50.6282 14.4693 50.6401 14.5495C50.5105 15.0583 50.4109 15.466 50.3414 15.7726C50.2703 16.076 50.2276 16.2893 50.2087 16.3984C50.181 16.5933 50.181 16.7912 50.2087 16.9862C50.6552 17.133 51.1114 17.2486 51.574 17.3323C51.6936 17.3469 51.8139 17.3548 51.9343 17.356C52.0541 17.3445 52.1748 17.3445 52.2946 17.356C52.5315 17.3869 52.766 17.4345 52.9962 17.4982C53.2617 17.5219 53.5225 17.6025 53.7974 17.6973Z" fill="#101820"/>
<path d="M64.8394 19.6407C64.3216 20.2353 63.6723 20.7011 62.9431 21.0013C62.8009 21.0117 62.6598 21.0339 62.5212 21.0676C62.317 21.1131 62.1092 21.1401 61.9002 21.1482C61.6179 21.1546 61.3356 21.1372 61.0563 21.0961C60.6779 21.0339 60.3086 20.9257 59.9565 20.7737C59.2279 20.5009 58.613 19.9897 58.2119 19.3231C57.8128 18.5533 57.6605 17.6793 57.7757 16.8199C57.7994 16.7441 57.8231 16.6682 57.8516 16.5924C57.88 16.5165 57.9132 16.4407 57.9511 16.3553C58.19 15.7424 58.5088 15.1638 58.8993 14.6345C59.2109 14.2219 59.5834 13.8591 60.0039 13.5583C60.3619 13.3049 60.7569 13.1082 61.1748 12.9752C61.549 12.8594 61.9358 12.7893 62.3268 12.7666C62.8994 12.8349 63.4605 12.9783 63.9956 13.1933C64.3833 13.3516 64.7231 13.6081 64.9817 13.9376C65.2682 14.2938 65.478 14.7054 65.598 15.1465C65.7301 15.6551 65.7781 16.182 65.7402 16.7062C65.6978 17.3262 65.5636 17.9365 65.3419 18.5171L64.8394 19.6407ZM63.7348 19.2282C63.8865 18.9817 64.0051 18.7542 64.0999 18.593C64.1947 18.4318 64.2563 18.2659 64.3037 18.1521C64.4818 17.7298 64.5906 17.2816 64.6261 16.8247C64.6608 16.423 64.6465 16.0187 64.5834 15.6205C64.541 15.288 64.4364 14.9664 64.2753 14.6724C64.1735 14.4667 64.0069 14.3001 63.8012 14.1983C63.206 13.9355 62.5485 13.8467 61.9049 13.9423C61.3212 14.0319 60.7876 14.3239 60.3974 14.7672C59.8594 15.3236 59.4158 15.9642 59.0842 16.6635C58.9699 16.9459 58.9042 17.2457 58.8898 17.55C58.8531 18.1491 59.0541 18.7385 59.4492 19.1903C59.6584 19.426 59.9197 19.6094 60.2125 19.726C60.594 19.8917 60.9957 20.0065 61.4071 20.0674C61.7223 20.1118 62.0427 20.1038 62.3553 20.0437C62.619 19.9884 62.8699 19.8838 63.0948 19.7355C63.3242 19.5877 63.5386 19.4178 63.7348 19.2282Z" fill="#101820"/>
<path d="M73.0837 27.1454C72.3927 27.5288 71.6215 27.7447 70.8319 27.776C70.6941 27.736 70.5528 27.709 70.41 27.6953C70.2023 27.6685 69.9976 27.6225 69.7984 27.5579C69.53 27.4684 69.2698 27.3558 69.0209 27.2213C68.6878 27.0356 68.3789 26.8095 68.1012 26.5481C67.5072 26.0429 67.1027 25.3508 66.954 24.5854C66.8411 23.7271 66.9951 22.8549 67.3948 22.0871C67.4413 22.0207 67.492 21.9573 67.5465 21.8974L67.7172 21.7078C68.1513 21.2116 68.6505 20.7762 69.2011 20.4136C69.64 20.1306 70.1196 19.9164 70.6233 19.7783C71.0462 19.6626 71.4841 19.6115 71.9223 19.6266C72.3144 19.6469 72.7027 19.7138 73.079 19.8257C73.5912 20.0805 74.0691 20.399 74.5012 20.7739C74.8096 21.0576 75.0412 21.4148 75.1744 21.8121C75.3202 22.245 75.3751 22.7034 75.3356 23.1585C75.288 23.6822 75.1551 24.1946 74.9421 24.6755C74.6911 25.2442 74.3554 25.7717 73.9466 26.24L73.0837 27.1454ZM72.1877 26.3822C72.4106 26.202 72.6002 26.0408 72.7471 25.9081C72.8941 25.7754 73.0079 25.6568 73.0885 25.562C73.3994 25.2276 73.654 24.845 73.8423 24.429C74.0141 24.0619 74.1399 23.675 74.2168 23.277C74.2754 22.9541 74.2754 22.6233 74.2168 22.3004C74.1957 22.0679 74.0972 21.8492 73.9371 21.6793C73.4722 21.2337 72.8901 20.9295 72.2588 20.8023C71.6806 20.6854 71.0797 20.776 70.5617 21.0583C69.8623 21.3999 69.2221 21.8513 68.6654 22.3952C68.4653 22.6228 68.3051 22.8824 68.1913 23.1632C68.0711 23.4369 68.0067 23.7319 68.0017 24.0308C67.9974 24.3273 68.0505 24.6219 68.1581 24.8983C68.2742 25.1899 68.4578 25.4499 68.6938 25.6568C68.995 25.9457 69.3349 26.1914 69.7036 26.3869C69.9791 26.5334 70.2771 26.6327 70.5854 26.6808C70.8521 26.7202 71.1239 26.7089 71.3865 26.6477C71.6684 26.5856 71.9432 26.495 72.2067 26.3774L72.1877 26.3822Z" fill="#101820"/>
<path d="M80.7576 35.6454C79.8817 36.095 78.8876 36.2607 77.9132 36.1195C77.643 36.0579 77.3443 36.001 77.0077 35.9394L75.8889 35.764C75.7812 35.6958 75.6687 35.6356 75.5523 35.5838C75.3674 35.4985 75.1588 35.3989 74.9313 35.2804C74.707 35.1718 74.4887 35.0516 74.277 34.9201C74.1184 34.8307 73.9783 34.7116 73.8646 34.5693C73.5407 34.1266 73.1506 33.7364 72.7079 33.4125C72.4613 32.9385 72.4803 32.5971 72.7742 32.3459C72.85 32.3199 72.9231 32.2866 72.9923 32.2463L73.2625 32.0994C73.8474 31.7714 74.4082 31.4023 74.9407 30.9948C75.622 30.4888 76.3398 30.034 77.0883 29.6342C77.4486 29.4398 77.8847 29.2265 78.4015 28.9989C78.9182 28.7714 79.5156 28.5248 80.1887 28.2594C80.3636 28.2487 80.5373 28.2933 80.6854 28.3869C80.8334 28.4805 80.9483 28.6184 81.0136 28.7809C81.1058 28.945 81.1345 29.1374 81.0942 29.3213C81.5528 29.7261 81.9377 30.2073 82.232 30.7435C82.4058 31.0564 82.5366 31.3912 82.6207 31.7391C82.6937 32.0503 82.7366 32.3678 82.7487 32.6872C82.7563 32.9658 82.7309 33.2443 82.6729 33.5169C82.6276 33.7352 82.5441 33.9438 82.4264 34.1331C81.9472 34.7163 81.385 35.2258 80.7576 35.6454ZM80.5633 34.3939C80.7422 34.2746 80.9089 34.1381 81.061 33.9862C81.1936 33.8497 81.2982 33.6886 81.3692 33.5121C81.4476 33.3071 81.494 33.0912 81.5067 32.8721C81.5276 32.5675 81.5276 32.2618 81.5067 31.9572C81.4852 31.6642 81.3959 31.3801 81.2459 31.1275C81.1765 31.0025 81.0989 30.8821 81.0136 30.7672C80.9093 30.6203 80.7956 30.4686 80.6865 30.3263L80.3879 29.9329C80.331 29.8654 80.2787 29.7941 80.2314 29.7195C80.2008 29.6697 80.1784 29.6153 80.165 29.5583C79.6578 29.6295 78.7096 30.0324 77.3206 30.7957C77.1973 30.8573 77.0219 30.9616 76.7849 31.0943C76.5479 31.2271 76.2729 31.3977 75.9695 31.5969C75.6661 31.796 75.339 32.0188 75.0213 32.2748C74.6794 32.5315 74.3533 32.8085 74.0447 33.1044C74.5373 33.6083 75.1031 34.035 75.723 34.3702C75.9309 34.4962 76.1519 34.5996 76.3819 34.6783C76.7456 34.8099 77.1222 34.902 77.5055 34.9533C77.9667 35.0108 78.4333 35.0108 78.8945 34.9533C79.4155 34.8944 79.9197 34.7333 80.3784 34.4792L80.5633 34.3939Z" fill="#101820"/>
<path d="M78.2987 46.6821C78.2769 46.816 78.2109 46.9387 78.1112 47.0306C78.0116 47.1226 77.884 47.1785 77.7488 47.1894C77.3316 47.251 77.0709 46.8765 76.9571 46.0801C76.9571 45.9663 76.9287 45.843 76.9144 45.7056C76.9002 45.5681 76.886 45.4496 76.8718 45.35C76.8575 45.2504 76.8338 45.075 76.8196 44.9707C76.8087 44.8826 76.7913 44.7955 76.7675 44.71C76.7783 44.5616 76.7783 44.4127 76.7675 44.2643C76.7675 43.9894 76.7201 43.5912 76.6964 43.0697L76.5541 42.4392C76.5257 42.2922 76.502 42.1927 76.4972 42.1453C76.4263 41.8379 76.4545 41.5159 76.5778 41.2255C76.9618 41.1118 77.3316 41.017 77.6824 40.9316C78.0332 40.8463 78.3698 40.7846 78.697 40.7372C79.2108 40.6634 79.7283 40.6175 80.2472 40.5998C80.623 40.5954 80.9982 40.5685 81.3707 40.5192C81.6338 40.4976 81.8924 40.4385 82.1387 40.3438L83.926 40.1826C84.5504 40.1243 85.1801 40.1707 85.7891 40.3201C85.8871 40.4401 85.9597 40.5788 86.0024 40.7278C86.0925 40.9648 86.1826 41.2018 86.2679 41.4768C86.3533 41.7518 86.4338 41.9509 86.505 42.1689C86.5761 42.387 86.5998 42.4392 86.595 42.3965C86.6519 42.5357 86.6948 42.6802 86.723 42.8279C86.7799 43.046 86.8321 43.302 86.889 43.5248C86.9458 43.7476 86.998 43.9989 87.0359 44.1885C87.0738 44.3781 87.0928 44.473 87.0881 44.4635V44.5156C87.0901 44.5711 87.0781 44.6263 87.0533 44.676C87.0284 44.7257 86.9915 44.7683 86.9459 44.8001C86.8372 44.9012 86.6996 44.9659 86.5524 44.985C86.464 44.991 86.3753 44.991 86.2869 44.985C86.2068 44.9838 86.1302 44.9515 86.0735 44.8949C85.99 44.8038 85.9312 44.6928 85.9029 44.5725C85.8346 44.3538 85.7824 44.1304 85.7464 43.904C85.6967 43.5574 85.6093 43.2172 85.4857 42.8896V42.79C85.412 42.3605 85.2729 41.9448 85.0733 41.5574C84.9699 41.4942 84.8528 41.4567 84.7319 41.4483C84.5529 41.4228 84.3723 41.4102 84.1915 41.4104H83.6084C83.414 41.4104 83.2575 41.4341 83.1343 41.4483C82.9069 41.4734 82.6818 41.5162 82.4611 41.5764C82.3094 41.619 82.2288 41.638 82.2288 41.6238C82.2809 41.9459 82.3602 42.2631 82.4658 42.5719C82.5513 42.8186 82.6148 43.0725 82.6555 43.3304C82.6555 43.4347 82.6697 43.5533 82.6981 43.686C82.6981 43.8235 82.7266 43.9657 82.7456 44.1126C82.7645 44.2596 82.7835 44.3924 82.793 44.5109C82.8024 44.6294 82.8167 44.7195 82.8261 44.7906C82.835 44.8416 82.8284 44.8941 82.8073 44.9414C82.7862 44.9887 82.7515 45.0286 82.7076 45.0561C82.5994 45.1267 82.4759 45.1705 82.3473 45.1841C82.25 45.2098 82.147 45.204 82.0533 45.1673C81.9595 45.1307 81.8799 45.0651 81.8258 44.9802C81.6911 44.6805 81.6093 44.3597 81.5841 44.0321C81.5491 43.692 81.484 43.3556 81.3897 43.027C81.3897 42.9701 81.3897 42.9038 81.3897 42.8279C81.386 42.7517 81.3781 42.6757 81.366 42.6003C81.366 42.4771 81.3281 42.3444 81.3044 42.2021C81.2807 42.0599 81.2475 41.9177 81.2143 41.7613C81.1112 41.7239 81.0012 41.7093 80.8919 41.7186C80.726 41.7186 80.5506 41.7186 80.3704 41.7186C80.1903 41.7186 79.9532 41.7612 79.6735 41.7992L79.318 41.8513C78.9245 41.9035 78.4125 41.9603 77.7915 42.0125C77.7787 42.1703 77.7787 42.3288 77.7915 42.4866C77.7915 42.7331 77.8199 42.9938 77.8436 43.2641C77.8673 43.5343 77.8815 43.795 77.8958 44.0415C77.9039 44.1995 77.9039 44.3577 77.8958 44.5156C77.8958 44.5156 77.8958 44.6104 77.9479 44.7669C78.0001 44.9233 78.0285 45.1461 78.0949 45.4353C78.185 45.8478 78.2466 46.1749 78.2798 46.4119L78.2987 46.6821Z" fill="#101820"/>
<path d="M81.3029 57.671C80.3426 57.4714 79.4699 56.9737 78.8093 56.2488C78.6386 56.0307 78.4443 55.7984 78.2214 55.5424C77.9986 55.2864 77.7474 55.0019 77.4677 54.6938C77.4231 54.5759 77.3724 54.4604 77.316 54.3477C77.2306 54.1628 77.1311 53.9542 77.0268 53.7172C76.9225 53.4802 76.8277 53.2431 76.7471 53.0251C76.6819 52.8556 76.6481 52.6756 76.6475 52.4941C76.6761 51.9455 76.6218 51.3957 76.4863 50.8633C76.5811 50.3513 76.8229 50.0905 77.2069 50.0811C77.2827 50.1074 77.3604 50.128 77.4392 50.1427L77.7379 50.1948C78.4002 50.3138 79.0706 50.382 79.7432 50.3987C80.59 50.4379 81.4328 50.5378 82.2653 50.6973C82.6683 50.7732 83.1423 50.887 83.6875 51.0339C84.2327 51.1809 84.849 51.3705 85.5364 51.5934C85.6793 51.6947 85.7862 51.839 85.8416 52.0052C85.897 52.1714 85.898 52.351 85.8445 52.5178C85.8139 52.7041 85.7161 52.8728 85.5696 52.9919C85.6719 53.5944 85.6719 54.2098 85.5696 54.8123C85.5044 55.1631 85.3944 55.504 85.2425 55.8268C85.1032 56.1165 84.9348 56.3913 84.74 56.647C84.5712 56.8682 84.3753 57.0673 84.1568 57.2396C83.9842 57.3808 83.7885 57.4915 83.5785 57.5667C82.8292 57.7132 82.0624 57.7483 81.3029 57.671ZM81.9429 56.5759C82.1556 56.5996 82.3702 56.5996 82.5829 56.5759C82.7707 56.5567 82.9528 56.5003 83.1186 56.4099C83.3085 56.3002 83.4811 56.1628 83.6306 56.0022C83.8362 55.775 84.0262 55.5343 84.1995 55.2816C84.3678 55.0415 84.4782 54.7657 84.5219 54.4757C84.5472 54.3347 84.5631 54.1922 84.5693 54.0491C84.5693 53.8689 84.5693 53.684 84.593 53.4991C84.6167 53.3143 84.593 53.1483 84.593 53.0251C84.5861 52.9367 84.5861 52.8479 84.593 52.7596C84.5999 52.7021 84.6159 52.6461 84.6404 52.5936C84.2043 52.3282 83.2087 52.0484 81.6537 51.7545L81.0469 51.6502C80.7767 51.6076 80.4638 51.5649 80.0988 51.527C79.7337 51.4891 79.345 51.4606 78.9231 51.4416C78.4962 51.4276 78.0689 51.4371 77.6431 51.4701C77.7112 52.1718 77.8805 52.86 78.1456 53.5133C78.2271 53.7439 78.3336 53.9649 78.4632 54.1723C78.6637 54.5017 78.8972 54.8099 79.1601 55.092C79.4772 55.4323 79.8356 55.7317 80.2268 55.9833C80.6663 56.2668 81.1578 56.4602 81.6727 56.5522L81.9429 56.5759Z" fill="#101820"/>
<path d="M24.329 75.1315C24.1834 75.2175 24.0223 75.2739 23.8549 75.2975C23.6072 75.3357 23.3565 75.3516 23.1059 75.3449C22.8344 75.3439 22.5633 75.3217 22.2952 75.2785C22.0625 75.2462 21.8366 75.1757 21.6268 75.0699C20.9608 74.8079 20.3593 74.4052 19.8632 73.8894C19.702 73.7283 19.5598 73.5861 19.446 73.4628C19.3266 73.3384 19.2274 73.196 19.1521 73.0409C19.0696 72.8669 19.0137 72.6815 18.9862 72.491C18.9629 72.226 18.9629 71.9595 18.9862 71.6945C18.9871 71.3839 19.0285 71.0747 19.1094 70.7748C19.1767 70.5267 19.2672 70.2854 19.3797 70.0542C19.4758 69.8574 19.5952 69.6727 19.7352 69.5043C19.868 69.3478 19.9912 69.2056 20.1145 69.0871C20.4463 68.7627 20.8083 68.4707 21.1954 68.2148C21.7834 67.8445 22.4222 67.5618 23.0917 67.3757L24.092 67.0723L25.2914 67.3472C25.6758 67.4316 26.0519 67.5506 26.4149 67.7028C26.7573 67.8569 27.0677 68.074 27.3299 68.3428C27.4769 68.485 27.6286 68.6557 27.804 68.8453C27.9794 69.035 28.1358 69.2578 28.316 69.4948C28.3574 69.5486 28.3879 69.6101 28.4056 69.6757C28.4232 69.7413 28.4278 69.8098 28.419 69.8771C28.4102 69.9445 28.3882 70.0095 28.3542 70.0683C28.3203 70.1272 28.2751 70.1788 28.2212 70.2201C28.0031 70.4382 27.7471 70.4335 27.4484 70.2201C27.4484 70.2201 27.3773 70.1443 27.292 70.04L26.998 69.6892C26.8937 69.5612 26.7894 69.4332 26.6804 69.3099L26.4434 69.0492C26.1899 68.8201 25.8837 68.6572 25.5521 68.5751C25.01 68.4315 24.4533 68.3504 23.8929 68.3333L23.0395 68.6367C22.8197 68.7109 22.6044 68.798 22.3948 68.8975C22.2729 68.9494 22.1607 69.0215 22.0629 69.1108C21.744 69.2411 21.46 69.444 21.2333 69.7034C20.6732 70.1862 20.2827 70.8359 20.1192 71.557C20.0839 71.8415 20.1181 72.1302 20.2188 72.3986C20.3195 72.6669 20.4838 72.9068 20.6976 73.0978C21.1353 73.4958 21.623 73.8352 22.1483 74.1075C22.7632 74.2392 23.4009 74.2196 24.0066 74.0506C24.0932 74.0444 24.1801 74.0563 24.2618 74.0857C24.3434 74.1151 24.418 74.1613 24.4807 74.2213C24.5374 74.2783 24.5814 74.3466 24.61 74.4217C24.6386 74.4969 24.6511 74.5772 24.6466 74.6574C24.6488 74.739 24.6343 74.8201 24.6042 74.8959C24.574 74.9717 24.5288 75.0406 24.4712 75.0984L24.329 75.1315Z" fill="#101820"/>
<path d="M33.3092 82.6977C33.2741 82.7606 33.225 82.8146 33.1659 82.8556C33.1068 82.8967 33.039 82.9238 32.9679 82.9348C32.8319 82.9722 32.6869 82.9588 32.5602 82.8968C32.5293 82.8873 32.4963 82.8873 32.4654 82.8968C32.4322 82.8968 32.4037 82.8637 32.3753 82.7973C32.3293 82.6738 32.2929 82.547 32.2662 82.418C32.2082 82.1379 32.1671 81.8545 32.143 81.5694L31.9676 80.0192C31.9793 79.8899 31.9793 79.7598 31.9676 79.6305C31.9676 79.4408 31.9391 79.237 31.9202 79.0141C31.9012 78.7913 31.887 78.5828 31.8728 78.3884C31.8517 78.2581 31.8517 78.1252 31.8728 77.9949C31.7912 77.9537 31.7073 77.9173 31.6215 77.8859L31.2091 77.7247L30.7682 77.5445C30.626 77.4876 30.5264 77.445 30.4648 77.4118L30.3273 77.3359C30.2881 77.315 30.2515 77.2896 30.2183 77.2601L29.4692 78.4216L29.2369 78.7819C29.2033 78.8698 29.1637 78.9553 29.1184 79.0379L28.9762 79.3034C28.8316 79.5689 28.6733 79.8269 28.5021 80.0761C28.3314 80.3368 28.1418 80.5976 27.938 80.8583C27.8669 80.9029 27.7848 80.9266 27.7009 80.9266C27.6171 80.9266 27.5349 80.9029 27.4639 80.8583C27.3189 80.7839 27.2023 80.664 27.132 80.517C27.1 80.4314 27.0889 80.3395 27.0997 80.2488C27.1104 80.158 27.1426 80.0712 27.1937 79.9955L27.3548 79.7063C27.4307 79.583 27.5018 79.4645 27.5777 79.3507C27.6535 79.237 27.7199 79.1327 27.7768 79.0331L27.9 78.8245L27.9474 78.7345C27.9996 78.6633 28.1892 78.3505 28.5163 77.7863C28.8434 77.2222 29.3365 76.402 29.9954 75.269C30.0608 75.1613 30.1337 75.0583 30.2135 74.9608L30.5548 74.5152C30.6828 74.3587 30.8014 74.1975 30.9104 74.0411C31.0072 73.9075 31.0958 73.7682 31.1759 73.6239C31.2138 73.5528 31.247 73.4817 31.2754 73.4153C31.3092 73.3458 31.3392 73.2746 31.3655 73.202C31.4425 73.0524 31.5296 72.9083 31.6263 72.7706C31.7119 72.6476 31.8037 72.5289 31.9012 72.415C31.9867 72.3149 32.0856 72.2272 32.1951 72.1543L32.399 72.2064C32.4755 72.2343 32.55 72.2676 32.6218 72.306C32.8328 72.4345 33.0231 72.5943 33.186 72.7801C33.3834 72.8616 33.5764 72.9534 33.7643 73.0551L34.1957 73.2826L34.4612 73.4343L34.6982 73.5907C34.7852 73.6527 34.8676 73.7209 34.9448 73.7946C35.0348 73.8752 35.1344 73.97 35.2529 74.0885L35.6891 74.8613C35.8826 75.2344 35.9803 75.6498 35.9735 76.0702C35.9281 76.4917 35.794 76.8988 35.58 77.2648C35.471 77.426 35.3762 77.554 35.3003 77.6583C35.2311 77.7578 35.1404 77.8405 35.0348 77.9001C34.9111 77.9693 34.7788 78.0219 34.6414 78.0565C34.4802 78.1039 34.2716 78.1513 34.0108 78.2035C33.8129 78.2505 33.6116 78.2822 33.4088 78.2983C33.2732 78.3117 33.1366 78.3117 33.0011 78.2983C32.9821 78.4272 32.9821 78.5581 33.0011 78.687C33.0011 78.8861 33.0295 79.1042 33.0485 79.3413C33.0674 79.5783 33.0485 79.8153 33.0817 79.9955C33.0933 80.1327 33.0933 80.2707 33.0817 80.4079C33.2635 80.7904 33.3435 81.2133 33.314 81.6358L33.3092 82.6977ZM34.4565 76.8476L34.5797 76.677C34.611 76.6296 34.6394 76.5806 34.6651 76.53C34.709 76.4426 34.7425 76.3503 34.7646 76.2551C34.7967 76.1082 34.7967 75.9562 34.7646 75.8094C34.7314 75.6012 34.6742 75.3976 34.594 75.2026C34.4744 74.9306 34.3146 74.678 34.1199 74.4535C33.9747 74.2649 33.7964 74.1043 33.5937 73.9795C33.5215 73.9445 33.447 73.9144 33.3708 73.8894L33.0722 73.7993L32.4985 73.605L32.2615 74.0316L32.0387 74.3682L31.65 75.0272C31.4651 75.2974 31.1759 75.7336 30.8156 76.3214C30.9405 76.4428 31.0827 76.5451 31.2375 76.6248C31.5023 76.7641 31.7823 76.8723 32.0719 76.9472C32.3823 77.0319 32.6996 77.089 33.02 77.1178C33.3019 77.1514 33.5868 77.1514 33.8686 77.1178C34.0847 77.0804 34.2874 76.9873 34.4565 76.8476Z" fill="#101820"/>
<path d="M43.8432 85.7649C43.9597 85.8332 44.0503 85.9381 44.1009 86.0634C44.1515 86.1886 44.1592 86.327 44.1229 86.457C44.0328 86.8695 43.5919 86.9833 42.8049 86.8079L42.4399 86.7131L42.0938 86.6277L41.7193 86.5424C41.6319 86.5219 41.5432 86.5076 41.4538 86.4997C41.3164 86.4445 41.1755 86.3986 41.0319 86.3622C40.7712 86.2864 40.3872 86.1679 39.8894 86.0067L39.2541 85.9166L38.9555 85.8692C38.6425 85.824 38.3511 85.6833 38.1211 85.4662C38.1495 85.068 38.1922 84.6888 38.2349 84.3332C38.2778 83.9906 38.338 83.6505 38.415 83.3139C38.5251 82.8069 38.6644 82.3068 38.8322 81.8159C38.9792 81.3797 39.0882 81.0194 39.1546 80.735C39.2245 80.4801 39.2596 80.217 39.2589 79.9528L39.7329 78.2224C39.8977 77.6178 40.1638 77.0455 40.5199 76.5299C40.6719 76.4768 40.8337 76.4574 40.994 76.473H41.7904H42.5205C42.7291 76.473 42.8097 76.473 42.767 76.473C42.9161 76.4701 43.0652 76.4796 43.2127 76.5015L43.9285 76.5963L44.5969 76.6959L44.8719 76.7385H44.9241C45.0141 76.7385 45.0852 76.8333 45.1421 76.9708C45.1987 77.1091 45.2104 77.2617 45.1753 77.407C45.1569 77.4927 45.1315 77.5767 45.0995 77.6582C45.0698 77.7327 45.0118 77.7923 44.9383 77.8242C44.8244 77.8713 44.7006 77.8892 44.578 77.8763C44.3502 77.8596 44.1237 77.8279 43.9001 77.7815C43.5574 77.7071 43.2078 77.6689 42.8571 77.6677H42.7575C42.3297 77.5846 41.8917 77.567 41.4586 77.6156C41.3622 77.6908 41.2857 77.7884 41.2358 77.9C41.1513 78.053 41.0768 78.2114 41.0129 78.3741C40.9418 78.5542 40.8755 78.7391 40.8186 78.924C40.7685 79.0687 40.7257 79.2159 40.6906 79.3649C40.6368 79.5866 40.5972 79.8114 40.5721 80.0381C40.5721 80.1993 40.5721 80.2799 40.5389 80.2751C40.8606 80.3413 41.1872 80.381 41.5155 80.3936C41.7766 80.3991 42.0368 80.4276 42.2929 80.479L42.639 80.569C42.7718 80.6022 42.9092 80.6402 43.0562 80.6686L43.4449 80.7682L43.7199 80.8393C43.771 80.8476 43.8182 80.8717 43.8547 80.9083C43.8913 80.9449 43.9155 80.9921 43.9238 81.0431C43.9545 81.1693 43.9545 81.301 43.9238 81.4271C43.9129 81.5266 43.8708 81.6201 43.8035 81.6942C43.7362 81.7683 43.6472 81.8191 43.5492 81.8396C43.2296 81.8566 42.9094 81.8214 42.6011 81.7353C42.2707 81.6455 41.9326 81.5868 41.5913 81.5599L41.4017 81.5077L41.1789 81.4461L40.7854 81.3655L40.335 81.2944C40.2638 81.3784 40.212 81.4772 40.1833 81.5836C40.1264 81.74 40.0695 81.9012 40.0174 82.0577C39.9652 82.2141 39.9131 82.4606 39.8467 82.7403L39.7709 83.0864C39.6808 83.4751 39.5528 83.9729 39.3821 84.575C39.5353 84.6459 39.6938 84.7046 39.8562 84.7504C40.0885 84.8262 40.3303 84.9021 40.6005 84.9779L41.3448 85.2008C41.5818 85.2671 41.7288 85.3193 41.7952 85.343L42.0464 85.3856L42.7244 85.4852C43.1415 85.5421 43.4687 85.599 43.7009 85.6511L43.8432 85.7649Z" fill="#101820"/>
<path d="M55.2247 85.2857C55.3547 85.318 55.4709 85.3911 55.5563 85.4944C55.6416 85.5976 55.6916 85.7255 55.6988 85.8593C55.7367 86.2765 55.3527 86.5277 54.5515 86.6036L54.177 86.6273L53.8167 86.6558L53.4375 86.6889C53.3478 86.6951 53.259 86.7093 53.172 86.7316C53.0237 86.7201 52.8747 86.7201 52.7263 86.7316C52.4561 86.7316 52.0532 86.7316 51.5317 86.7316L50.8964 86.8454L50.6025 86.8881C50.291 86.9433 49.9701 86.902 49.6828 86.7695C49.588 86.3808 49.5074 86.0063 49.441 85.6507C49.3746 85.2951 49.3225 84.9586 49.2893 84.6315C49.2389 84.1147 49.2167 83.5956 49.2229 83.0765C49.2311 82.7001 49.2201 82.3235 49.1898 81.9482C49.1806 81.6835 49.1327 81.4215 49.0475 81.1707L48.9669 79.3787C48.9332 78.7529 49.007 78.126 49.185 77.5251C49.3101 77.4338 49.4518 77.3677 49.6022 77.3307C49.8392 77.2501 50.0763 77.1743 50.3607 77.0984L51.0623 76.8946C51.2615 76.8329 51.3373 76.8092 51.2946 76.8092C51.4356 76.7625 51.5798 76.7261 51.726 76.7002L52.4372 76.5674L53.1009 76.4489L53.3806 76.4062H53.4327C53.4887 76.407 53.5435 76.4217 53.5924 76.449C53.6412 76.4764 53.6825 76.5154 53.7124 76.5627C53.8091 76.676 53.8672 76.8172 53.8783 76.9657C53.8851 77.054 53.8851 77.1428 53.8783 77.2312C53.8723 77.3093 53.8367 77.3822 53.7788 77.435C53.6834 77.5157 53.5693 77.5712 53.4469 77.5962C53.2255 77.652 53.0006 77.6931 52.7738 77.7194C52.4254 77.7538 52.0819 77.827 51.7497 77.9375H51.6455C51.2123 77.9929 50.7902 78.1144 50.3939 78.2978C50.3291 78.3995 50.2886 78.5146 50.2754 78.6344C50.2413 78.8111 50.2207 78.9902 50.2137 79.1701C50.2137 79.3661 50.2137 79.5604 50.2137 79.7532C50.2137 79.9476 50.2137 80.104 50.2137 80.2273C50.232 80.4536 50.2652 80.6786 50.3133 80.9005C50.3405 80.9765 50.3533 81.0569 50.3512 81.1375C50.6722 81.0998 50.9894 81.0348 51.2994 80.9431C51.5478 80.8652 51.8036 80.8128 52.0626 80.7867L52.4229 80.7583L52.8496 80.7298L53.2478 80.7014H53.5275C53.5788 80.6938 53.6312 80.702 53.6778 80.7248C53.7244 80.7477 53.7629 80.7841 53.7883 80.8294C53.8541 80.9405 53.8931 81.0655 53.902 81.1944C53.9234 81.2929 53.9129 81.3956 53.872 81.4876C53.8311 81.5797 53.7619 81.6563 53.6745 81.7064C53.3715 81.8251 53.0513 81.8939 52.7263 81.9103C52.3843 81.927 52.0446 81.9762 51.7118 82.0572H51.5175H51.2852L50.8869 82.0999L50.4413 82.171C50.397 82.2724 50.3775 82.3829 50.3844 82.4934C50.3749 82.6671 50.3749 82.8411 50.3844 83.0148C50.3844 83.1997 50.3844 83.432 50.4318 83.7118L50.465 84.0721C50.5029 84.4655 50.5361 84.9775 50.5598 85.6033C50.7177 85.6143 50.8761 85.6143 51.0339 85.6033H51.8161H52.5936C52.8354 85.6033 52.9966 85.6033 53.0677 85.6033L53.3237 85.5606L53.9969 85.4468C54.414 85.371 54.7412 85.3236 54.9782 85.2999L55.2247 85.2857Z" fill="#101820"/>
<path d="M64.004 77.1557C64.0515 77.3225 64.0895 77.4919 64.1178 77.663C64.1412 77.8106 64.1412 77.961 64.1178 78.1086C64.0878 78.2708 64.0418 78.4296 63.9803 78.5827C63.8925 78.8106 63.7928 79.0337 63.6817 79.2511C63.5815 79.4683 63.4523 79.6708 63.2977 79.8532C63.1673 80.0024 63.0246 80.1404 62.871 80.2657C62.7193 80.3889 62.5486 80.5217 62.359 80.6639C62.1694 80.8061 61.9418 80.991 61.6811 81.228C61.5341 81.356 61.4014 81.4651 61.2781 81.5551C61.1697 81.6411 61.0458 81.7055 60.9131 81.7448L60.8325 81.7732C60.9605 82.1145 61.079 82.3942 61.1833 82.6076C61.2876 82.8209 61.3729 83.0153 61.4583 83.1812L61.6906 83.6553C61.7746 83.8215 61.849 83.9925 61.9134 84.1673C61.9513 84.2621 61.994 84.3664 62.0366 84.4849C62.0828 84.5935 62.1116 84.7087 62.122 84.8262C62.1364 84.9303 62.1182 85.0364 62.0698 85.1297C62.0004 85.2385 61.8945 85.3191 61.7712 85.3572C61.6449 85.4081 61.5039 85.4081 61.3777 85.3572C61.2662 85.3047 61.1711 85.2227 61.1027 85.1202C61.0173 84.9922 60.9458 84.8556 60.8894 84.7125C60.824 84.5381 60.7463 84.3686 60.6571 84.2052C60.5907 84.0693 60.5149 83.9034 60.4295 83.7074L60.1451 83.0674C60.036 82.8162 59.9033 82.5175 59.7469 82.1762L59.7137 82.0956C59.7137 82.0434 59.6568 81.9629 59.6046 81.8538C59.5468 81.746 59.4946 81.6352 59.4482 81.522L59.2965 81.1996C59.2554 81.1229 59.2189 81.0437 59.1875 80.9626V80.9957C59.1209 80.8428 59.0685 80.6842 59.031 80.5217C58.9362 80.2135 58.7655 79.7489 58.5285 79.1326C58.4526 78.9335 58.3768 78.7486 58.3009 78.5922C58.2364 78.4463 58.1586 78.3067 58.0686 78.175C58.0668 78.1482 58.0668 78.1212 58.0686 78.0944C58.0595 78.0492 58.0469 78.0048 58.0307 77.9617C58.0023 77.9 57.9738 77.8289 57.9359 77.7531L57.8269 77.4923C57.7629 77.3427 57.7321 77.1809 57.7368 77.0183C57.7446 76.9066 57.7877 76.8003 57.86 76.7148C57.942 76.6259 58.0401 76.5535 58.1492 76.5015C58.2725 76.4446 58.4147 76.383 58.5759 76.3214L58.7323 76.2597C59.1379 75.951 59.5806 75.6945 60.0503 75.4965C60.2051 75.444 60.3635 75.4028 60.5243 75.3732L61.3919 75.1836C61.7285 75.1836 62.0224 75.2263 62.2737 75.2642C62.5137 75.2978 62.7444 75.3801 62.9516 75.506C63.1756 75.6503 63.3676 75.8391 63.5158 76.0606C63.7252 76.403 63.8893 76.7711 64.004 77.1557ZM62.9706 77.8716C62.9528 77.7631 62.9242 77.6567 62.8852 77.554L62.7809 77.2837C62.684 76.9599 62.4692 76.6842 62.1789 76.511C61.8037 76.3712 61.4 76.3256 61.0032 76.3782C60.7927 76.4032 60.5859 76.4525 60.3869 76.5252C60.3293 76.5654 60.2672 76.5988 60.202 76.6248C60.0598 76.7006 59.9033 76.786 59.7279 76.8902C59.5588 76.9878 59.3999 77.1021 59.2538 77.2316C59.1163 77.3596 59.0689 77.4686 59.1069 77.5634C59.2443 77.9237 59.3913 78.2603 59.5383 78.5685C59.6852 78.8766 59.7943 79.1089 59.8559 79.2701C59.8559 79.2701 60.036 79.7868 60.4058 80.7397L60.5338 80.6923C60.7447 80.6044 60.9425 80.488 61.1217 80.3462C61.3208 80.1898 61.5199 80.0239 61.7095 79.8722C62.5771 79.2938 62.9895 78.6348 62.9706 77.8716Z" fill="#101820"/>
<path d="M75.0324 75.1033C74.998 75.1561 74.9547 75.2026 74.9044 75.2408C74.8807 75.2408 74.7812 75.3403 74.6105 75.4636L74.0227 75.895L73.3827 76.3691C73.1741 76.5255 73.0271 76.644 72.9418 76.7199L72.7142 76.9237L72.3587 77.2224L71.8561 77.6159C71.6713 77.7629 71.4721 77.9098 71.2636 78.09C71.055 78.2701 70.8416 78.3981 70.633 78.5403C70.5355 78.6254 70.4271 78.6971 70.3107 78.7537C70.1862 78.8104 70.0558 78.8534 69.9219 78.8817C69.7944 78.9096 69.6635 78.9192 69.5332 78.9101C69.4186 78.9023 69.3071 78.87 69.2061 78.8153C69.1638 78.6605 69.1384 78.5015 69.1302 78.3412C69.1302 78.0757 69.0875 77.7866 69.0686 77.4642C69.0496 77.1418 69.0307 76.8384 69.0117 76.516C68.9927 76.1937 68.9785 76.004 68.9596 75.8855C68.9596 75.4399 68.9596 75.0274 68.9596 74.6387C68.9596 74.25 68.9311 73.8707 68.9169 73.4962C68.9027 73.1217 68.8837 72.7377 68.8695 72.3442C68.8553 71.9507 68.8695 71.5288 68.8695 71.0689L68.0114 71.7469L67.8692 71.8748C67.6511 72.074 67.3951 72.3489 67.068 72.6903C66.7409 73.0316 66.4327 73.3729 66.1198 73.7048C66.003 73.7423 65.877 73.7404 65.7614 73.6993C65.6457 73.6581 65.5468 73.5801 65.4798 73.4772C65.4095 73.4022 65.3675 73.3049 65.3613 73.2023C65.362 73.0485 65.4118 72.899 65.5035 72.7756C65.6567 72.5332 65.8329 72.3062 66.0298 72.0977C66.3605 71.7364 66.7102 71.393 67.0775 71.0689C67.7457 70.4785 68.4827 69.9707 69.2724 69.5566C69.4587 69.61 69.6242 69.7192 69.7465 69.8695C69.8238 69.937 69.8811 70.0244 69.912 70.1223C69.9429 70.2201 69.9464 70.3245 69.9219 70.4242C69.9219 70.6897 69.9219 70.8983 69.9219 71.0926C69.9219 71.287 69.9219 71.4529 69.9219 71.6189C69.9219 71.7848 69.9219 71.9744 69.9219 72.1735C69.9219 72.3726 69.9219 72.6144 69.9219 72.9083C69.9219 73.2023 69.9551 73.572 69.9883 74.0129C70.0215 74.4538 70.0499 74.999 70.0878 75.658C70.1238 75.8135 70.1429 75.9724 70.1447 76.132C70.1447 76.3027 70.1447 76.4923 70.1447 76.7009L70.2396 77.3978C70.8553 77.029 71.4432 76.6155 71.9984 76.1605L72.2117 75.9661L72.6194 75.6248L73.1836 75.1507L73.7145 74.7335L74.0037 74.4965C74.0928 74.4225 74.171 74.3364 74.236 74.2405C74.3373 74.171 74.4616 74.1435 74.5828 74.1638C74.7039 74.1842 74.8124 74.2507 74.8855 74.3495C74.9963 74.4367 75.0721 74.5607 75.0991 74.6991C75.126 74.8375 75.1024 74.9809 75.0324 75.1033Z" fill="#101820"/>
<path d="M79.6832 68.8304C79.7572 68.8773 79.8167 68.9437 79.8552 69.0224C79.8937 69.101 79.9097 69.1888 79.9013 69.276C79.9051 69.4424 79.8624 69.6066 79.7781 69.7501C79.6786 69.9142 79.5481 70.0575 79.3941 70.172C79.2892 70.2449 79.1693 70.2935 79.0433 70.3142C78.9398 70.332 78.8335 70.3222 78.7351 70.2858C78.6445 70.2547 78.5584 70.2116 78.4791 70.1578C78.2932 70.0246 78.1526 69.8376 78.0761 69.6221C78.0274 69.517 78.0066 69.4012 78.0158 69.2858C78.0249 69.1703 78.0637 69.0592 78.1283 68.9631C78.1816 68.8837 78.2419 68.8091 78.3084 68.7403C78.3879 68.6543 78.4897 68.592 78.6024 68.5601C78.7481 68.519 78.9023 68.519 79.048 68.5601C79.2745 68.6106 79.4898 68.7022 79.6832 68.8304Z" fill="#101820"/>
<path d="M30.3066 55.9688C30.3066 55.9688 30.9466 56.3433 31.032 56.4049C32.2456 57.2582 34.3031 56.1205 34.3031 56.1205" stroke="#101820" stroke-width="1.5" stroke-linecap="round" stroke-linejoin="round"/>
<path d="M34.8926 58.5957C34.9674 58.6763 35.05 58.7493 35.1391 58.8138C35.466 58.9823 35.8183 59.096 36.1821 59.1504C36.5812 59.2435 36.9935 59.266 37.4004 59.2167C37.6422 59.1741 38.5145 58.8422 38.5145 58.8422" stroke="#101820" stroke-width="1.5" stroke-linecap="round" stroke-linejoin="round"/>
<path d="M29.0566 60.2646C29.0566 60.2646 29.7346 61.2128 30.55 61.2128C30.9821 61.2264 31.4146 61.209 31.8442 61.1607C32.1298 61.0921 32.4102 61.0034 32.6833 60.8952" stroke="#101820" stroke-width="1.5" stroke-linecap="round" stroke-linejoin="round"/>
<path d="M39.6426 61.127C40.127 61.3551 40.6277 61.5468 41.1406 61.7006C41.5289 61.7575 41.9234 61.7575 42.3116 61.7006L43.3735 61.5773" stroke="#101820" stroke-width="1.5" stroke-linecap="round" stroke-linejoin="round"/>
<path d="M65.6929 55.9688C65.6929 55.9688 65.0576 56.3433 64.9723 56.4049C63.7586 57.2582 61.7012 56.1205 61.7012 56.1205" stroke="#101820" stroke-width="1.5" stroke-linecap="round" stroke-linejoin="round"/>
<path d="M61.1082 58.5957C61.0346 58.6775 60.9519 58.7507 60.8617 58.8138C60.5354 58.9836 60.1828 59.0974 59.8188 59.1504C59.4213 59.2435 59.0104 59.266 58.6051 59.2167C58.3634 59.1741 57.4863 58.8422 57.4863 58.8422" stroke="#101820" stroke-width="1.5" stroke-linecap="round" stroke-linejoin="round"/>
<path d="M66.9478 60.2646C66.9478 60.2646 66.2651 61.2128 65.4545 61.2128C65.0208 61.2264 64.5867 61.209 64.1555 61.1607C63.8699 61.0921 63.5895 61.0034 63.3164 60.8952" stroke="#101820" stroke-width="1.5" stroke-linecap="round" stroke-linejoin="round"/>
<path d="M56.3579 61.127C55.8735 61.3551 55.3727 61.5468 54.8598 61.7006C54.4716 61.7575 54.0771 61.7575 53.6889 61.7006L52.627 61.5773" stroke="#101820" stroke-width="1.5" stroke-linecap="round" stroke-linejoin="round"/>
<path d="M46.5352 61.6055C47.4945 61.8994 48.5198 61.8994 49.4792 61.6055" stroke="#101820" stroke-width="1.5" stroke-linecap="round" stroke-linejoin="round"/>
<path d="M40.4668 37.7266C40.9984 37.9872 41.5681 38.1616 42.1545 38.2433C42.4236 38.2609 42.6937 38.2498 42.9604 38.2101C43.1406 38.1722 43.9086 37.8546 43.9086 37.8546" stroke="#101820" stroke-width="1.5" stroke-linecap="round" stroke-linejoin="round"/>
<path d="M42.7422 33.7441C42.7422 33.7441 43.5149 34.3984 45.3069 33.8816H45.2643" stroke="#101820" stroke-width="1.5" stroke-linecap="round" stroke-linejoin="round"/>
<path d="M44.9082 30.1562C44.9082 30.1562 45.3491 30.2985 45.4818 30.3269C45.8384 30.3464 46.196 30.3274 46.5485 30.2701" stroke="#101820" stroke-width="1.5" stroke-linecap="round" stroke-linejoin="round"/>
<path d="M46.5352 36.0537C47.4945 36.3476 48.5198 36.3476 49.4792 36.0537" stroke="#101820" stroke-width="1.5" stroke-linecap="round" stroke-linejoin="round"/>
<path d="M47.2656 27.2734C47.7445 27.4205 48.2564 27.4205 48.7353 27.2734" stroke="#101820" stroke-width="1.5" stroke-linecap="round" stroke-linejoin="round"/>
<path d="M55.5433 37.7266C55.0117 37.9872 54.442 38.1616 53.8556 38.2433C53.5866 38.2609 53.3164 38.2498 53.0497 38.2101C52.8696 38.1722 52.1016 37.8546 52.1016 37.8546" stroke="#101820" stroke-width="1.5" stroke-linecap="round" stroke-linejoin="round"/>
<path d="M53.2628 33.7441C53.2628 33.7441 52.4901 34.3984 50.6934 33.8816H50.7408" stroke="#101820" stroke-width="1.5" stroke-linecap="round" stroke-linejoin="round"/>
<path d="M51.0906 30.1562C51.0906 30.1562 50.6545 30.2985 50.5217 30.3269C50.1652 30.3466 49.8075 30.3275 49.4551 30.2701" stroke="#101820" stroke-width="1.5" stroke-linecap="round" stroke-linejoin="round"/>
<path d="M95.4035 47.8196C95.3784 49.8123 95.1641 51.7981 94.7635 53.7503C94.0856 57.0688 93.6968 60.4158 92.7155 63.6395C89.6577 73.7373 82.0156 82.0431 73.4539 87.9263C69.3342 90.7708 64.8447 92.5248 60.0328 93.7906C57.5202 94.4496 54.9839 95.1559 52.3813 95.3456C49.6951 95.4747 47.0028 95.3157 44.3505 94.8715C33.058 93.2502 24.245 90.3962 15.8491 82.427C14.6592 81.294 13.3555 80.2747 12.1893 79.1085C11.023 77.9423 10.1507 76.4964 9.21208 75.1642C6.56675 71.419 3.87401 67.4463 2.57505 63.009C2.22423 61.838 1.91608 60.6386 1.6269 59.4581C0.95525 56.8072 0.625464 54.0813 0.645567 51.3467C0.645567 48.654 0.60764 45.947 0.80201 43.259C1.02408 40.6583 1.54749 38.0922 2.36171 35.6122C4.63727 28.1598 7.26838 22.6937 12.3173 16.7251C14.7012 13.8075 17.417 11.1776 20.4097 8.88867C28.6444 2.83 39.6192 0.355341 49.7265 0.597119C58.4684 0.786748 66.6414 4.13371 73.9469 8.77015C75.445 9.7183 77.109 10.5858 78.498 11.6952C80.309 13.1411 81.9635 14.8478 83.6749 16.4075C90.0133 22.1675 93.0995 30.9805 94.6165 39.163C95.1696 42.0147 95.4333 44.915 95.4035 47.8196V47.8196Z" stroke="#101820" stroke-width="2.5" stroke-linecap="round" stroke-linejoin="round"/>
<path d="M5.33885 48.1615C5.36455 46.368 5.55819 44.5808 5.91722 42.8234C6.52878 39.8605 6.86537 36.8264 7.75663 33.9203C10.5157 24.8323 17.3898 17.3609 25.0983 12.0655C28.8008 9.51974 32.8446 7.92685 37.1729 6.78907C39.4343 6.19173 41.7193 5.55647 44.0612 5.39054C46.4745 5.27315 48.8935 5.41461 51.2766 5.81248C61.4408 7.27262 69.372 9.84211 76.9288 17.0148C78.0002 18.0341 79.1759 18.9538 80.2473 19.992C81.2407 21.0963 82.1368 22.2844 82.9258 23.5429C85.2962 26.9135 87.7329 30.488 88.9229 34.4797C89.2405 35.5369 89.5154 36.6131 89.7952 37.6797C90.3958 40.0648 90.6921 42.5163 90.6769 44.9757C90.6769 47.3983 90.7101 49.8397 90.5347 52.2528C90.3302 54.5964 89.8529 56.9081 89.1125 59.1411C87.0645 65.8445 84.6941 70.7654 80.1335 76.1414C77.9873 78.7651 75.5437 81.1308 72.8517 83.1908C65.442 88.6427 55.567 90.8519 46.4695 90.6528C38.5951 90.4821 31.2423 87.467 24.6621 83.2952C23.2502 82.4928 21.8829 81.6145 20.5661 80.664C18.9306 79.3651 17.4467 77.8196 15.9012 76.4258C10.2123 71.2395 7.42004 63.3034 6.05471 55.9221C5.56045 53.3652 5.32066 50.7657 5.33885 48.1615Z" stroke="#101820" stroke-width="2.5" stroke-linecap="round" stroke-linejoin="round" stroke-dasharray="0.5 9.98"/>
<path d="M33.0426 64.5402C32.5685 64.5402 32.0944 64.507 31.5872 64.4785C29.9418 64.3726 28.2909 64.3853 26.6473 64.5165C26.0168 64.5639 23.8029 64.7867 23.3999 64.0945C22.997 63.4024 25.1398 60.264 25.3815 59.899C27.1167 57.0546 28.7333 54.2101 30.3498 51.3087C31.4781 49.275 32.4974 47.2317 33.749 45.2785C36.2805 41.339 38.4233 37.096 41.007 33.1896C42.9033 30.2978 44.354 27.2021 46.1555 24.2676C46.4541 23.7935 47.3454 21.9256 48.0518 21.9209C48.9999 21.9209 50.1282 24.7938 50.498 25.4859C51.9202 28.1645 53.5273 30.7814 55.0775 33.403C56.1964 35.2993 57.5617 37.0249 58.6284 38.9354C60.7806 42.7849 63.1273 46.5206 65.218 50.4033C66.1661 52.1242 67.0005 53.883 67.9486 55.5849C68.7783 57.0782 69.7169 58.5099 70.6129 59.9606C70.9922 60.5769 72.8648 63.6536 72.6325 64.0566C72.2722 64.6776 69.5321 64.5591 68.9442 64.5307C66.9436 64.4027 65.0521 64.5307 63.0657 64.5591C61.1931 64.5876 59.3015 64.3648 57.4289 64.3173C51.9202 64.1799 46.3641 64.4217 40.8364 64.4169C38.2432 64.4074 35.631 64.5971 33.0426 64.5402Z" stroke="#101820" stroke-width="2" stroke-linecap="round" stroke-linejoin="round"/>
<path d="M63.5641 47.896C64.4032 48.8726 64.3985 48.9674 63.512 49.8966C62.3505 51.1055 58.904 54.2154 57.0978 55.1683C52.1058 57.8042 49.707 57.9464 46.5638 57.7615C45.6484 57.6946 44.7389 57.5615 43.8427 57.3633C39.7704 56.4151 35.4089 53.0445 32.5123 49.9772C31.5641 48.9911 31.5641 48.8537 32.5407 47.9008C36.4092 44.0466 39.6803 41.1831 46.5686 39.979C48.8631 39.576 53.6797 40.4293 57.0598 42.7286C59.6056 44.4542 61.5967 45.5731 63.5641 47.896V47.896Z" stroke="#101820" stroke-width="2" stroke-linecap="round" stroke-linejoin="round"/>
<path d="M47.957 42.9893C47.957 42.9893 48.0471 44.9614 48.0234 45.7579C47.9855 46.7771 47.957 47.7916 47.957 48.8204C47.957 50.7736 48.0234 54.7131 48.0234 54.7131" stroke="#101820" stroke-width="2" stroke-linecap="round" stroke-linejoin="round"/>
<path d="M42.4019 48.915L38.9648 49.0478" stroke="#425855" stroke-width="1.5" stroke-linecap="round" stroke-linejoin="round"/>
<path d="M42.5965 46.2599L39.8848 45.9707" stroke="#425855" stroke-width="1.5" stroke-linecap="round" stroke-linejoin="round"/>
<path d="M43.307 43.9278C42.8251 43.7729 42.3242 43.6852 41.8184 43.667" stroke="#425855" stroke-width="1.5" stroke-linecap="round" stroke-linejoin="round"/>
<path d="M42.7434 51.375C42.3013 51.5642 41.8467 51.7226 41.3828 51.8491" stroke="#425855" stroke-width="1.5" stroke-linecap="round" stroke-linejoin="round"/>
<path d="M43.5002 53.5137C43.1454 53.7113 42.778 53.8854 42.4004 54.0351" stroke="#425855" stroke-width="1.5" stroke-linecap="round" stroke-linejoin="round"/>
<path d="M53.5996 48.915L57.0319 49.0478" stroke="#425855" stroke-width="1.5" stroke-linecap="round" stroke-linejoin="round"/>
<path d="M53.4043 46.2599L56.116 45.9707" stroke="#425855" stroke-width="1.5" stroke-linecap="round" stroke-linejoin="round"/>
<path d="M52.6973 43.9278C53.1791 43.7729 53.68 43.6852 54.1859 43.667" stroke="#425855" stroke-width="1.5" stroke-linecap="round" stroke-linejoin="round"/>
<path d="M53.2773 51.375C53.7199 51.5628 54.1744 51.7212 54.6379 51.8491" stroke="#425855" stroke-width="1.5" stroke-linecap="round" stroke-linejoin="round"/>
<path d="M52.498 53.5137C52.8529 53.7113 53.2203 53.8854 53.5979 54.0351" stroke="#425855" stroke-width="1.5" stroke-linecap="round" stroke-linejoin="round"/>
</g>
<defs>
<clipPath id="clip0_275:37463">
<rect width="96" height="96" fill="white"/>
</clipPath>
</defs>
</svg>
